<svg width="360" height="552" viewBox="0 0 360 552" fill="none" xmlns="http://www.w3.org/2000/svg">
<rect width="360" height="552" fill="#212121"/>
<g filter="url(#filter0_dd_1_531)">
<rect x="140" y="102" width="80" height="70" rx="5" fill="black" fill-opacity="0.7" shape-rendering="crispEdges"/>
<rect x="140.5" y="102.5" width="79" height="69" rx="4.5" stroke="#B6FFBA" shape-rendering="crispEdges"/>
<path d="M173.856 146V143.341L180.069 137.588C180.598 137.077 181.041 136.616 181.399 136.207C181.762 135.798 182.038 135.398 182.225 135.006C182.413 134.608 182.507 134.179 182.507 133.719C182.507 133.207 182.39 132.767 182.157 132.398C181.924 132.023 181.606 131.736 181.203 131.537C180.799 131.332 180.342 131.23 179.831 131.23C179.297 131.23 178.831 131.338 178.433 131.554C178.035 131.77 177.728 132.08 177.512 132.483C177.297 132.886 177.189 133.366 177.189 133.923H173.686C173.686 132.781 173.944 131.79 174.461 130.949C174.978 130.108 175.703 129.457 176.635 128.997C177.566 128.537 178.64 128.307 179.856 128.307C181.106 128.307 182.194 128.528 183.12 128.972C184.052 129.409 184.777 130.017 185.294 130.795C185.811 131.574 186.069 132.466 186.069 133.472C186.069 134.131 185.939 134.781 185.677 135.423C185.422 136.065 184.964 136.778 184.305 137.562C183.646 138.341 182.717 139.276 181.518 140.366L178.97 142.864V142.983H186.299V146H173.856Z" fill="#21A038"/>
</g>
<path d="M106.408 191.364V192.614H100.795V203H99.3857V191.364H106.408ZM110.687 203.182C109.899 203.182 109.208 202.994 108.613 202.619C108.022 202.244 107.56 201.72 107.227 201.045C106.897 200.371 106.732 199.583 106.732 198.682C106.732 197.773 106.897 196.979 107.227 196.301C107.56 195.623 108.022 195.097 108.613 194.722C109.208 194.347 109.899 194.159 110.687 194.159C111.475 194.159 112.164 194.347 112.755 194.722C113.35 195.097 113.812 195.623 114.141 196.301C114.475 196.979 114.641 197.773 114.641 198.682C114.641 199.583 114.475 200.371 114.141 201.045C113.812 201.72 113.35 202.244 112.755 202.619C112.164 202.994 111.475 203.182 110.687 203.182ZM110.687 201.977C111.285 201.977 111.778 201.824 112.164 201.517C112.55 201.21 112.836 200.807 113.022 200.307C113.208 199.807 113.3 199.265 113.3 198.682C113.3 198.098 113.208 197.555 113.022 197.051C112.836 196.547 112.55 196.14 112.164 195.83C111.778 195.519 111.285 195.364 110.687 195.364C110.088 195.364 109.596 195.519 109.21 195.83C108.823 196.14 108.537 196.547 108.352 197.051C108.166 197.555 108.073 198.098 108.073 198.682C108.073 199.265 108.166 199.807 108.352 200.307C108.537 200.807 108.823 201.21 109.21 201.517C109.596 201.824 110.088 201.977 110.687 201.977ZM116.688 206.273V194.273H117.984V195.659H118.143C118.241 195.508 118.378 195.314 118.552 195.08C118.73 194.841 118.984 194.629 119.313 194.443C119.647 194.254 120.097 194.159 120.665 194.159C121.4 194.159 122.048 194.343 122.609 194.71C123.169 195.078 123.607 195.598 123.921 196.273C124.236 196.947 124.393 197.742 124.393 198.659C124.393 199.583 124.236 200.384 123.921 201.062C123.607 201.737 123.171 202.259 122.614 202.631C122.058 202.998 121.415 203.182 120.688 203.182C120.128 203.182 119.679 203.089 119.342 202.903C119.004 202.714 118.745 202.5 118.563 202.261C118.381 202.019 118.241 201.818 118.143 201.659H118.029V206.273H116.688ZM118.006 198.636C118.006 199.295 118.103 199.877 118.296 200.381C118.489 200.881 118.772 201.273 119.143 201.557C119.514 201.837 119.969 201.977 120.506 201.977C121.067 201.977 121.535 201.83 121.91 201.534C122.289 201.235 122.573 200.833 122.762 200.33C122.955 199.822 123.052 199.258 123.052 198.636C123.052 198.023 122.957 197.47 122.768 196.977C122.582 196.481 122.3 196.089 121.921 195.801C121.546 195.509 121.075 195.364 120.506 195.364C119.961 195.364 119.503 195.502 119.131 195.778C118.76 196.051 118.48 196.434 118.29 196.926C118.101 197.415 118.006 197.985 118.006 198.636ZM129.984 203.182C129.196 203.182 128.504 202.994 127.91 202.619C127.319 202.244 126.857 201.72 126.523 201.045C126.194 200.371 126.029 199.583 126.029 198.682C126.029 197.773 126.194 196.979 126.523 196.301C126.857 195.623 127.319 195.097 127.91 194.722C128.504 194.347 129.196 194.159 129.984 194.159C130.772 194.159 131.461 194.347 132.052 194.722C132.647 195.097 133.109 195.623 133.438 196.301C133.772 196.979 133.938 197.773 133.938 198.682C133.938 199.583 133.772 200.371 133.438 201.045C133.109 201.72 132.647 202.244 132.052 202.619C131.461 202.994 130.772 203.182 129.984 203.182ZM129.984 201.977C130.582 201.977 131.075 201.824 131.461 201.517C131.847 201.21 132.133 200.807 132.319 200.307C132.504 199.807 132.597 199.265 132.597 198.682C132.597 198.098 132.504 197.555 132.319 197.051C132.133 196.547 131.847 196.14 131.461 195.83C131.075 195.519 130.582 195.364 129.984 195.364C129.385 195.364 128.893 195.519 128.506 195.83C128.12 196.14 127.834 196.547 127.648 197.051C127.463 197.555 127.37 198.098 127.37 198.682C127.37 199.265 127.463 199.807 127.648 200.307C127.834 200.807 128.12 201.21 128.506 201.517C128.893 201.824 129.385 201.977 129.984 201.977ZM135.053 205.5V201.75H135.781C135.959 201.564 136.112 201.364 136.241 201.148C136.37 200.932 136.481 200.676 136.576 200.381C136.674 200.081 136.758 199.718 136.826 199.29C136.894 198.858 136.955 198.337 137.008 197.727L137.303 194.273H142.849V201.75H144.19V205.5H142.849V203H136.394V205.5H135.053ZM137.303 201.75H141.508V195.523H138.553L138.326 197.727C138.231 198.64 138.114 199.437 137.974 200.119C137.834 200.801 137.61 201.345 137.303 201.75ZM148.538 203.205C147.985 203.205 147.483 203.1 147.032 202.892C146.581 202.68 146.223 202.375 145.958 201.977C145.693 201.576 145.56 201.091 145.56 200.523C145.56 200.023 145.659 199.617 145.856 199.307C146.053 198.992 146.316 198.746 146.646 198.568C146.975 198.39 147.339 198.258 147.737 198.17C148.138 198.08 148.541 198.008 148.947 197.955C149.477 197.886 149.907 197.835 150.237 197.801C150.57 197.763 150.812 197.701 150.964 197.614C151.119 197.527 151.197 197.375 151.197 197.159V197.114C151.197 196.553 151.043 196.117 150.737 195.807C150.433 195.496 149.973 195.341 149.356 195.341C148.716 195.341 148.214 195.481 147.85 195.761C147.487 196.042 147.231 196.341 147.083 196.659L145.81 196.205C146.038 195.674 146.341 195.261 146.719 194.966C147.102 194.667 147.519 194.458 147.969 194.341C148.424 194.22 148.871 194.159 149.31 194.159C149.591 194.159 149.913 194.193 150.276 194.261C150.644 194.326 150.998 194.46 151.339 194.665C151.683 194.869 151.969 195.178 152.197 195.591C152.424 196.004 152.538 196.557 152.538 197.25V203H151.197V201.818H151.129C151.038 202.008 150.886 202.21 150.674 202.426C150.462 202.642 150.18 202.826 149.827 202.977C149.475 203.129 149.045 203.205 148.538 203.205ZM148.742 202C149.272 202 149.719 201.896 150.083 201.688C150.451 201.479 150.727 201.21 150.913 200.881C151.102 200.551 151.197 200.205 151.197 199.841V198.614C151.14 198.682 151.015 198.744 150.822 198.801C150.632 198.854 150.413 198.902 150.163 198.943C149.916 198.981 149.676 199.015 149.441 199.045C149.21 199.072 149.022 199.095 148.879 199.114C148.53 199.159 148.204 199.233 147.901 199.335C147.602 199.434 147.36 199.583 147.174 199.784C146.992 199.981 146.901 200.25 146.901 200.591C146.901 201.057 147.074 201.409 147.418 201.648C147.767 201.883 148.208 202 148.742 202ZM159.485 203V194.273H166.349V203H165.008V195.523H160.826V203H159.485ZM168.798 206.273V194.273H170.093V195.659H170.252C170.351 195.508 170.487 195.314 170.661 195.08C170.839 194.841 171.093 194.629 171.423 194.443C171.756 194.254 172.207 194.159 172.775 194.159C173.51 194.159 174.157 194.343 174.718 194.71C175.279 195.078 175.716 195.598 176.031 196.273C176.345 196.947 176.502 197.742 176.502 198.659C176.502 199.583 176.345 200.384 176.031 201.062C175.716 201.737 175.281 202.259 174.724 202.631C174.167 202.998 173.525 203.182 172.798 203.182C172.237 203.182 171.788 203.089 171.451 202.903C171.114 202.714 170.854 202.5 170.673 202.261C170.491 202.019 170.351 201.818 170.252 201.659H170.138V206.273H168.798ZM170.116 198.636C170.116 199.295 170.212 199.877 170.406 200.381C170.599 200.881 170.881 201.273 171.252 201.557C171.623 201.837 172.078 201.977 172.616 201.977C173.176 201.977 173.644 201.83 174.019 201.534C174.398 201.235 174.682 200.833 174.871 200.33C175.065 199.822 175.161 199.258 175.161 198.636C175.161 198.023 175.067 197.47 174.877 196.977C174.692 196.481 174.409 196.089 174.031 195.801C173.656 195.509 173.184 195.364 172.616 195.364C172.07 195.364 171.612 195.502 171.241 195.778C170.87 196.051 170.589 196.434 170.4 196.926C170.21 197.415 170.116 197.985 170.116 198.636ZM179.888 201.023L184.093 194.273H185.638V203H184.298V196.25L180.116 203H178.548V194.273H179.888V201.023ZM191.64 203.182C190.822 203.182 190.117 202.989 189.526 202.602C188.935 202.216 188.481 201.684 188.163 201.006C187.844 200.328 187.685 199.553 187.685 198.682C187.685 197.795 187.848 197.013 188.174 196.335C188.504 195.653 188.962 195.121 189.549 194.739C190.14 194.352 190.829 194.159 191.617 194.159C192.231 194.159 192.784 194.273 193.276 194.5C193.769 194.727 194.172 195.045 194.487 195.455C194.801 195.864 194.996 196.341 195.072 196.886H193.731C193.629 196.489 193.401 196.136 193.049 195.83C192.701 195.519 192.231 195.364 191.64 195.364C191.117 195.364 190.659 195.5 190.265 195.773C189.875 196.042 189.57 196.422 189.35 196.915C189.134 197.403 189.026 197.977 189.026 198.636C189.026 199.311 189.132 199.898 189.344 200.398C189.56 200.898 189.863 201.286 190.254 201.562C190.647 201.839 191.11 201.977 191.64 201.977C191.988 201.977 192.305 201.917 192.589 201.795C192.873 201.674 193.113 201.5 193.31 201.273C193.507 201.045 193.647 200.773 193.731 200.455H195.072C194.996 200.97 194.808 201.434 194.509 201.847C194.214 202.256 193.822 202.581 193.333 202.824C192.848 203.062 192.284 203.182 191.64 203.182ZM197.896 206.273C197.668 206.273 197.466 206.254 197.288 206.216C197.11 206.182 196.987 206.148 196.918 206.114L197.259 204.932C197.585 205.015 197.873 205.045 198.123 205.023C198.373 205 198.594 204.888 198.788 204.688C198.985 204.491 199.165 204.17 199.327 203.727L199.577 203.045L196.35 194.273H197.805L200.214 201.227H200.305L202.714 194.273H204.168L200.464 204.273C200.297 204.723 200.091 205.097 199.844 205.392C199.598 205.691 199.312 205.913 198.987 206.057C198.665 206.201 198.301 206.273 197.896 206.273ZM205.438 195.523V194.273H212.529V195.523H209.665V203H208.325V195.523H205.438ZM217.577 203.182C216.759 203.182 216.055 202.989 215.464 202.602C214.873 202.216 214.418 201.684 214.1 201.006C213.782 200.328 213.623 199.553 213.623 198.682C213.623 197.795 213.786 197.013 214.112 196.335C214.441 195.653 214.899 195.121 215.487 194.739C216.077 194.352 216.767 194.159 217.555 194.159C218.168 194.159 218.721 194.273 219.214 194.5C219.706 194.727 220.11 195.045 220.424 195.455C220.738 195.864 220.933 196.341 221.009 196.886H219.668C219.566 196.489 219.339 196.136 218.987 195.83C218.638 195.519 218.168 195.364 217.577 195.364C217.055 195.364 216.596 195.5 216.202 195.773C215.812 196.042 215.507 196.422 215.288 196.915C215.072 197.403 214.964 197.977 214.964 198.636C214.964 199.311 215.07 199.898 215.282 200.398C215.498 200.898 215.801 201.286 216.191 201.562C216.585 201.839 217.047 201.977 217.577 201.977C217.926 201.977 218.242 201.917 218.526 201.795C218.81 201.674 219.051 201.5 219.248 201.273C219.445 201.045 219.585 200.773 219.668 200.455H221.009C220.933 200.97 220.746 201.434 220.447 201.847C220.151 202.256 219.759 202.581 219.271 202.824C218.786 203.062 218.221 203.182 217.577 203.182ZM222.282 195.523V194.273H229.373V195.523H226.509V203H225.168V195.523H222.282ZM231.329 203V194.273H234.897C235.836 194.273 236.583 194.485 237.136 194.909C237.689 195.333 237.965 195.894 237.965 196.591C237.965 197.121 237.808 197.532 237.494 197.824C237.179 198.112 236.776 198.307 236.283 198.409C236.605 198.455 236.918 198.568 237.221 198.75C237.528 198.932 237.781 199.182 237.982 199.5C238.183 199.814 238.283 200.201 238.283 200.659C238.283 201.106 238.17 201.506 237.942 201.858C237.715 202.21 237.389 202.489 236.965 202.693C236.541 202.898 236.033 203 235.442 203H231.329ZM232.602 201.773H235.442C235.905 201.773 236.266 201.663 236.528 201.443C236.789 201.223 236.92 200.924 236.92 200.545C236.92 200.095 236.789 199.741 236.528 199.483C236.266 199.222 235.905 199.091 235.442 199.091H232.602V201.773ZM232.602 197.932H234.897C235.257 197.932 235.566 197.883 235.823 197.784C236.081 197.682 236.278 197.538 236.414 197.352C236.554 197.163 236.624 196.939 236.624 196.682C236.624 196.314 236.471 196.027 236.164 195.818C235.857 195.606 235.435 195.5 234.897 195.5H232.602V197.932ZM241.654 201.023L245.859 194.273H247.404V203H246.063V196.25L241.881 203H240.313V194.273H241.654V201.023ZM255.11 203V195.5H252.792C252.269 195.5 251.858 195.621 251.559 195.864C251.26 196.106 251.11 196.439 251.11 196.864C251.11 197.28 251.245 197.608 251.513 197.847C251.786 198.085 252.159 198.205 252.633 198.205H255.451V199.455H252.633C252.042 199.455 251.532 199.35 251.104 199.142C250.676 198.934 250.347 198.636 250.116 198.25C249.885 197.86 249.769 197.398 249.769 196.864C249.769 196.326 249.89 195.864 250.133 195.477C250.375 195.091 250.722 194.794 251.173 194.585C251.627 194.377 252.167 194.273 252.792 194.273H256.383V203H255.11ZM249.292 203L251.769 198.659H253.224L250.746 203H249.292ZM259.822 203.091C259.541 203.091 259.301 202.991 259.1 202.79C258.899 202.589 258.799 202.348 258.799 202.068C258.799 201.788 258.899 201.547 259.1 201.347C259.301 201.146 259.541 201.045 259.822 201.045C260.102 201.045 260.343 201.146 260.543 201.347C260.744 201.547 260.844 201.788 260.844 202.068C260.844 202.254 260.797 202.424 260.702 202.58C260.612 202.735 260.488 202.86 260.333 202.955C260.182 203.045 260.011 203.091 259.822 203.091ZM259.822 196.614C259.541 196.614 259.301 196.513 259.1 196.312C258.899 196.112 258.799 195.871 258.799 195.591C258.799 195.311 258.899 195.07 259.1 194.869C259.301 194.669 259.541 194.568 259.822 194.568C260.102 194.568 260.343 194.669 260.543 194.869C260.744 195.07 260.844 195.311 260.844 195.591C260.844 195.777 260.797 195.947 260.702 196.102C260.612 196.258 260.488 196.383 260.333 196.477C260.182 196.568 260.011 196.614 259.822 196.614ZM83.2649 215H81.8558C81.7725 214.595 81.6267 214.239 81.4183 213.932C81.2138 213.625 80.9638 213.367 80.6683 213.159C80.3767 212.947 80.0528 212.788 79.6967 212.682C79.3407 212.576 78.9695 212.523 78.5831 212.523C77.8786 212.523 77.2403 212.701 76.6683 213.057C76.1001 213.413 75.6475 213.938 75.3104 214.631C74.977 215.324 74.8104 216.174 74.8104 217.182C74.8104 218.189 74.977 219.04 75.3104 219.733C75.6475 220.426 76.1001 220.951 76.6683 221.307C77.2403 221.663 77.8786 221.841 78.5831 221.841C78.9695 221.841 79.3407 221.788 79.6967 221.682C80.0528 221.576 80.3767 221.419 80.6683 221.21C80.9638 220.998 81.2138 220.739 81.4183 220.432C81.6267 220.121 81.7725 219.765 81.8558 219.364H83.2649C83.1589 219.958 82.9657 220.491 82.6854 220.96C82.4051 221.43 82.0566 221.83 81.6399 222.159C81.2232 222.485 80.7554 222.733 80.2365 222.903C79.7214 223.074 79.1702 223.159 78.5831 223.159C77.5907 223.159 76.7081 222.917 75.9354 222.432C75.1626 221.947 74.5547 221.258 74.1115 220.364C73.6683 219.47 73.4467 218.409 73.4467 217.182C73.4467 215.955 73.6683 214.894 74.1115 214C74.5547 213.106 75.1626 212.417 75.9354 211.932C76.7081 211.447 77.5907 211.205 78.5831 211.205C79.1702 211.205 79.7214 211.29 80.2365 211.46C80.7554 211.631 81.2232 211.881 81.6399 212.21C82.0566 212.536 82.4051 212.934 82.6854 213.403C82.9657 213.869 83.1589 214.402 83.2649 215ZM87.9283 223.205C87.3752 223.205 86.8733 223.1 86.4226 222.892C85.9718 222.68 85.6139 222.375 85.3487 221.977C85.0836 221.576 84.951 221.091 84.951 220.523C84.951 220.023 85.0495 219.617 85.2464 219.307C85.4434 218.992 85.7067 218.746 86.0362 218.568C86.3658 218.39 86.7294 218.258 87.1271 218.17C87.5286 218.08 87.9321 218.008 88.3374 217.955C88.8677 217.886 89.2976 217.835 89.6271 217.801C89.9605 217.763 90.2029 217.701 90.3544 217.614C90.5097 217.527 90.5874 217.375 90.5874 217.159V217.114C90.5874 216.553 90.4339 216.117 90.1271 215.807C89.8241 215.496 89.3639 215.341 88.7464 215.341C88.1063 215.341 87.6044 215.481 87.2408 215.761C86.8771 216.042 86.6214 216.341 86.4737 216.659L85.201 216.205C85.4283 215.674 85.7313 215.261 86.1101 214.966C86.4927 214.667 86.9093 214.458 87.3601 214.341C87.8146 214.22 88.2616 214.159 88.701 214.159C88.9813 214.159 89.3033 214.193 89.6669 214.261C90.0343 214.326 90.3885 214.46 90.7294 214.665C91.0741 214.869 91.3601 215.178 91.5874 215.591C91.8146 216.004 91.9283 216.557 91.9283 217.25V223H90.5874V221.818H90.5192C90.4283 222.008 90.2768 222.21 90.0646 222.426C89.8525 222.642 89.5703 222.826 89.218 222.977C88.8658 223.129 88.4358 223.205 87.9283 223.205ZM88.1328 222C88.6631 222 89.1101 221.896 89.4737 221.688C89.8411 221.479 90.1177 221.21 90.3033 220.881C90.4927 220.551 90.5874 220.205 90.5874 219.841V218.614C90.5305 218.682 90.4055 218.744 90.2124 218.801C90.023 218.854 89.8033 218.902 89.5533 218.943C89.3071 218.981 89.0665 219.015 88.8317 219.045C88.6006 219.072 88.4131 219.095 88.2692 219.114C87.9207 219.159 87.5949 219.233 87.2919 219.335C86.9927 219.434 86.7502 219.583 86.5646 219.784C86.3828 219.981 86.2919 220.25 86.2919 220.591C86.2919 221.057 86.4643 221.409 86.8089 221.648C87.1574 221.883 87.5987 222 88.1328 222ZM100.217 218.023V219.273H95.3984V218.023H100.217ZM95.7166 214.273V223H94.3757V214.273H95.7166ZM101.239 214.273V223H99.8984V214.273H101.239ZM103.688 223V214.273H105.029V218.068H105.915L109.052 214.273H110.779L107.256 218.477L110.825 223H109.097L106.234 219.318H105.029V223H103.688ZM111.782 215.523V214.273H118.873V215.523H116.009V223H114.668V215.523H111.782ZM125.376 217.386V218.636H120.285V217.386H125.376ZM136.621 211.364V223H135.212V212.614H129.349V223H127.94V211.364H136.621ZM142.941 223.182C142.1 223.182 141.375 222.996 140.765 222.625C140.159 222.25 139.691 221.727 139.362 221.057C139.036 220.383 138.873 219.598 138.873 218.705C138.873 217.811 139.036 217.023 139.362 216.341C139.691 215.655 140.149 215.121 140.737 214.739C141.327 214.352 142.017 214.159 142.805 214.159C143.259 214.159 143.708 214.235 144.151 214.386C144.594 214.538 144.998 214.784 145.362 215.125C145.725 215.462 146.015 215.909 146.231 216.466C146.447 217.023 146.555 217.708 146.555 218.523V219.091H139.827V217.932H145.191C145.191 217.439 145.093 217 144.896 216.614C144.702 216.227 144.426 215.922 144.066 215.699C143.71 215.475 143.29 215.364 142.805 215.364C142.271 215.364 141.808 215.496 141.418 215.761C141.032 216.023 140.735 216.364 140.526 216.784C140.318 217.205 140.214 217.655 140.214 218.136V218.909C140.214 219.568 140.327 220.127 140.555 220.585C140.786 221.04 141.106 221.386 141.515 221.625C141.924 221.86 142.399 221.977 142.941 221.977C143.293 221.977 143.612 221.928 143.896 221.83C144.183 221.727 144.432 221.576 144.64 221.375C144.848 221.17 145.009 220.917 145.123 220.614L146.418 220.977C146.282 221.417 146.053 221.803 145.731 222.136C145.409 222.466 145.011 222.723 144.538 222.909C144.064 223.091 143.532 223.182 142.941 223.182ZM147.782 215.523V214.273H154.873V215.523H152.009V223H150.668V215.523H147.782ZM160.035 223.182C159.194 223.182 158.469 222.996 157.859 222.625C157.253 222.25 156.785 221.727 156.455 221.057C156.129 220.383 155.967 219.598 155.967 218.705C155.967 217.811 156.129 217.023 156.455 216.341C156.785 215.655 157.243 215.121 157.83 214.739C158.421 214.352 159.111 214.159 159.898 214.159C160.353 214.159 160.802 214.235 161.245 214.386C161.688 214.538 162.092 214.784 162.455 215.125C162.819 215.462 163.109 215.909 163.325 216.466C163.54 217.023 163.648 217.708 163.648 218.523V219.091H156.921V217.932H162.285C162.285 217.439 162.186 217 161.989 216.614C161.796 216.227 161.52 215.922 161.16 215.699C160.804 215.475 160.383 215.364 159.898 215.364C159.364 215.364 158.902 215.496 158.512 215.761C158.126 216.023 157.828 216.364 157.62 216.784C157.412 217.205 157.308 217.655 157.308 218.136V218.909C157.308 219.568 157.421 220.127 157.648 220.585C157.879 221.04 158.2 221.386 158.609 221.625C159.018 221.86 159.493 221.977 160.035 221.977C160.387 221.977 160.705 221.928 160.989 221.83C161.277 221.727 161.525 221.576 161.734 221.375C161.942 221.17 162.103 220.917 162.217 220.614L163.512 220.977C163.376 221.417 163.147 221.803 162.825 222.136C162.503 222.466 162.105 222.723 161.631 222.909C161.158 223.091 160.626 223.182 160.035 223.182ZM165.688 226.273V214.273H166.984V215.659H167.143C167.241 215.508 167.378 215.314 167.552 215.08C167.73 214.841 167.984 214.629 168.313 214.443C168.647 214.254 169.097 214.159 169.665 214.159C170.4 214.159 171.048 214.343 171.609 214.71C172.169 215.078 172.607 215.598 172.921 216.273C173.236 216.947 173.393 217.742 173.393 218.659C173.393 219.583 173.236 220.384 172.921 221.062C172.607 221.737 172.171 222.259 171.614 222.631C171.058 222.998 170.415 223.182 169.688 223.182C169.128 223.182 168.679 223.089 168.342 222.903C168.004 222.714 167.745 222.5 167.563 222.261C167.381 222.019 167.241 221.818 167.143 221.659H167.029V226.273H165.688ZM167.006 218.636C167.006 219.295 167.103 219.877 167.296 220.381C167.489 220.881 167.772 221.273 168.143 221.557C168.514 221.837 168.969 221.977 169.506 221.977C170.067 221.977 170.535 221.83 170.91 221.534C171.289 221.235 171.573 220.833 171.762 220.33C171.955 219.822 172.052 219.258 172.052 218.636C172.052 218.023 171.957 217.47 171.768 216.977C171.582 216.481 171.3 216.089 170.921 215.801C170.546 215.509 170.075 215.364 169.506 215.364C168.961 215.364 168.503 215.502 168.131 215.778C167.76 216.051 167.48 216.434 167.29 216.926C167.101 217.415 167.006 217.985 167.006 218.636ZM181.915 211L182.597 211.818C182.332 212.076 182.025 212.256 181.677 212.358C181.328 212.46 180.934 212.523 180.495 212.545C180.056 212.568 179.567 212.591 179.029 212.614C178.423 212.636 177.921 212.784 177.523 213.057C177.126 213.33 176.819 213.723 176.603 214.239C176.387 214.754 176.249 215.386 176.188 216.136H176.302C176.597 215.591 177.006 215.189 177.529 214.932C178.052 214.674 178.612 214.545 179.211 214.545C179.893 214.545 180.506 214.705 181.052 215.023C181.597 215.341 182.029 215.812 182.347 216.438C182.665 217.062 182.825 217.833 182.825 218.75C182.825 219.663 182.662 220.451 182.336 221.114C182.014 221.777 181.561 222.288 180.978 222.648C180.398 223.004 179.719 223.182 178.938 223.182C178.158 223.182 177.474 222.998 176.887 222.631C176.3 222.259 175.844 221.71 175.518 220.983C175.192 220.252 175.029 219.348 175.029 218.273V217.341C175.029 215.398 175.359 213.924 176.018 212.92C176.681 211.917 177.677 211.398 179.006 211.364C179.476 211.348 179.895 211.345 180.262 211.352C180.629 211.36 180.95 211.343 181.222 211.301C181.495 211.259 181.726 211.159 181.915 211ZM178.938 221.977C179.465 221.977 179.917 221.845 180.296 221.58C180.679 221.314 180.972 220.941 181.177 220.46C181.381 219.975 181.484 219.405 181.484 218.75C181.484 218.114 181.379 217.572 181.171 217.125C180.967 216.678 180.673 216.337 180.29 216.102C179.908 215.867 179.45 215.75 178.915 215.75C178.525 215.75 178.175 215.816 177.864 215.949C177.554 216.081 177.289 216.277 177.069 216.534C176.849 216.792 176.679 217.106 176.558 217.477C176.44 217.848 176.378 218.273 176.37 218.75C176.37 219.727 176.599 220.509 177.058 221.097C177.516 221.684 178.143 221.977 178.938 221.977ZM185.739 226.273C185.512 226.273 185.309 226.254 185.131 226.216C184.953 226.182 184.83 226.148 184.762 226.114L185.103 224.932C185.429 225.015 185.717 225.045 185.967 225.023C186.217 225 186.438 224.888 186.631 224.688C186.828 224.491 187.008 224.17 187.171 223.727L187.421 223.045L184.194 214.273H185.648L188.058 221.227H188.148L190.558 214.273H192.012L188.308 224.273C188.141 224.723 187.934 225.097 187.688 225.392C187.442 225.691 187.156 225.913 186.83 226.057C186.508 226.201 186.145 226.273 185.739 226.273ZM193.782 226.273V214.273H195.077V215.659H195.237C195.335 215.508 195.471 215.314 195.646 215.08C195.824 214.841 196.077 214.629 196.407 214.443C196.74 214.254 197.191 214.159 197.759 214.159C198.494 214.159 199.142 214.343 199.702 214.71C200.263 215.078 200.701 215.598 201.015 216.273C201.329 216.947 201.487 217.742 201.487 218.659C201.487 219.583 201.329 220.384 201.015 221.062C200.701 221.737 200.265 222.259 199.708 222.631C199.151 222.998 198.509 223.182 197.782 223.182C197.221 223.182 196.772 223.089 196.435 222.903C196.098 222.714 195.839 222.5 195.657 222.261C195.475 222.019 195.335 221.818 195.237 221.659H195.123V226.273H193.782ZM195.1 218.636C195.1 219.295 195.197 219.877 195.39 220.381C195.583 220.881 195.865 221.273 196.237 221.557C196.608 221.837 197.062 221.977 197.6 221.977C198.161 221.977 198.629 221.83 199.004 221.534C199.382 221.235 199.666 220.833 199.856 220.33C200.049 219.822 200.146 219.258 200.146 218.636C200.146 218.023 200.051 217.47 199.862 216.977C199.676 216.481 199.394 216.089 199.015 215.801C198.64 215.509 198.168 215.364 197.6 215.364C197.055 215.364 196.596 215.502 196.225 215.778C195.854 216.051 195.574 216.434 195.384 216.926C195.195 217.415 195.1 217.985 195.1 218.636ZM208.918 214.273V215.523H204.873V223H203.532V214.273H208.918ZM216.717 221.023L220.921 214.273H222.467V223H221.126V216.25L216.944 223H215.376V214.273H216.717V221.023ZM229.604 211.364H231.286L235.241 221.023H235.377L239.332 211.364H241.013V223H239.695V214.159H239.582L235.945 223H234.673L231.036 214.159H230.923V223H229.604V211.364ZM247.202 223.182C246.415 223.182 245.723 222.994 245.129 222.619C244.538 222.244 244.076 221.72 243.742 221.045C243.413 220.371 243.248 219.583 243.248 218.682C243.248 217.773 243.413 216.979 243.742 216.301C244.076 215.623 244.538 215.097 245.129 214.722C245.723 214.347 246.415 214.159 247.202 214.159C247.99 214.159 248.68 214.347 249.271 214.722C249.865 215.097 250.327 215.623 250.657 216.301C250.99 216.979 251.157 217.773 251.157 218.682C251.157 219.583 250.99 220.371 250.657 221.045C250.327 221.72 249.865 222.244 249.271 222.619C248.68 222.994 247.99 223.182 247.202 223.182ZM247.202 221.977C247.801 221.977 248.293 221.824 248.68 221.517C249.066 221.21 249.352 220.807 249.538 220.307C249.723 219.807 249.816 219.265 249.816 218.682C249.816 218.098 249.723 217.555 249.538 217.051C249.352 216.547 249.066 216.14 248.68 215.83C248.293 215.519 247.801 215.364 247.202 215.364C246.604 215.364 246.112 215.519 245.725 215.83C245.339 216.14 245.053 216.547 244.867 217.051C244.682 217.555 244.589 218.098 244.589 218.682C244.589 219.265 244.682 219.807 244.867 220.307C245.053 220.807 245.339 221.21 245.725 221.517C246.112 221.824 246.604 221.977 247.202 221.977ZM256.749 223.182C255.931 223.182 255.227 222.989 254.636 222.602C254.045 222.216 253.59 221.684 253.272 221.006C252.954 220.328 252.795 219.553 252.795 218.682C252.795 217.795 252.958 217.013 253.283 216.335C253.613 215.653 254.071 215.121 254.658 214.739C255.249 214.352 255.939 214.159 256.727 214.159C257.34 214.159 257.893 214.273 258.386 214.5C258.878 214.727 259.281 215.045 259.596 215.455C259.91 215.864 260.105 216.341 260.181 216.886H258.84C258.738 216.489 258.511 216.136 258.158 215.83C257.81 215.519 257.34 215.364 256.749 215.364C256.227 215.364 255.768 215.5 255.374 215.773C254.984 216.042 254.679 216.422 254.46 216.915C254.244 217.403 254.136 217.977 254.136 218.636C254.136 219.311 254.242 219.898 254.454 220.398C254.67 220.898 254.973 221.286 255.363 221.562C255.757 221.839 256.219 221.977 256.749 221.977C257.098 221.977 257.414 221.917 257.698 221.795C257.982 221.674 258.223 221.5 258.42 221.273C258.617 221.045 258.757 220.773 258.84 220.455H260.181C260.105 220.97 259.918 221.434 259.619 221.847C259.323 222.256 258.931 222.581 258.442 222.824C257.958 223.062 257.393 223.182 256.749 223.182ZM262.141 223V214.273H263.482V218.068H264.369L267.505 214.273H269.232L265.71 218.477L269.278 223H267.55L264.687 219.318H263.482V223H262.141ZM270.735 223V214.273H274.303C275.243 214.273 275.989 214.485 276.542 214.909C277.095 215.333 277.371 215.894 277.371 216.591C277.371 217.121 277.214 217.532 276.9 217.824C276.585 218.112 276.182 218.307 275.69 218.409C276.012 218.455 276.324 218.568 276.627 218.75C276.934 218.932 277.188 219.182 277.388 219.5C277.589 219.814 277.69 220.201 277.69 220.659C277.69 221.106 277.576 221.506 277.349 221.858C277.121 222.21 276.796 222.489 276.371 222.693C275.947 222.898 275.44 223 274.849 223H270.735ZM272.008 221.773H274.849C275.311 221.773 275.673 221.663 275.934 221.443C276.195 221.223 276.326 220.924 276.326 220.545C276.326 220.095 276.195 219.741 275.934 219.483C275.673 219.222 275.311 219.091 274.849 219.091H272.008V221.773ZM272.008 217.932H274.303C274.663 217.932 274.972 217.883 275.229 217.784C275.487 217.682 275.684 217.538 275.82 217.352C275.96 217.163 276.031 216.939 276.031 216.682C276.031 216.314 275.877 216.027 275.57 215.818C275.263 215.606 274.841 215.5 274.303 215.5H272.008V217.932ZM282.288 223.205C281.735 223.205 281.233 223.1 280.782 222.892C280.331 222.68 279.973 222.375 279.708 221.977C279.443 221.576 279.31 221.091 279.31 220.523C279.31 220.023 279.409 219.617 279.606 219.307C279.803 218.992 280.066 218.746 280.396 218.568C280.725 218.39 281.089 218.258 281.487 218.17C281.888 218.08 282.291 218.008 282.697 217.955C283.227 217.886 283.657 217.835 283.987 217.801C284.32 217.763 284.562 217.701 284.714 217.614C284.869 217.527 284.947 217.375 284.947 217.159V217.114C284.947 216.553 284.793 216.117 284.487 215.807C284.183 215.496 283.723 215.341 283.106 215.341C282.466 215.341 281.964 215.481 281.6 215.761C281.237 216.042 280.981 216.341 280.833 216.659L279.56 216.205C279.788 215.674 280.091 215.261 280.469 214.966C280.852 214.667 281.269 214.458 281.719 214.341C282.174 214.22 282.621 214.159 283.06 214.159C283.341 214.159 283.663 214.193 284.026 214.261C284.394 214.326 284.748 214.46 285.089 214.665C285.433 214.869 285.719 215.178 285.947 215.591C286.174 216.004 286.288 216.557 286.288 217.25V223H284.947V221.818H284.879C284.788 222.008 284.636 222.21 284.424 222.426C284.212 222.642 283.93 222.826 283.577 222.977C283.225 223.129 282.795 223.205 282.288 223.205ZM282.492 222C283.022 222 283.469 221.896 283.833 221.688C284.201 221.479 284.477 221.21 284.663 220.881C284.852 220.551 284.947 220.205 284.947 219.841V218.614C284.89 218.682 284.765 218.744 284.572 218.801C284.382 218.854 284.163 218.902 283.913 218.943C283.666 218.981 283.426 219.015 283.191 219.045C282.96 219.072 282.772 219.095 282.629 219.114C282.28 219.159 281.954 219.233 281.651 219.335C281.352 219.434 281.11 219.583 280.924 219.784C280.742 219.981 280.651 220.25 280.651 220.591C280.651 221.057 280.824 221.409 281.168 221.648C281.517 221.883 281.958 222 282.492 222Z" fill="white"/>
<g filter="url(#filter1_dd_1_531)">
<rect x="140" y="262" width="80" height="70" rx="5" fill="black" fill-opacity="0.7" shape-rendering="crispEdges"/>
<rect x="140.5" y="262.5" width="79" height="69" rx="4.5" stroke="#B6FFBA" shape-rendering="crispEdges"/>
<path d="M169.828 298.884L157.828 304.168V300.716L166.044 297.418L165.933 297.597V297.17L166.044 297.349L157.828 294.051V290.599L169.828 295.884V298.884ZM179.851 306.239C178.578 306.239 177.445 306.02 176.45 305.582C175.462 305.139 174.68 304.531 174.107 303.759C173.538 302.98 173.246 302.082 173.229 301.065H176.945C176.967 301.491 177.107 301.866 177.362 302.19C177.624 302.509 177.97 302.756 178.402 302.932C178.834 303.108 179.32 303.196 179.859 303.196C180.422 303.196 180.919 303.097 181.351 302.898C181.783 302.699 182.121 302.423 182.365 302.071C182.609 301.719 182.732 301.312 182.732 300.852C182.732 300.386 182.601 299.974 182.339 299.616C182.084 299.253 181.714 298.969 181.232 298.764C180.754 298.56 180.186 298.457 179.527 298.457H177.899V295.747H179.527C180.084 295.747 180.575 295.651 181.001 295.457C181.433 295.264 181.768 294.997 182.007 294.656C182.246 294.31 182.365 293.906 182.365 293.446C182.365 293.009 182.26 292.625 182.05 292.295C181.845 291.96 181.555 291.699 181.18 291.511C180.811 291.324 180.379 291.23 179.885 291.23C179.385 291.23 178.928 291.321 178.513 291.503C178.098 291.679 177.766 291.932 177.516 292.261C177.266 292.591 177.132 292.977 177.115 293.42H173.578C173.595 292.415 173.882 291.528 174.439 290.761C174.996 289.994 175.746 289.395 176.689 288.963C177.638 288.526 178.709 288.307 179.902 288.307C181.107 288.307 182.161 288.526 183.064 288.963C183.967 289.401 184.669 289.991 185.169 290.736C185.675 291.474 185.925 292.304 185.919 293.224C185.925 294.202 185.621 295.017 185.007 295.67C184.399 296.324 183.607 296.739 182.629 296.915V297.051C183.913 297.216 184.891 297.662 185.561 298.389C186.237 299.111 186.572 300.014 186.567 301.099C186.572 302.094 186.286 302.977 185.706 303.75C185.132 304.523 184.339 305.131 183.328 305.574C182.317 306.017 181.158 306.239 179.851 306.239ZM196.063 306.384C194.597 306.378 193.336 306.017 192.279 305.301C191.228 304.585 190.418 303.548 189.85 302.19C189.288 300.832 189.009 299.199 189.015 297.29C189.015 295.386 189.296 293.764 189.859 292.423C190.427 291.082 191.237 290.062 192.288 289.364C193.344 288.659 194.603 288.307 196.063 288.307C197.523 288.307 198.779 288.659 199.83 289.364C200.887 290.068 201.7 291.091 202.268 292.432C202.836 293.767 203.117 295.386 203.112 297.29C203.112 299.205 202.827 300.841 202.259 302.199C201.697 303.557 200.89 304.594 199.839 305.31C198.788 306.026 197.529 306.384 196.063 306.384ZM196.063 303.324C197.063 303.324 197.862 302.821 198.458 301.815C199.055 300.81 199.35 299.301 199.344 297.29C199.344 295.966 199.208 294.864 198.935 293.983C198.668 293.102 198.288 292.44 197.793 291.997C197.305 291.554 196.728 291.332 196.063 291.332C195.069 291.332 194.273 291.83 193.677 292.824C193.08 293.818 192.779 295.307 192.773 297.29C192.773 298.631 192.907 299.75 193.174 300.648C193.447 301.54 193.83 302.21 194.325 302.659C194.819 303.102 195.398 303.324 196.063 303.324Z" fill="#21A038"/>
</g>
<path d="M77.7997 363V361.705H78.1406C78.6255 361.705 79.0024 361.549 79.2713 361.239C79.5402 360.928 79.7334 360.426 79.8509 359.733C79.9721 359.04 80.0535 358.121 80.0952 356.977L80.2997 351.364H87.3906V363H85.9815V352.614H81.6406L81.4588 357.25C81.4134 358.47 81.3016 359.508 81.1236 360.364C80.9455 361.22 80.633 361.873 80.1861 362.324C79.7391 362.775 79.0876 363 78.2315 363H77.7997ZM93.6832 363.182C92.8423 363.182 92.117 362.996 91.5071 362.625C90.901 362.25 90.4332 361.727 90.1037 361.057C89.7779 360.383 89.6151 359.598 89.6151 358.705C89.6151 357.811 89.7779 357.023 90.1037 356.341C90.4332 355.655 90.8916 355.121 91.4787 354.739C92.0696 354.352 92.759 354.159 93.5469 354.159C94.0014 354.159 94.4503 354.235 94.8935 354.386C95.3366 354.538 95.7401 354.784 96.1037 355.125C96.4673 355.462 96.7571 355.909 96.973 356.466C97.1889 357.023 97.2969 357.708 97.2969 358.523V359.091H90.5696V357.932H95.9332C95.9332 357.439 95.8348 357 95.6378 356.614C95.4446 356.227 95.1681 355.922 94.8082 355.699C94.4522 355.475 94.0317 355.364 93.5469 355.364C93.0128 355.364 92.5507 355.496 92.1605 355.761C91.7741 356.023 91.4768 356.364 91.2685 356.784C91.0601 357.205 90.956 357.655 90.956 358.136V358.909C90.956 359.568 91.0696 360.127 91.2969 360.585C91.5279 361.04 91.848 361.386 92.2571 361.625C92.6662 361.86 93.1416 361.977 93.6832 361.977C94.0355 361.977 94.3537 361.928 94.6378 361.83C94.9257 361.727 95.1738 361.576 95.3821 361.375C95.5904 361.17 95.7514 360.917 95.8651 360.614L97.1605 360.977C97.0241 361.417 96.795 361.803 96.473 362.136C96.151 362.466 95.7533 362.723 95.2798 362.909C94.8063 363.091 94.2741 363.182 93.6832 363.182ZM98.5241 355.523V354.273H105.615V355.523H102.751V363H101.411V355.523H98.5241ZM115.616 363.182C114.798 363.182 114.094 362.989 113.503 362.602C112.912 362.216 112.457 361.684 112.139 361.006C111.821 360.328 111.662 359.553 111.662 358.682C111.662 357.795 111.825 357.013 112.151 356.335C112.48 355.653 112.938 355.121 113.526 354.739C114.116 354.352 114.806 354.159 115.594 354.159C116.207 354.159 116.76 354.273 117.253 354.5C117.745 354.727 118.149 355.045 118.463 355.455C118.777 355.864 118.973 356.341 119.048 356.886H117.707C117.605 356.489 117.378 356.136 117.026 355.83C116.677 355.519 116.207 355.364 115.616 355.364C115.094 355.364 114.635 355.5 114.241 355.773C113.851 356.042 113.546 356.422 113.327 356.915C113.111 357.403 113.003 357.977 113.003 358.636C113.003 359.311 113.109 359.898 113.321 360.398C113.537 360.898 113.84 361.286 114.23 361.562C114.624 361.839 115.086 361.977 115.616 361.977C115.965 361.977 116.281 361.917 116.565 361.795C116.849 361.674 117.09 361.5 117.287 361.273C117.484 361.045 117.624 360.773 117.707 360.455H119.048C118.973 360.97 118.785 361.434 118.486 361.847C118.19 362.256 117.798 362.581 117.31 362.824C116.825 363.062 116.26 363.182 115.616 363.182ZM121.009 366.273V354.273H122.304V355.659H122.463C122.562 355.508 122.698 355.314 122.872 355.08C123.05 354.841 123.304 354.629 123.634 354.443C123.967 354.254 124.418 354.159 124.986 354.159C125.721 354.159 126.368 354.343 126.929 354.71C127.49 355.078 127.927 355.598 128.241 356.273C128.556 356.947 128.713 357.742 128.713 358.659C128.713 359.583 128.556 360.384 128.241 361.062C127.927 361.737 127.491 362.259 126.935 362.631C126.378 362.998 125.736 363.182 125.009 363.182C124.448 363.182 123.999 363.089 123.662 362.903C123.325 362.714 123.065 362.5 122.884 362.261C122.702 362.019 122.562 361.818 122.463 361.659H122.349V366.273H121.009ZM122.327 358.636C122.327 359.295 122.423 359.877 122.616 360.381C122.81 360.881 123.092 361.273 123.463 361.557C123.834 361.837 124.289 361.977 124.827 361.977C125.387 361.977 125.855 361.83 126.23 361.534C126.609 361.235 126.893 360.833 127.082 360.33C127.276 359.822 127.372 359.258 127.372 358.636C127.372 358.023 127.277 357.47 127.088 356.977C126.902 356.481 126.62 356.089 126.241 355.801C125.866 355.509 125.395 355.364 124.827 355.364C124.281 355.364 123.823 355.502 123.452 355.778C123.08 356.051 122.8 356.434 122.611 356.926C122.421 357.415 122.327 357.985 122.327 358.636ZM134.418 363.182C133.577 363.182 132.851 362.996 132.241 362.625C131.635 362.25 131.168 361.727 130.838 361.057C130.512 360.383 130.349 359.598 130.349 358.705C130.349 357.811 130.512 357.023 130.838 356.341C131.168 355.655 131.626 355.121 132.213 354.739C132.804 354.352 133.493 354.159 134.281 354.159C134.736 354.159 135.185 354.235 135.628 354.386C136.071 354.538 136.474 354.784 136.838 355.125C137.202 355.462 137.491 355.909 137.707 356.466C137.923 357.023 138.031 357.708 138.031 358.523V359.091H131.304V357.932H136.668C136.668 357.439 136.569 357 136.372 356.614C136.179 356.227 135.902 355.922 135.543 355.699C135.187 355.475 134.766 355.364 134.281 355.364C133.747 355.364 133.285 355.496 132.895 355.761C132.509 356.023 132.211 356.364 132.003 356.784C131.795 357.205 131.69 357.655 131.69 358.136V358.909C131.69 359.568 131.804 360.127 132.031 360.585C132.262 361.04 132.582 361.386 132.991 361.625C133.401 361.86 133.876 361.977 134.418 361.977C134.77 361.977 135.088 361.928 135.372 361.83C135.66 361.727 135.908 361.576 136.116 361.375C136.325 361.17 136.486 360.917 136.599 360.614L137.895 360.977C137.759 361.417 137.529 361.803 137.207 362.136C136.885 362.466 136.488 362.723 136.014 362.909C135.541 363.091 135.009 363.182 134.418 363.182ZM139.139 365.5V361.75H139.866C140.045 361.564 140.198 361.364 140.327 361.148C140.455 360.932 140.567 360.676 140.662 360.381C140.76 360.081 140.844 359.718 140.912 359.29C140.98 358.858 141.041 358.337 141.094 357.727L141.389 354.273H146.935V361.75H148.276V365.5H146.935V363H140.48V365.5H139.139ZM141.389 361.75H145.594V355.523H142.639L142.412 357.727C142.317 358.64 142.2 359.437 142.06 360.119C141.92 360.801 141.696 361.345 141.389 361.75ZM151.396 361.023L155.601 354.273H157.146V363H155.805V356.25L151.624 363H150.055V354.273H151.396V361.023ZM163.33 363V361.75H163.648C163.909 361.75 164.127 361.699 164.301 361.597C164.475 361.491 164.616 361.307 164.722 361.045C164.831 360.78 164.915 360.413 164.972 359.943C165.032 359.47 165.076 358.867 165.102 358.136L165.261 354.273H171.08V363H169.739V355.523H166.534L166.398 358.636C166.367 359.352 166.303 359.983 166.205 360.528C166.11 361.07 165.964 361.525 165.767 361.892C165.574 362.259 165.316 362.536 164.994 362.722C164.672 362.907 164.269 363 163.784 363H163.33ZM174.881 361.023L179.085 354.273H180.631V363H179.29V356.25L175.108 363H173.54V354.273H174.881V361.023ZM182.155 365.5V361.75H182.882C183.06 361.564 183.214 361.364 183.342 361.148C183.471 360.932 183.583 360.676 183.678 360.381C183.776 360.081 183.859 359.718 183.928 359.29C183.996 358.858 184.056 358.337 184.109 357.727L184.405 354.273H189.95V361.75H191.291V365.5H189.95V363H183.496V365.5H182.155ZM184.405 361.75H188.609V355.523H185.655L185.428 357.727C185.333 358.64 185.215 359.437 185.075 360.119C184.935 360.801 184.712 361.345 184.405 361.75ZM196.73 363.182C195.889 363.182 195.164 362.996 194.554 362.625C193.948 362.25 193.48 361.727 193.151 361.057C192.825 360.383 192.662 359.598 192.662 358.705C192.662 357.811 192.825 357.023 193.151 356.341C193.48 355.655 193.938 355.121 194.526 354.739C195.116 354.352 195.806 354.159 196.594 354.159C197.048 354.159 197.497 354.235 197.94 354.386C198.384 354.538 198.787 354.784 199.151 355.125C199.514 355.462 199.804 355.909 200.02 356.466C200.236 357.023 200.344 357.708 200.344 358.523V359.091H193.616V357.932H198.98C198.98 357.439 198.882 357 198.685 356.614C198.491 356.227 198.215 355.922 197.855 355.699C197.499 355.475 197.079 355.364 196.594 355.364C196.06 355.364 195.598 355.496 195.207 355.761C194.821 356.023 194.524 356.364 194.315 356.784C194.107 357.205 194.003 357.655 194.003 358.136V358.909C194.003 359.568 194.116 360.127 194.344 360.585C194.575 361.04 194.895 361.386 195.304 361.625C195.713 361.86 196.188 361.977 196.73 361.977C197.082 361.977 197.401 361.928 197.685 361.83C197.973 361.727 198.221 361.576 198.429 361.375C198.637 361.17 198.798 360.917 198.912 360.614L200.207 360.977C200.071 361.417 199.842 361.803 199.52 362.136C199.198 362.466 198.8 362.723 198.327 362.909C197.853 363.091 197.321 363.182 196.73 363.182ZM202.384 366.273V354.273H203.679V355.659H203.838C203.937 355.508 204.073 355.314 204.247 355.08C204.425 354.841 204.679 354.629 205.009 354.443C205.342 354.254 205.793 354.159 206.361 354.159C207.096 354.159 207.743 354.343 208.304 354.71C208.865 355.078 209.302 355.598 209.616 356.273C209.931 356.947 210.088 357.742 210.088 358.659C210.088 359.583 209.931 360.384 209.616 361.062C209.302 361.737 208.866 362.259 208.31 362.631C207.753 362.998 207.111 363.182 206.384 363.182C205.823 363.182 205.374 363.089 205.037 362.903C204.7 362.714 204.44 362.5 204.259 362.261C204.077 362.019 203.937 361.818 203.838 361.659H203.724V366.273H202.384ZM203.702 358.636C203.702 359.295 203.798 359.877 203.991 360.381C204.185 360.881 204.467 361.273 204.838 361.557C205.209 361.837 205.664 361.977 206.202 361.977C206.762 361.977 207.23 361.83 207.605 361.534C207.984 361.235 208.268 360.833 208.457 360.33C208.651 359.822 208.747 359.258 208.747 358.636C208.747 358.023 208.652 357.47 208.463 356.977C208.277 356.481 207.995 356.089 207.616 355.801C207.241 355.509 206.77 355.364 206.202 355.364C205.656 355.364 205.198 355.502 204.827 355.778C204.455 356.051 204.175 356.434 203.986 356.926C203.796 357.415 203.702 357.985 203.702 358.636ZM215.679 363.182C214.891 363.182 214.2 362.994 213.605 362.619C213.014 362.244 212.552 361.72 212.219 361.045C211.889 360.371 211.724 359.583 211.724 358.682C211.724 357.773 211.889 356.979 212.219 356.301C212.552 355.623 213.014 355.097 213.605 354.722C214.2 354.347 214.891 354.159 215.679 354.159C216.467 354.159 217.156 354.347 217.747 354.722C218.342 355.097 218.804 355.623 219.134 356.301C219.467 356.979 219.634 357.773 219.634 358.682C219.634 359.583 219.467 360.371 219.134 361.045C218.804 361.72 218.342 362.244 217.747 362.619C217.156 362.994 216.467 363.182 215.679 363.182ZM215.679 361.977C216.277 361.977 216.77 361.824 217.156 361.517C217.543 361.21 217.829 360.807 218.014 360.307C218.2 359.807 218.293 359.265 218.293 358.682C218.293 358.098 218.2 357.555 218.014 357.051C217.829 356.547 217.543 356.14 217.156 355.83C216.77 355.519 216.277 355.364 215.679 355.364C215.08 355.364 214.588 355.519 214.202 355.83C213.815 356.14 213.529 356.547 213.344 357.051C213.158 357.555 213.065 358.098 213.065 358.682C213.065 359.265 213.158 359.807 213.344 360.307C213.529 360.807 213.815 361.21 214.202 361.517C214.588 361.824 215.08 361.977 215.679 361.977ZM221.68 363V354.273H225.249C226.188 354.273 226.934 354.485 227.487 354.909C228.04 355.333 228.317 355.894 228.317 356.591C228.317 357.121 228.16 357.532 227.845 357.824C227.531 358.112 227.127 358.307 226.635 358.409C226.957 358.455 227.269 358.568 227.572 358.75C227.879 358.932 228.133 359.182 228.334 359.5C228.535 359.814 228.635 360.201 228.635 360.659C228.635 361.106 228.521 361.506 228.294 361.858C228.067 362.21 227.741 362.489 227.317 362.693C226.893 362.898 226.385 363 225.794 363H221.68ZM222.953 361.773H225.794C226.256 361.773 226.618 361.663 226.879 361.443C227.141 361.223 227.271 360.924 227.271 360.545C227.271 360.095 227.141 359.741 226.879 359.483C226.618 359.222 226.256 359.091 225.794 359.091H222.953V361.773ZM222.953 357.932H225.249C225.608 357.932 225.917 357.883 226.175 357.784C226.432 357.682 226.629 357.538 226.766 357.352C226.906 357.163 226.976 356.939 226.976 356.682C226.976 356.314 226.822 356.027 226.516 355.818C226.209 355.606 225.786 355.5 225.249 355.5H222.953V357.932ZM235.165 366.273V354.273H236.46V355.659H236.619C236.718 355.508 236.854 355.314 237.028 355.08C237.206 354.841 237.46 354.629 237.79 354.443C238.123 354.254 238.574 354.159 239.142 354.159C239.877 354.159 240.525 354.343 241.085 354.71C241.646 355.078 242.083 355.598 242.398 356.273C242.712 356.947 242.869 357.742 242.869 358.659C242.869 359.583 242.712 360.384 242.398 361.062C242.083 361.737 241.648 362.259 241.091 362.631C240.534 362.998 239.892 363.182 239.165 363.182C238.604 363.182 238.155 363.089 237.818 362.903C237.481 362.714 237.222 362.5 237.04 362.261C236.858 362.019 236.718 361.818 236.619 361.659H236.506V366.273H235.165ZM236.483 358.636C236.483 359.295 236.58 359.877 236.773 360.381C236.966 360.881 237.248 361.273 237.619 361.557C237.991 361.837 238.445 361.977 238.983 361.977C239.544 361.977 240.011 361.83 240.386 361.534C240.765 361.235 241.049 360.833 241.239 360.33C241.432 359.822 241.528 359.258 241.528 358.636C241.528 358.023 241.434 357.47 241.244 356.977C241.059 356.481 240.777 356.089 240.398 355.801C240.023 355.509 239.551 355.364 238.983 355.364C238.438 355.364 237.979 355.502 237.608 355.778C237.237 356.051 236.956 356.434 236.767 356.926C236.578 357.415 236.483 357.985 236.483 358.636ZM246.074 357.432H248.574C249.597 357.432 250.379 357.691 250.92 358.21C251.462 358.729 251.733 359.386 251.733 360.182C251.733 360.705 251.612 361.18 251.369 361.608C251.127 362.032 250.771 362.371 250.301 362.625C249.831 362.875 249.256 363 248.574 363H244.915V354.273H246.256V361.75H248.574C249.104 361.75 249.54 361.61 249.881 361.33C250.222 361.049 250.392 360.689 250.392 360.25C250.392 359.788 250.222 359.411 249.881 359.119C249.54 358.828 249.104 358.682 248.574 358.682H246.074V357.432ZM253.119 363V354.273H254.46V363H253.119ZM262.756 358.023V359.273H257.938V358.023H262.756ZM258.256 354.273V363H256.915V354.273H258.256ZM263.778 354.273V363H262.438V354.273H263.778ZM266.227 363V354.273H267.568V358.068H268.455L271.591 354.273H273.318L269.795 358.477L273.364 363H271.636L268.773 359.318H267.568V363H266.227ZM277.389 363.205C276.836 363.205 276.334 363.1 275.884 362.892C275.433 362.68 275.075 362.375 274.81 361.977C274.545 361.576 274.412 361.091 274.412 360.523C274.412 360.023 274.51 359.617 274.707 359.307C274.904 358.992 275.168 358.746 275.497 358.568C275.827 358.39 276.19 358.258 276.588 358.17C276.99 358.08 277.393 358.008 277.798 357.955C278.329 357.886 278.759 357.835 279.088 357.801C279.421 357.763 279.664 357.701 279.815 357.614C279.971 357.527 280.048 357.375 280.048 357.159V357.114C280.048 356.553 279.895 356.117 279.588 355.807C279.285 355.496 278.825 355.341 278.207 355.341C277.567 355.341 277.065 355.481 276.702 355.761C276.338 356.042 276.082 356.341 275.935 356.659L274.662 356.205C274.889 355.674 275.192 355.261 275.571 354.966C275.954 354.667 276.37 354.458 276.821 354.341C277.276 354.22 277.723 354.159 278.162 354.159C278.442 354.159 278.764 354.193 279.128 354.261C279.495 354.326 279.849 354.46 280.19 354.665C280.535 354.869 280.821 355.178 281.048 355.591C281.276 356.004 281.389 356.557 281.389 357.25V363H280.048V361.818H279.98C279.889 362.008 279.738 362.21 279.526 362.426C279.313 362.642 279.031 362.826 278.679 362.977C278.327 363.129 277.897 363.205 277.389 363.205ZM277.594 362C278.124 362 278.571 361.896 278.935 361.688C279.302 361.479 279.579 361.21 279.764 360.881C279.954 360.551 280.048 360.205 280.048 359.841V358.614C279.991 358.682 279.866 358.744 279.673 358.801C279.484 358.854 279.264 358.902 279.014 358.943C278.768 358.981 278.527 359.015 278.293 359.045C278.062 359.072 277.874 359.095 277.73 359.114C277.382 359.159 277.056 359.233 276.753 359.335C276.454 359.434 276.211 359.583 276.026 359.784C275.844 359.981 275.753 360.25 275.753 360.591C275.753 361.057 275.925 361.409 276.27 361.648C276.618 361.883 277.06 362 277.594 362Z" fill="white"/>
<g filter="url(#filter2_dd_1_531)">
<rect x="140" y="402" width="80" height="70" rx="5" fill="black" fill-opacity="0.7" shape-rendering="crispEdges"/>
<rect x="140.5" y="402.5" width="79" height="69" rx="4.5" stroke="#B6FFBA" shape-rendering="crispEdges"/>
<path d="M166.614 428.545V446H162.924V432.048H162.821L158.824 434.554V431.281L163.145 428.545H166.614ZM177.606 446.384C176.14 446.378 174.879 446.017 173.822 445.301C172.771 444.585 171.961 443.548 171.393 442.19C170.831 440.832 170.552 439.199 170.558 437.29C170.558 435.386 170.839 433.764 171.402 432.423C171.97 431.082 172.779 430.062 173.831 429.364C174.887 428.659 176.146 428.307 177.606 428.307C179.066 428.307 180.322 428.659 181.373 429.364C182.43 430.068 183.243 431.091 183.811 432.432C184.379 433.767 184.66 435.386 184.654 437.29C184.654 439.205 184.37 440.841 183.802 442.199C183.24 443.557 182.433 444.594 181.382 445.31C180.331 446.026 179.072 446.384 177.606 446.384ZM177.606 443.324C178.606 443.324 179.404 442.821 180.001 441.815C180.598 440.81 180.893 439.301 180.887 437.29C180.887 435.966 180.751 434.864 180.478 433.983C180.211 433.102 179.831 432.44 179.336 431.997C178.848 431.554 178.271 431.332 177.606 431.332C176.612 431.332 175.816 431.83 175.22 432.824C174.623 433.818 174.322 435.307 174.316 437.29C174.316 438.631 174.45 439.75 174.717 440.648C174.99 441.54 175.373 442.21 175.868 442.659C176.362 443.102 176.941 443.324 177.606 443.324ZM194.13 446.384C192.664 446.378 191.402 446.017 190.346 445.301C189.294 444.585 188.485 443.548 187.917 442.19C187.354 440.832 187.076 439.199 187.081 437.29C187.081 435.386 187.363 433.764 187.925 432.423C188.493 431.082 189.303 430.062 190.354 429.364C191.411 428.659 192.669 428.307 194.13 428.307C195.59 428.307 196.846 428.659 197.897 429.364C198.953 430.068 199.766 431.091 200.334 432.432C200.902 433.767 201.184 435.386 201.178 437.29C201.178 439.205 200.894 440.841 200.326 442.199C199.763 443.557 198.956 444.594 197.905 445.31C196.854 446.026 195.596 446.384 194.13 446.384ZM194.13 443.324C195.13 443.324 195.928 442.821 196.525 441.815C197.121 440.81 197.417 439.301 197.411 437.29C197.411 435.966 197.275 434.864 197.002 433.983C196.735 433.102 196.354 432.44 195.86 431.997C195.371 431.554 194.794 431.332 194.13 431.332C193.135 431.332 192.34 431.83 191.743 432.824C191.147 433.818 190.846 435.307 190.84 437.29C190.84 438.631 190.973 439.75 191.24 440.648C191.513 441.54 191.897 442.21 192.391 442.659C192.885 443.102 193.465 443.324 194.13 443.324Z" fill="#21A038"/>
</g>
<path d="M59.3778 505.818V501.75H60.1278C60.3854 501.515 60.6278 501.184 60.8551 500.756C61.0862 500.324 61.2812 499.748 61.4403 499.028C61.6032 498.305 61.7112 497.386 61.7642 496.273L62.0142 491.364H68.9233V501.75H70.2642V505.795H68.9233V503H60.7188V505.818H59.3778ZM61.8097 501.75H67.5824V492.614H63.2869L63.1051 496.273C63.0597 497.121 62.9801 497.89 62.8665 498.58C62.7528 499.265 62.607 499.873 62.429 500.403C62.2509 500.93 62.0445 501.379 61.8097 501.75ZM75.7571 503.182C74.9692 503.182 74.2779 502.994 73.6832 502.619C73.0923 502.244 72.6302 501.72 72.2969 501.045C71.9673 500.371 71.8026 499.583 71.8026 498.682C71.8026 497.773 71.9673 496.979 72.2969 496.301C72.6302 495.623 73.0923 495.097 73.6832 494.722C74.2779 494.347 74.9692 494.159 75.7571 494.159C76.545 494.159 77.2344 494.347 77.8253 494.722C78.42 495.097 78.8821 495.623 79.2116 496.301C79.545 496.979 79.7116 497.773 79.7116 498.682C79.7116 499.583 79.545 500.371 79.2116 501.045C78.8821 501.72 78.42 502.244 77.8253 502.619C77.2344 502.994 76.545 503.182 75.7571 503.182ZM75.7571 501.977C76.3556 501.977 76.848 501.824 77.2344 501.517C77.6207 501.21 77.9067 500.807 78.0923 500.307C78.2779 499.807 78.3707 499.265 78.3707 498.682C78.3707 498.098 78.2779 497.555 78.0923 497.051C77.9067 496.547 77.6207 496.14 77.2344 495.83C76.848 495.519 76.3556 495.364 75.7571 495.364C75.1586 495.364 74.6662 495.519 74.2798 495.83C73.8935 496.14 73.6075 496.547 73.4219 497.051C73.2363 497.555 73.1435 498.098 73.1435 498.682C73.1435 499.265 73.2363 499.807 73.4219 500.307C73.6075 500.807 73.8935 501.21 74.2798 501.517C74.6662 501.824 75.1586 501.977 75.7571 501.977ZM86.5312 501.182L89.5767 494.273H90.8494L87.0767 503H85.9858L82.2812 494.273H83.5312L86.5312 501.182ZM83.0994 494.273V503H81.7585V494.273H83.0994ZM89.9631 503V494.273H91.304V503H89.9631ZM97.304 503.182C96.5161 503.182 95.8248 502.994 95.2301 502.619C94.6392 502.244 94.1771 501.72 93.8438 501.045C93.5142 500.371 93.3494 499.583 93.3494 498.682C93.3494 497.773 93.5142 496.979 93.8438 496.301C94.1771 495.623 94.6392 495.097 95.2301 494.722C95.8248 494.347 96.5161 494.159 97.304 494.159C98.0919 494.159 98.7813 494.347 99.3722 494.722C99.9669 495.097 100.429 495.623 100.759 496.301C101.092 496.979 101.259 497.773 101.259 498.682C101.259 499.583 101.092 500.371 100.759 501.045C100.429 501.72 99.9669 502.244 99.3722 502.619C98.7813 502.994 98.0919 503.182 97.304 503.182ZM97.304 501.977C97.9025 501.977 98.3949 501.824 98.7812 501.517C99.1676 501.21 99.4536 500.807 99.6392 500.307C99.8248 499.807 99.9176 499.265 99.9176 498.682C99.9176 498.098 99.8248 497.555 99.6392 497.051C99.4536 496.547 99.1676 496.14 98.7812 495.83C98.3949 495.519 97.9025 495.364 97.304 495.364C96.7055 495.364 96.2131 495.519 95.8267 495.83C95.4403 496.14 95.1544 496.547 94.9688 497.051C94.7831 497.555 94.6903 498.098 94.6903 498.682C94.6903 499.265 94.7831 499.807 94.9688 500.307C95.1544 500.807 95.4403 501.21 95.8267 501.517C96.2131 501.824 96.7055 501.977 97.304 501.977ZM103.305 503V494.273H106.874C107.813 494.273 108.559 494.485 109.112 494.909C109.665 495.333 109.942 495.894 109.942 496.591C109.942 497.121 109.785 497.532 109.47 497.824C109.156 498.112 108.752 498.307 108.26 498.409C108.582 498.455 108.894 498.568 109.197 498.75C109.504 498.932 109.758 499.182 109.959 499.5C110.16 499.814 110.26 500.201 110.26 500.659C110.26 501.106 110.146 501.506 109.919 501.858C109.692 502.21 109.366 502.489 108.942 502.693C108.518 502.898 108.01 503 107.419 503H103.305ZM104.578 501.773H107.419C107.881 501.773 108.243 501.663 108.504 501.443C108.766 501.223 108.896 500.924 108.896 500.545C108.896 500.095 108.766 499.741 108.504 499.483C108.243 499.222 107.881 499.091 107.419 499.091H104.578V501.773ZM104.578 497.932H106.874C107.233 497.932 107.542 497.883 107.8 497.784C108.057 497.682 108.254 497.538 108.391 497.352C108.531 497.163 108.601 496.939 108.601 496.682C108.601 496.314 108.447 496.027 108.141 495.818C107.834 495.606 107.411 495.5 106.874 495.5H104.578V497.932ZM118.131 501.023L122.335 494.273H123.881V503H122.54V496.25L118.358 503H116.79V494.273H118.131V501.023ZM137.314 491L137.996 491.818C137.731 492.076 137.424 492.256 137.075 492.358C136.727 492.46 136.333 492.523 135.893 492.545C135.454 492.568 134.965 492.591 134.428 492.614C133.821 492.636 133.32 492.784 132.922 493.057C132.524 493.33 132.217 493.723 132.001 494.239C131.786 494.754 131.647 495.386 131.587 496.136H131.7C131.996 495.591 132.405 495.189 132.928 494.932C133.45 494.674 134.011 494.545 134.609 494.545C135.291 494.545 135.905 494.705 136.45 495.023C136.996 495.341 137.428 495.812 137.746 496.438C138.064 497.062 138.223 497.833 138.223 498.75C138.223 499.663 138.06 500.451 137.734 501.114C137.412 501.777 136.96 502.288 136.376 502.648C135.797 503.004 135.117 503.182 134.337 503.182C133.556 503.182 132.873 502.998 132.286 502.631C131.698 502.259 131.242 501.71 130.916 500.983C130.59 500.252 130.428 499.348 130.428 498.273V497.341C130.428 495.398 130.757 493.924 131.416 492.92C132.079 491.917 133.075 491.398 134.405 491.364C134.875 491.348 135.293 491.345 135.661 491.352C136.028 491.36 136.348 491.343 136.621 491.301C136.893 491.259 137.125 491.159 137.314 491ZM134.337 501.977C134.863 501.977 135.316 501.845 135.695 501.58C136.077 501.314 136.371 500.941 136.575 500.46C136.78 499.975 136.882 499.405 136.882 498.75C136.882 498.114 136.778 497.572 136.57 497.125C136.365 496.678 136.071 496.337 135.689 496.102C135.306 495.867 134.848 495.75 134.314 495.75C133.924 495.75 133.573 495.816 133.263 495.949C132.952 496.081 132.687 496.277 132.467 496.534C132.248 496.792 132.077 497.106 131.956 497.477C131.839 497.848 131.776 498.273 131.768 498.75C131.768 499.727 131.998 500.509 132.456 501.097C132.914 501.684 133.541 501.977 134.337 501.977ZM142.842 503.205C142.289 503.205 141.787 503.1 141.337 502.892C140.886 502.68 140.528 502.375 140.263 501.977C139.998 501.576 139.865 501.091 139.865 500.523C139.865 500.023 139.964 499.617 140.161 499.307C140.357 498.992 140.621 498.746 140.95 498.568C141.28 498.39 141.643 498.258 142.041 498.17C142.443 498.08 142.846 498.008 143.251 497.955C143.782 497.886 144.212 497.835 144.541 497.801C144.875 497.763 145.117 497.701 145.268 497.614C145.424 497.527 145.501 497.375 145.501 497.159V497.114C145.501 496.553 145.348 496.117 145.041 495.807C144.738 495.496 144.278 495.341 143.661 495.341C143.02 495.341 142.518 495.481 142.155 495.761C141.791 496.042 141.536 496.341 141.388 496.659L140.115 496.205C140.342 495.674 140.645 495.261 141.024 494.966C141.407 494.667 141.823 494.458 142.274 494.341C142.729 494.22 143.176 494.159 143.615 494.159C143.895 494.159 144.217 494.193 144.581 494.261C144.948 494.326 145.303 494.46 145.643 494.665C145.988 494.869 146.274 495.178 146.501 495.591C146.729 496.004 146.842 496.557 146.842 497.25V503H145.501V501.818H145.433C145.342 502.008 145.191 502.21 144.979 502.426C144.767 502.642 144.484 502.826 144.132 502.977C143.78 503.129 143.35 503.205 142.842 503.205ZM143.047 502C143.577 502 144.024 501.896 144.388 501.688C144.755 501.479 145.032 501.21 145.217 500.881C145.407 500.551 145.501 500.205 145.501 499.841V498.614C145.445 498.682 145.32 498.744 145.126 498.801C144.937 498.854 144.717 498.902 144.467 498.943C144.221 498.981 143.981 499.015 143.746 499.045C143.515 499.072 143.327 499.095 143.183 499.114C142.835 499.159 142.509 499.233 142.206 499.335C141.907 499.434 141.664 499.583 141.479 499.784C141.297 499.981 141.206 500.25 141.206 500.591C141.206 501.057 141.378 501.409 141.723 501.648C142.071 501.883 142.513 502 143.047 502ZM155.131 498.023V499.273H150.312V498.023H155.131ZM150.631 494.273V503H149.29V494.273H150.631ZM156.153 494.273V503H154.812V494.273H156.153ZM159.761 497.432H162.261C163.284 497.432 164.066 497.691 164.608 498.21C165.15 498.729 165.42 499.386 165.42 500.182C165.42 500.705 165.299 501.18 165.057 501.608C164.814 502.032 164.458 502.371 163.989 502.625C163.519 502.875 162.943 503 162.261 503H158.602V494.273H159.943V501.75H162.261C162.792 501.75 163.227 501.61 163.568 501.33C163.909 501.049 164.08 500.689 164.08 500.25C164.08 499.788 163.909 499.411 163.568 499.119C163.227 498.828 162.792 498.682 162.261 498.682H159.761V497.432ZM175.507 503.182C174.689 503.182 173.984 502.989 173.393 502.602C172.803 502.216 172.348 501.684 172.03 501.006C171.712 500.328 171.553 499.553 171.553 498.682C171.553 497.795 171.715 497.013 172.041 496.335C172.371 495.653 172.829 495.121 173.416 494.739C174.007 494.352 174.696 494.159 175.484 494.159C176.098 494.159 176.651 494.273 177.143 494.5C177.636 494.727 178.039 495.045 178.354 495.455C178.668 495.864 178.863 496.341 178.939 496.886H177.598C177.496 496.489 177.268 496.136 176.916 495.83C176.568 495.519 176.098 495.364 175.507 495.364C174.984 495.364 174.526 495.5 174.132 495.773C173.742 496.042 173.437 496.422 173.217 496.915C173.001 497.403 172.893 497.977 172.893 498.636C172.893 499.311 173 499.898 173.212 500.398C173.428 500.898 173.731 501.286 174.121 501.562C174.515 501.839 174.977 501.977 175.507 501.977C175.856 501.977 176.172 501.917 176.456 501.795C176.74 501.674 176.981 501.5 177.178 501.273C177.375 501.045 177.515 500.773 177.598 500.455H178.939C178.863 500.97 178.676 501.434 178.376 501.847C178.081 502.256 177.689 502.581 177.2 502.824C176.715 503.062 176.151 503.182 175.507 503.182ZM179.967 505.5V501.75H180.695C180.873 501.564 181.026 501.364 181.155 501.148C181.284 500.932 181.395 500.676 181.49 500.381C181.589 500.081 181.672 499.718 181.74 499.29C181.808 498.858 181.869 498.337 181.922 497.727L182.217 494.273H187.763V501.75H189.104V505.5H187.763V503H181.308V505.5H179.967ZM182.217 501.75H186.422V495.523H183.467L183.24 497.727C183.145 498.64 183.028 499.437 182.888 500.119C182.748 500.801 182.524 501.345 182.217 501.75ZM193.452 503.205C192.899 503.205 192.397 503.1 191.946 502.892C191.495 502.68 191.137 502.375 190.872 501.977C190.607 501.576 190.474 501.091 190.474 500.523C190.474 500.023 190.573 499.617 190.77 499.307C190.967 498.992 191.23 498.746 191.56 498.568C191.889 498.39 192.253 498.258 192.651 498.17C193.052 498.08 193.455 498.008 193.861 497.955C194.391 497.886 194.821 497.835 195.151 497.801C195.484 497.763 195.726 497.701 195.878 497.614C196.033 497.527 196.111 497.375 196.111 497.159V497.114C196.111 496.553 195.957 496.117 195.651 495.807C195.348 495.496 194.887 495.341 194.27 495.341C193.63 495.341 193.128 495.481 192.764 495.761C192.401 496.042 192.145 496.341 191.997 496.659L190.724 496.205C190.952 495.674 191.255 495.261 191.634 494.966C192.016 494.667 192.433 494.458 192.884 494.341C193.338 494.22 193.785 494.159 194.224 494.159C194.505 494.159 194.827 494.193 195.19 494.261C195.558 494.326 195.912 494.46 196.253 494.665C196.598 494.869 196.884 495.178 197.111 495.591C197.338 496.004 197.452 496.557 197.452 497.25V503H196.111V501.818H196.043C195.952 502.008 195.8 502.21 195.588 502.426C195.376 502.642 195.094 502.826 194.741 502.977C194.389 503.129 193.959 503.205 193.452 503.205ZM193.656 502C194.187 502 194.634 501.896 194.997 501.688C195.365 501.479 195.641 501.21 195.827 500.881C196.016 500.551 196.111 500.205 196.111 499.841V498.614C196.054 498.682 195.929 498.744 195.736 498.801C195.546 498.854 195.327 498.902 195.077 498.943C194.83 498.981 194.59 499.015 194.355 499.045C194.124 499.072 193.937 499.095 193.793 499.114C193.444 499.159 193.118 499.233 192.815 499.335C192.516 499.434 192.274 499.583 192.088 499.784C191.906 499.981 191.815 500.25 191.815 500.591C191.815 501.057 191.988 501.409 192.332 501.648C192.681 501.883 193.122 502 193.656 502ZM203.558 503.182C202.717 503.182 201.992 502.996 201.382 502.625C200.776 502.25 200.308 501.727 199.979 501.057C199.653 500.383 199.49 499.598 199.49 498.705C199.49 497.811 199.653 497.023 199.979 496.341C200.308 495.655 200.767 495.121 201.354 494.739C201.945 494.352 202.634 494.159 203.422 494.159C203.876 494.159 204.325 494.235 204.768 494.386C205.212 494.538 205.615 494.784 205.979 495.125C206.342 495.462 206.632 495.909 206.848 496.466C207.064 497.023 207.172 497.708 207.172 498.523V499.091H200.445V497.932H205.808C205.808 497.439 205.71 497 205.513 496.614C205.32 496.227 205.043 495.922 204.683 495.699C204.327 495.475 203.907 495.364 203.422 495.364C202.888 495.364 202.426 495.496 202.036 495.761C201.649 496.023 201.352 496.364 201.143 496.784C200.935 497.205 200.831 497.655 200.831 498.136V498.909C200.831 499.568 200.945 500.127 201.172 500.585C201.403 501.04 201.723 501.386 202.132 501.625C202.541 501.86 203.017 501.977 203.558 501.977C203.911 501.977 204.229 501.928 204.513 501.83C204.801 501.727 205.049 501.576 205.257 501.375C205.465 501.17 205.626 500.917 205.74 500.614L207.036 500.977C206.899 501.417 206.67 501.803 206.348 502.136C206.026 502.466 205.628 502.723 205.155 502.909C204.681 503.091 204.149 503.182 203.558 503.182ZM201.717 492.818C201.479 492.818 201.267 492.727 201.081 492.545C200.899 492.36 200.808 492.148 200.808 491.909C200.808 491.648 200.899 491.432 201.081 491.261C201.267 491.087 201.479 491 201.717 491C201.979 491 202.195 491.087 202.365 491.261C202.539 491.432 202.626 491.648 202.626 491.909C202.626 492.148 202.539 492.36 202.365 492.545C202.195 492.727 201.979 492.818 201.717 492.818ZM204.99 492.818C204.751 492.818 204.539 492.727 204.354 492.545C204.172 492.36 204.081 492.148 204.081 491.909C204.081 491.648 204.172 491.432 204.354 491.261C204.539 491.087 204.751 491 204.99 491C205.251 491 205.467 491.087 205.638 491.261C205.812 491.432 205.899 491.648 205.899 491.909C205.899 492.148 205.812 492.36 205.638 492.545C205.467 492.727 205.251 492.818 204.99 492.818ZM213.984 501.182L217.03 494.273H218.303L214.53 503H213.439L209.734 494.273H210.984L213.984 501.182ZM210.553 494.273V503H209.212V494.273H210.553ZM217.416 503V494.273H218.757V503H217.416ZM229.371 503.182C228.53 503.182 227.804 502.996 227.195 502.625C226.589 502.25 226.121 501.727 225.791 501.057C225.465 500.383 225.303 499.598 225.303 498.705C225.303 497.811 225.465 497.023 225.791 496.341C226.121 495.655 226.579 495.121 227.166 494.739C227.757 494.352 228.446 494.159 229.234 494.159C229.689 494.159 230.138 494.235 230.581 494.386C231.024 494.538 231.428 494.784 231.791 495.125C232.155 495.462 232.445 495.909 232.661 496.466C232.876 497.023 232.984 497.708 232.984 498.523V499.091H226.257V497.932H231.621C231.621 497.439 231.522 497 231.325 496.614C231.132 496.227 230.856 495.922 230.496 495.699C230.14 495.475 229.719 495.364 229.234 495.364C228.7 495.364 228.238 495.496 227.848 495.761C227.462 496.023 227.164 496.364 226.956 496.784C226.748 497.205 226.643 497.655 226.643 498.136V498.909C226.643 499.568 226.757 500.127 226.984 500.585C227.215 501.04 227.536 501.386 227.945 501.625C228.354 501.86 228.829 501.977 229.371 501.977C229.723 501.977 230.041 501.928 230.325 501.83C230.613 501.727 230.861 501.576 231.07 501.375C231.278 501.17 231.439 500.917 231.553 500.614L232.848 500.977C232.712 501.417 232.482 501.803 232.161 502.136C231.839 502.466 231.441 502.723 230.967 502.909C230.494 503.091 229.962 503.182 229.371 503.182ZM234.244 503L237.79 498.568L234.29 494.273H235.881L238.79 498H239.517V494.273H240.858V498H241.562L244.472 494.273H246.062L242.585 498.568L246.108 503H244.494L241.54 499.25H240.858V503H239.517V499.25H238.835L235.858 503H234.244ZM251.324 503.182C250.483 503.182 249.758 502.996 249.148 502.625C248.542 502.25 248.074 501.727 247.744 501.057C247.419 500.383 247.256 499.598 247.256 498.705C247.256 497.811 247.419 497.023 247.744 496.341C248.074 495.655 248.532 495.121 249.119 494.739C249.71 494.352 250.4 494.159 251.188 494.159C251.642 494.159 252.091 494.235 252.534 494.386C252.977 494.538 253.381 494.784 253.744 495.125C254.108 495.462 254.398 495.909 254.614 496.466C254.83 497.023 254.938 497.708 254.938 498.523V499.091H248.21V497.932H253.574C253.574 497.439 253.475 497 253.278 496.614C253.085 496.227 252.809 495.922 252.449 495.699C252.093 495.475 251.672 495.364 251.188 495.364C250.653 495.364 250.191 495.496 249.801 495.761C249.415 496.023 249.117 496.364 248.909 496.784C248.701 497.205 248.597 497.655 248.597 498.136V498.909C248.597 499.568 248.71 500.127 248.938 500.585C249.169 501.04 249.489 501.386 249.898 501.625C250.307 501.86 250.782 501.977 251.324 501.977C251.676 501.977 251.994 501.928 252.278 501.83C252.566 501.727 252.814 501.576 253.023 501.375C253.231 501.17 253.392 500.917 253.506 500.614L254.801 500.977C254.665 501.417 254.436 501.803 254.114 502.136C253.792 502.466 253.394 502.723 252.92 502.909C252.447 503.091 251.915 503.182 251.324 503.182ZM262.364 494.273V495.523H258.318V503H256.977V494.273H262.364ZM267.413 503.182C266.625 503.182 265.934 502.994 265.339 502.619C264.749 502.244 264.286 501.72 263.953 501.045C263.624 500.371 263.459 499.583 263.459 498.682C263.459 497.773 263.624 496.979 263.953 496.301C264.286 495.623 264.749 495.097 265.339 494.722C265.934 494.347 266.625 494.159 267.413 494.159C268.201 494.159 268.891 494.347 269.482 494.722C270.076 495.097 270.538 495.623 270.868 496.301C271.201 496.979 271.368 497.773 271.368 498.682C271.368 499.583 271.201 500.371 270.868 501.045C270.538 501.72 270.076 502.244 269.482 502.619C268.891 502.994 268.201 503.182 267.413 503.182ZM267.413 501.977C268.012 501.977 268.504 501.824 268.891 501.517C269.277 501.21 269.563 500.807 269.749 500.307C269.934 499.807 270.027 499.265 270.027 498.682C270.027 498.098 269.934 497.555 269.749 497.051C269.563 496.547 269.277 496.14 268.891 495.83C268.504 495.519 268.012 495.364 267.413 495.364C266.815 495.364 266.322 495.519 265.936 495.83C265.55 496.14 265.264 496.547 265.078 497.051C264.893 497.555 264.8 498.098 264.8 498.682C264.8 499.265 264.893 499.807 265.078 500.307C265.264 500.807 265.55 501.21 265.936 501.517C266.322 501.824 266.815 501.977 267.413 501.977ZM272.483 505.5V501.75H273.21C273.388 501.564 273.542 501.364 273.67 501.148C273.799 500.932 273.911 500.676 274.006 500.381C274.104 500.081 274.188 499.718 274.256 499.29C274.324 498.858 274.384 498.337 274.438 497.727L274.733 494.273H280.278V501.75H281.619V505.5H280.278V503H273.824V505.5H272.483ZM274.733 501.75H278.938V495.523H275.983L275.756 497.727C275.661 498.64 275.544 499.437 275.403 500.119C275.263 500.801 275.04 501.345 274.733 501.75ZM289.24 498.023V499.273H284.422V498.023H289.24ZM284.74 494.273V503H283.399V494.273H284.74ZM290.263 494.273V503H288.922V494.273H290.263ZM296.257 503.182C295.469 503.182 294.778 502.994 294.183 502.619C293.592 502.244 293.13 501.72 292.797 501.045C292.467 500.371 292.303 499.583 292.303 498.682C292.303 497.773 292.467 496.979 292.797 496.301C293.13 495.623 293.592 495.097 294.183 494.722C294.778 494.347 295.469 494.159 296.257 494.159C297.045 494.159 297.734 494.347 298.325 494.722C298.92 495.097 299.382 495.623 299.712 496.301C300.045 496.979 300.212 497.773 300.212 498.682C300.212 499.583 300.045 500.371 299.712 501.045C299.382 501.72 298.92 502.244 298.325 502.619C297.734 502.994 297.045 503.182 296.257 503.182ZM296.257 501.977C296.856 501.977 297.348 501.824 297.734 501.517C298.121 501.21 298.407 500.807 298.592 500.307C298.778 499.807 298.871 499.265 298.871 498.682C298.871 498.098 298.778 497.555 298.592 497.051C298.407 496.547 298.121 496.14 297.734 495.83C297.348 495.519 296.856 495.364 296.257 495.364C295.659 495.364 295.166 495.519 294.78 495.83C294.393 496.14 294.107 496.547 293.922 497.051C293.736 497.555 293.643 498.098 293.643 498.682C293.643 499.265 293.736 499.807 293.922 500.307C294.107 500.807 294.393 501.21 294.78 501.517C295.166 501.824 295.659 501.977 296.257 501.977Z" fill="white"/>
<path d="M129.168 56.4545C129.168 57.8821 128.897 59.0966 128.356 60.098C127.819 61.0994 127.086 61.8643 126.157 62.3928C125.232 62.9169 124.192 63.179 123.038 63.179C121.874 63.179 120.83 62.9148 119.906 62.3864C118.981 61.858 118.25 61.093 117.713 60.0916C117.176 59.0902 116.908 57.8778 116.908 56.4545C116.908 55.027 117.176 53.8125 117.713 52.8111C118.25 51.8097 118.981 51.0469 119.906 50.5227C120.83 49.9943 121.874 49.7301 123.038 49.7301C124.192 49.7301 125.232 49.9943 126.157 50.5227C127.086 51.0469 127.819 51.8097 128.356 52.8111C128.897 53.8125 129.168 55.027 129.168 56.4545ZM126.362 56.4545C126.362 55.5298 126.223 54.75 125.946 54.1151C125.673 53.4801 125.288 52.9986 124.789 52.6705C124.29 52.3423 123.707 52.1783 123.038 52.1783C122.369 52.1783 121.785 52.3423 121.286 52.6705C120.788 52.9986 120.4 53.4801 120.123 54.1151C119.85 54.75 119.714 55.5298 119.714 56.4545C119.714 57.3793 119.85 58.1591 120.123 58.794C120.4 59.429 120.788 59.9105 121.286 60.2386C121.785 60.5668 122.369 60.7308 123.038 60.7308C123.707 60.7308 124.29 60.5668 124.789 60.2386C125.288 59.9105 125.673 59.429 125.946 58.794C126.223 58.1591 126.362 57.3793 126.362 56.4545ZM143.304 63L139.098 57.4197H138.152V63H135.384V49.9091H138.152V55.1378H138.708L143.054 49.9091H146.5L141.392 55.9815L146.736 63H143.304ZM159.42 56.4545C159.42 57.8821 159.149 59.0966 158.608 60.098C158.071 61.0994 157.338 61.8643 156.409 62.3928C155.484 62.9169 154.444 63.179 153.29 63.179C152.126 63.179 151.082 62.9148 150.157 62.3864C149.233 61.858 148.502 61.093 147.965 60.0916C147.428 59.0902 147.16 57.8778 147.16 56.4545C147.16 55.027 147.428 53.8125 147.965 52.8111C148.502 51.8097 149.233 51.0469 150.157 50.5227C151.082 49.9943 152.126 49.7301 153.29 49.7301C154.444 49.7301 155.484 49.9943 156.409 50.5227C157.338 51.0469 158.071 51.8097 158.608 52.8111C159.149 53.8125 159.42 55.027 159.42 56.4545ZM156.613 56.4545C156.613 55.5298 156.475 54.75 156.198 54.1151C155.925 53.4801 155.54 52.9986 155.041 52.6705C154.542 52.3423 153.959 52.1783 153.29 52.1783C152.621 52.1783 152.037 52.3423 151.538 52.6705C151.04 52.9986 150.652 53.4801 150.375 54.1151C150.102 54.75 149.966 55.5298 149.966 56.4545C149.966 57.3793 150.102 58.1591 150.375 58.794C150.652 59.429 151.04 59.9105 151.538 60.2386C152.037 60.5668 152.621 60.7308 153.29 60.7308C153.959 60.7308 154.542 60.5668 155.041 60.2386C155.54 59.9105 155.925 59.429 156.198 58.794C156.475 58.1591 156.613 57.3793 156.613 56.4545ZM161.47 49.9091H164.883L168.488 58.7045H168.642L172.247 49.9091H175.66V63H172.975V54.4794H172.867L169.479 62.9361H167.651L164.263 54.4474H164.154V63H161.47V49.9091ZM189.069 49.9091V63H186.333V52.1591H181.041V63H178.305V49.9091H189.069ZM193.961 63H190.995L195.514 49.9091H199.081L203.593 63H200.627L197.348 52.9006H197.246L193.961 63ZM193.775 57.8544H200.781V60.0149H193.775V57.8544ZM205.169 63V49.9091H207.937V55.3104H213.555V49.9091H216.317V63H213.555V57.5923H207.937V63H205.169ZM218.599 49.9091H221.36V58.142H221.469L227.126 49.9091H229.548V63H226.781V54.7607H226.685L220.996 63H218.599V49.9091ZM231.835 49.9091H234.596V58.142H234.705L240.362 49.9091H242.785V63H240.017V54.7607H239.921L234.232 63H231.835V49.9091Z" fill="#999999"/>
<defs>
<filter id="filter0_dd_1_531" x="130" y="92" width="100" height="90" filterUnits="userSpaceOnUse" color-interpolation-filters="sRGB">
<feFlood flood-opacity="0" result="BackgroundImageFix"/>
<feColorMatrix in="SourceAlpha" type="matrix" values="0 0 0 0 0 0 0 0 0 0 0 0 0 0 0 0 0 0 127 0" result="hardAlpha"/>
<feOffset dy="4"/>
<feGaussianBlur stdDeviation="2"/>
<feComposite in2="hardAlpha" operator="out"/>
<feColorMatrix type="matrix" values="0 0 0 0 0 0 0 0 0 0 0 0 0 0 0 0 0 0 0.5 0"/>
<feBlend mode="normal" in2="BackgroundImageFix" result="effect1_dropShadow_1_531"/>
<feColorMatrix in="SourceAlpha" type="matrix" values="0 0 0 0 0 0 0 0 0 0 0 0 0 0 0 0 0 0 127 0" result="hardAlpha"/>
<feOffset/>
<feGaussianBlur stdDeviation="5"/>
<feComposite in2="hardAlpha" operator="out"/>
<feColorMatrix type="matrix" values="0 0 0 0 0.713726 0 0 0 0 1 0 0 0 0 0.729412 0 0 0 1 0"/>
<feBlend mode="normal" in2="effect1_dropShadow_1_531" result="effect2_dropShadow_1_531"/>
<feBlend mode="normal" in="SourceGraphic" in2="effect2_dropShadow_1_531" result="shape"/>
</filter>
<filter id="filter1_dd_1_531" x="130" y="252" width="100" height="90" filterUnits="userSpaceOnUse" color-interpolation-filters="sRGB">
<feFlood flood-opacity="0" result="BackgroundImageFix"/>
<feColorMatrix in="SourceAlpha" type="matrix" values="0 0 0 0 0 0 0 0 0 0 0 0 0 0 0 0 0 0 127 0" result="hardAlpha"/>
<feOffset dy="4"/>
<feGaussianBlur stdDeviation="2"/>
<feComposite in2="hardAlpha" operator="out"/>
<feColorMatrix type="matrix" values="0 0 0 0 0 0 0 0 0 0 0 0 0 0 0 0 0 0 0.5 0"/>
<feBlend mode="normal" in2="BackgroundImageFix" result="effect1_dropShadow_1_531"/>
<feColorMatrix in="SourceAlpha" type="matrix" values="0 0 0 0 0 0 0 0 0 0 0 0 0 0 0 0 0 0 127 0" result="hardAlpha"/>
<feOffset/>
<feGaussianBlur stdDeviation="5"/>
<feComposite in2="hardAlpha" operator="out"/>
<feColorMatrix type="matrix" values="0 0 0 0 0.713726 0 0 0 0 1 0 0 0 0 0.729412 0 0 0 1 0"/>
<feBlend mode="normal" in2="effect1_dropShadow_1_531" result="effect2_dropShadow_1_531"/>
<feBlend mode="normal" in="SourceGraphic" in2="effect2_dropShadow_1_531" result="shape"/>
</filter>
<filter id="filter2_dd_1_531" x="130" y="392" width="100" height="90" filterUnits="userSpaceOnUse" color-interpolation-filters="sRGB">
<feFlood flood-opacity="0" result="BackgroundImageFix"/>
<feColorMatrix in="SourceAlpha" type="matrix" values="0 0 0 0 0 0 0 0 0 0 0 0 0 0 0 0 0 0 127 0" result="hardAlpha"/>
<feOffset dy="4"/>
<feGaussianBlur stdDeviation="2"/>
<feComposite in2="hardAlpha" operator="out"/>
<feColorMatrix type="matrix" values="0 0 0 0 0 0 0 0 0 0 0 0 0 0 0 0 0 0 0.5 0"/>
<feBlend mode="normal" in2="BackgroundImageFix" result="effect1_dropShadow_1_531"/>
<feColorMatrix in="SourceAlpha" type="matrix" values="0 0 0 0 0 0 0 0 0 0 0 0 0 0 0 0 0 0 127 0" result="hardAlpha"/>
<feOffset/>
<feGaussianBlur stdDeviation="5"/>
<feComposite in2="hardAlpha" operator="out"/>
<feColorMatrix type="matrix" values="0 0 0 0 0.713726 0 0 0 0 1 0 0 0 0 0.729412 0 0 0 1 0"/>
<feBlend mode="normal" in2="effect1_dropShadow_1_531" result="effect2_dropShadow_1_531"/>
<feBlend mode="normal" in="SourceGraphic" in2="effect2_dropShadow_1_531" result="shape"/>
</filter>
</defs>
</svg>
