<svg width="320" height="104" viewBox="0 0 320 104" fill="none" xmlns="http://www.w3.org/2000/svg">
<mask id="path-1-inside-1_1_22" fill="white">
<path d="M0 0H320V52H0V0Z"/>
</mask>
<path d="M320 49H0V55H320V49Z" fill="#999999" mask="url(#path-1-inside-1_1_22)"/>
<path d="M16.0852 21.4688H18.1562C19.1278 21.4688 19.9908 21.6861 20.745 22.1207C21.4993 22.5554 22.0916 23.1605 22.522 23.9361C22.9524 24.7116 23.1676 25.6108 23.1676 26.6335C23.1676 27.6562 22.9524 28.5575 22.522 29.3374C22.0916 30.1172 21.4993 30.7266 20.745 31.1655C19.9908 31.6044 19.1278 31.8239 18.1562 31.8239H16.0852C15.1136 31.8239 14.2507 31.6065 13.4964 31.1719C12.7422 30.7372 12.1499 30.1321 11.7195 29.3565C11.2891 28.581 11.0739 27.6818 11.0739 26.6591C11.0739 25.6364 11.2891 24.7351 11.7195 23.9553C12.1499 23.1754 12.7422 22.5661 13.4964 22.1271C14.2507 21.6882 15.1136 21.4688 16.0852 21.4688ZM16.0852 22.875C15.3438 22.875 14.7173 23.0305 14.206 23.3416C13.6989 23.6527 13.3132 24.0916 13.049 24.6584C12.7891 25.2251 12.6591 25.892 12.6591 26.6591C12.6591 27.4176 12.7891 28.0781 13.049 28.6406C13.3132 29.2031 13.6989 29.6399 14.206 29.951C14.7173 30.2621 15.3438 30.4176 16.0852 30.4176H18.1562C18.8977 30.4176 19.522 30.2621 20.0291 29.951C20.5405 29.6399 20.9261 29.201 21.1861 28.6342C21.4503 28.0675 21.5824 27.4006 21.5824 26.6335C21.5824 25.875 21.4503 25.2145 21.1861 24.652C20.9261 24.0895 20.5405 23.6527 20.0291 23.3416C19.522 23.0305 18.8977 22.875 18.1562 22.875H16.0852ZM17.9261 19.679V33.5369H16.3409V19.679H17.9261ZM25.8922 33.1023C25.5769 33.1023 25.3063 32.9893 25.0804 32.7635C24.8546 32.5376 24.7417 32.267 24.7417 31.9517C24.7417 31.6364 24.8546 31.3658 25.0804 31.1399C25.3063 30.9141 25.5769 30.8011 25.8922 30.8011C26.2076 30.8011 26.4782 30.9141 26.704 31.1399C26.9299 31.3658 27.0428 31.6364 27.0428 31.9517C27.0428 32.1605 26.9895 32.3523 26.883 32.527C26.7807 32.7017 26.6422 32.8423 26.4675 32.9489C26.2971 33.0511 26.1053 33.1023 25.8922 33.1023ZM29.9544 19.9091H31.514V30.2131H31.6419L38.801 19.9091H40.3351V33H38.7498V22.7216H38.622L31.4885 33H29.9544V19.9091ZM44.402 33.1023C44.0866 33.1023 43.8161 32.9893 43.5902 32.7635C43.3643 32.5376 43.2514 32.267 43.2514 31.9517C43.2514 31.6364 43.3643 31.3658 43.5902 31.1399C43.8161 30.9141 44.0866 30.8011 44.402 30.8011C44.7173 30.8011 44.9879 30.9141 45.2138 31.1399C45.4396 31.3658 45.5526 31.6364 45.5526 31.9517C45.5526 32.1605 45.4993 32.3523 45.3928 32.527C45.2905 32.7017 45.152 32.8423 44.9773 32.9489C44.8068 33.0511 44.6151 33.1023 44.402 33.1023ZM59.5096 26.4545C59.5096 27.8352 59.2603 29.0284 58.7617 30.0341C58.2631 31.0398 57.5792 31.8153 56.7099 32.3608C55.8406 32.9062 54.8477 33.179 53.7312 33.179C52.6147 33.179 51.6218 32.9062 50.7525 32.3608C49.8832 31.8153 49.1992 31.0398 48.7006 30.0341C48.2021 29.0284 47.9528 27.8352 47.9528 26.4545C47.9528 25.0739 48.2021 23.8807 48.7006 22.875C49.1992 21.8693 49.8832 21.0938 50.7525 20.5483C51.6218 20.0028 52.6147 19.7301 53.7312 19.7301C54.8477 19.7301 55.8406 20.0028 56.7099 20.5483C57.5792 21.0938 58.2631 21.8693 58.7617 22.875C59.2603 23.8807 59.5096 25.0739 59.5096 26.4545ZM57.9755 26.4545C57.9755 25.321 57.7859 24.3643 57.4066 23.5845C57.0316 22.8047 56.5224 22.2145 55.8789 21.8139C55.2397 21.4134 54.5238 21.2131 53.7312 21.2131C52.9386 21.2131 52.2205 21.4134 51.5771 21.8139C50.9379 22.2145 50.4286 22.8047 50.0494 23.5845C49.6744 24.3643 49.4869 25.321 49.4869 26.4545C49.4869 27.5881 49.6744 28.5447 50.0494 29.3246C50.4286 30.1044 50.9379 30.6946 51.5771 31.0952C52.2205 31.4957 52.9386 31.696 53.7312 31.696C54.5238 31.696 55.2397 31.4957 55.8789 31.0952C56.5224 30.6946 57.0316 30.1044 57.4066 29.3246C57.7859 28.5447 57.9755 27.5881 57.9755 26.4545Z" fill="#999999"/>
<mask id="path-4-inside-2_1_22" fill="white">
<path d="M0 52H320V104H0V52Z"/>
</mask>
<path d="M320 101H0V107H320V101Z" fill="#999999" mask="url(#path-4-inside-2_1_22)"/>
<path d="M10.8693 73.3153V71.9091H20.6875V73.3153H16.571V85H14.9858V73.3153H10.8693ZM25.6222 85.2045C24.6761 85.2045 23.8601 84.9957 23.174 84.5781C22.4922 84.1562 21.9659 83.5682 21.5952 82.8139C21.2287 82.0554 21.0455 81.1733 21.0455 80.1676C21.0455 79.1619 21.2287 78.2756 21.5952 77.5085C21.9659 76.7372 22.4815 76.1364 23.142 75.706C23.8068 75.2713 24.5824 75.054 25.4688 75.054C25.9801 75.054 26.4851 75.1392 26.9837 75.3097C27.4822 75.4801 27.9361 75.7571 28.3452 76.1406C28.7543 76.5199 29.0803 77.0227 29.3232 77.6491C29.5661 78.2756 29.6875 79.0469 29.6875 79.9631V80.6023H22.1193V79.2983H28.1534C28.1534 78.7443 28.0426 78.25 27.821 77.8153C27.6037 77.3807 27.2926 77.0376 26.8878 76.7862C26.4872 76.5348 26.0142 76.4091 25.4688 76.4091C24.8679 76.4091 24.348 76.5582 23.9091 76.8565C23.4744 77.1506 23.1399 77.5341 22.9055 78.0071C22.6712 78.4801 22.554 78.9872 22.554 79.5284V80.3977C22.554 81.1392 22.6818 81.7678 22.9375 82.2834C23.1974 82.7947 23.5575 83.1847 24.0178 83.4531C24.478 83.7173 25.0128 83.8494 25.6222 83.8494C26.0185 83.8494 26.3764 83.794 26.696 83.6832C27.0199 83.5682 27.299 83.3977 27.5334 83.1719C27.7678 82.9418 27.9489 82.6562 28.0767 82.3153L29.5341 82.7244C29.3807 83.2188 29.1229 83.6534 28.7607 84.0284C28.3984 84.3991 27.951 84.6889 27.4183 84.8977C26.8857 85.1023 26.2869 85.2045 25.6222 85.2045ZM31.1129 85V83.5938H31.4709C31.7649 83.5938 32.0099 83.5362 32.206 83.4212C32.402 83.3018 32.5597 83.0952 32.679 82.8011C32.8026 82.5028 32.8963 82.0895 32.9602 81.5611C33.0284 81.0284 33.0774 80.3509 33.1072 79.5284L33.2862 75.1818H39.8317V85H38.3232V76.5881H34.718L34.5646 80.0909C34.5305 80.8963 34.4581 81.6058 34.3473 82.2195C34.2408 82.8288 34.0767 83.3402 33.8551 83.7536C33.6378 84.1669 33.348 84.478 32.9858 84.6868C32.6236 84.8956 32.1697 85 31.6243 85H31.1129ZM46.7159 85.2045C45.7699 85.2045 44.9538 84.9957 44.2678 84.5781C43.5859 84.1562 43.0597 83.5682 42.6889 82.8139C42.3224 82.0554 42.1392 81.1733 42.1392 80.1676C42.1392 79.1619 42.3224 78.2756 42.6889 77.5085C43.0597 76.7372 43.5753 76.1364 44.2358 75.706C44.9006 75.2713 45.6761 75.054 46.5625 75.054C47.0739 75.054 47.5788 75.1392 48.0774 75.3097C48.576 75.4801 49.0298 75.7571 49.4389 76.1406C49.848 76.5199 50.174 77.0227 50.4169 77.6491C50.6598 78.2756 50.7812 79.0469 50.7812 79.9631V80.6023H43.2131V79.2983H49.2472C49.2472 78.7443 49.1364 78.25 48.9148 77.8153C48.6974 77.3807 48.3864 77.0376 47.9815 76.7862C47.581 76.5348 47.108 76.4091 46.5625 76.4091C45.9616 76.4091 45.4418 76.5582 45.0028 76.8565C44.5682 77.1506 44.2337 77.5341 43.9993 78.0071C43.7649 78.4801 43.6477 78.9872 43.6477 79.5284V80.3977C43.6477 81.1392 43.7756 81.7678 44.0312 82.2834C44.2912 82.7947 44.6513 83.1847 45.1115 83.4531C45.5717 83.7173 46.1065 83.8494 46.7159 83.8494C47.1122 83.8494 47.4702 83.794 47.7898 83.6832C48.1136 83.5682 48.3928 83.3977 48.6271 83.1719C48.8615 82.9418 49.0426 82.6562 49.1705 82.3153L50.6278 82.7244C50.4744 83.2188 50.2166 83.6534 49.8544 84.0284C49.4922 84.3991 49.0447 84.6889 48.5121 84.8977C47.9794 85.1023 47.3807 85.2045 46.7159 85.2045ZM57.0646 88.3494V71.9091H58.5732V88.3494H57.0646ZM57.0646 85.2045C56.3999 85.2045 55.7947 85.0852 55.2493 84.8466C54.7038 84.6037 54.2351 84.2607 53.843 83.8175C53.451 83.37 53.1484 82.8352 52.9354 82.2131C52.7223 81.5909 52.6158 80.9006 52.6158 80.142C52.6158 79.375 52.7223 78.6804 52.9354 78.0582C53.1484 77.4318 53.451 76.8949 53.843 76.4474C54.2351 76 54.7038 75.657 55.2493 75.4183C55.7947 75.1754 56.3999 75.054 57.0646 75.054H57.5249V85.2045H57.0646ZM57.0646 83.8494H57.3203V76.4091H57.0646C56.5618 76.4091 56.125 76.5114 55.7543 76.7159C55.3835 76.9162 55.0767 77.1911 54.8338 77.5405C54.5952 77.8857 54.4162 78.282 54.2969 78.7294C54.1818 79.1768 54.1243 79.6477 54.1243 80.142C54.1243 80.7983 54.2287 81.4077 54.4375 81.9702C54.6463 82.5327 54.968 82.9865 55.4027 83.3317C55.8374 83.6768 56.3913 83.8494 57.0646 83.8494ZM58.5732 85.2045H58.1129V75.054H58.5732C59.2379 75.054 59.843 75.1754 60.3885 75.4183C60.9339 75.657 61.4027 76 61.7947 76.4474C62.1868 76.8949 62.4893 77.4318 62.7024 78.0582C62.9155 78.6804 63.022 79.375 63.022 80.142C63.022 80.9006 62.9155 81.5909 62.7024 82.2131C62.4893 82.8352 62.1868 83.37 61.7947 83.8175C61.4027 84.2607 60.9339 84.6037 60.3885 84.8466C59.843 85.0852 59.2379 85.2045 58.5732 85.2045ZM58.5732 83.8494C59.0803 83.8494 59.517 83.7514 59.8835 83.5554C60.2543 83.3551 60.5589 83.0824 60.7976 82.7372C61.0405 82.3878 61.2195 81.9915 61.3345 81.5483C61.4538 81.1009 61.5135 80.6321 61.5135 80.142C61.5135 79.4858 61.4091 78.8743 61.2003 78.3075C60.9915 77.7408 60.6697 77.2827 60.2351 76.9332C59.8004 76.5838 59.2464 76.4091 58.5732 76.4091H58.3175V83.8494H58.5732ZM69.3166 85.2045C68.4302 85.2045 67.6525 84.9936 66.9835 84.5717C66.3187 84.1499 65.7988 83.5597 65.4238 82.8011C65.0531 82.0426 64.8677 81.1562 64.8677 80.142C64.8677 79.1193 65.0531 78.2266 65.4238 77.4638C65.7988 76.701 66.3187 76.1087 66.9835 75.6868C67.6525 75.2649 68.4302 75.054 69.3166 75.054C70.2029 75.054 70.9785 75.2649 71.6433 75.6868C72.3123 76.1087 72.8322 76.701 73.2029 77.4638C73.5779 78.2266 73.7654 79.1193 73.7654 80.142C73.7654 81.1562 73.5779 82.0426 73.2029 82.8011C72.8322 83.5597 72.3123 84.1499 71.6433 84.5717C70.9785 84.9936 70.2029 85.2045 69.3166 85.2045ZM69.3166 83.8494C69.9899 83.8494 70.5439 83.6768 70.9785 83.3317C71.4132 82.9865 71.7349 82.5327 71.9437 81.9702C72.1525 81.4077 72.2569 80.7983 72.2569 80.142C72.2569 79.4858 72.1525 78.8743 71.9437 78.3075C71.7349 77.7408 71.4132 77.2827 70.9785 76.9332C70.5439 76.5838 69.9899 76.4091 69.3166 76.4091C68.6433 76.4091 68.0893 76.5838 67.6547 76.9332C67.22 77.2827 66.8983 77.7408 66.6895 78.3075C66.4806 78.8743 66.3762 79.4858 66.3762 80.142C66.3762 80.7983 66.4806 81.4077 66.6895 81.9702C66.8983 82.5327 67.22 82.9865 67.6547 83.3317C68.0893 83.6768 68.6433 83.8494 69.3166 83.8494ZM82.6392 79.4006V80.8068H77.2188V79.4006H82.6392ZM77.5767 75.1818V85H76.0682V75.1818H77.5767ZM83.7898 75.1818V85H82.2812V75.1818H83.7898Z" fill="#999999"/>
</svg>
