<svg width="195" height="15" viewBox="0 0 195 15" fill="none" xmlns="http://www.w3.org/2000/svg">
<path d="M5.89986 14.179C4.94531 14.179 4.09517 14.0149 3.34943 13.6868C2.60795 13.3544 2.02202 12.8984 1.59162 12.3189C1.16548 11.7351 0.946023 11.0618 0.933239 10.299H3.72017C3.73722 10.6186 3.84162 10.8999 4.03338 11.1428C4.2294 11.3814 4.48935 11.5668 4.81321 11.6989C5.13707 11.831 5.50142 11.897 5.90625 11.897C6.32812 11.897 6.70099 11.8224 7.02486 11.6733C7.34872 11.5241 7.60227 11.3175 7.78551 11.0533C7.96875 10.7891 8.06037 10.4844 8.06037 10.1392C8.06037 9.78977 7.96236 9.48082 7.76634 9.21236C7.57457 8.93963 7.29759 8.72656 6.93537 8.57315C6.57741 8.41974 6.15128 8.34304 5.65696 8.34304H4.43608V6.31037H5.65696C6.07457 6.31037 6.44318 6.23793 6.76278 6.09304C7.08665 5.94815 7.33807 5.74787 7.51705 5.49219C7.69602 5.23224 7.78551 4.92969 7.78551 4.58452C7.78551 4.25639 7.70668 3.96875 7.54901 3.72159C7.3956 3.47017 7.17827 3.27415 6.89702 3.13352C6.62003 2.9929 6.29617 2.92259 5.92543 2.92259C5.55043 2.92259 5.20739 2.99077 4.89631 3.12713C4.58523 3.25923 4.33594 3.44886 4.14844 3.69602C3.96094 3.94318 3.8608 4.23295 3.84801 4.56534H1.19531C1.2081 3.81108 1.4233 3.14631 1.84091 2.57102C2.25852 1.99574 2.82102 1.54616 3.52841 1.2223C4.24006 0.894176 5.04332 0.730113 5.93821 0.730113C6.84162 0.730113 7.6321 0.894176 8.30966 1.2223C8.98722 1.55043 9.51349 1.99361 9.88849 2.55185C10.2678 3.10582 10.4553 3.72798 10.451 4.41832C10.4553 5.15128 10.2273 5.76278 9.76705 6.25284C9.31108 6.7429 8.71662 7.05398 7.98366 7.18608V7.28835C8.94673 7.41193 9.67969 7.74645 10.1825 8.2919C10.6896 8.8331 10.9411 9.51065 10.9368 10.3246C10.9411 11.0703 10.7259 11.733 10.2912 12.3125C9.8608 12.892 9.26634 13.348 8.50781 13.6804C7.74929 14.0128 6.87997 14.179 5.89986 14.179ZM15.2594 14H12.2935L16.8127 0.909091H20.3794L24.8922 14H21.9263L18.6472 3.90057H18.5449L15.2594 14ZM15.074 8.8544H22.0797V11.0149H15.074V8.8544ZM37.5964 0.909091V14H34.8606V3.15909H29.568V14H26.8322V0.909091H37.5964ZM52.2614 7.45455C52.2614 8.8821 51.9908 10.0966 51.4496 11.098C50.9126 12.0994 50.1797 12.8643 49.2507 13.3928C48.326 13.9169 47.2862 14.179 46.1314 14.179C44.968 14.179 43.924 13.9148 42.9993 13.3864C42.0746 12.858 41.3438 12.093 40.8068 11.0916C40.2699 10.0902 40.0014 8.87784 40.0014 7.45455C40.0014 6.02699 40.2699 4.8125 40.8068 3.81108C41.3438 2.80966 42.0746 2.04687 42.9993 1.52273C43.924 0.994318 44.968 0.730113 46.1314 0.730113C47.2862 0.730113 48.326 0.994318 49.2507 1.52273C50.1797 2.04687 50.9126 2.80966 51.4496 3.81108C51.9908 4.8125 52.2614 6.02699 52.2614 7.45455ZM49.4553 7.45455C49.4553 6.52983 49.3168 5.75 49.0398 5.11506C48.767 4.48011 48.3814 3.99858 47.8828 3.67045C47.3842 3.34233 46.8004 3.17827 46.1314 3.17827C45.4624 3.17827 44.8786 3.34233 44.38 3.67045C43.8814 3.99858 43.4936 4.48011 43.2166 5.11506C42.9439 5.75 42.8075 6.52983 42.8075 7.45455C42.8075 8.37926 42.9439 9.15909 43.2166 9.79403C43.4936 10.429 43.8814 10.9105 44.38 11.2386C44.8786 11.5668 45.4624 11.7308 46.1314 11.7308C46.8004 11.7308 47.3842 11.5668 47.8828 11.2386C48.3814 10.9105 48.767 10.429 49.0398 9.79403C49.3168 9.15909 49.4553 8.37926 49.4553 7.45455ZM53.6021 14V11.7756L53.9728 11.7436C54.4501 11.7053 54.8358 11.5241 55.1298 11.2003C55.4238 10.8722 55.6433 10.3501 55.7882 9.63423C55.9373 8.91406 56.0332 7.94673 56.0758 6.73224L56.2931 0.909091H65.1781V14H62.487V3.12713H58.8627L58.6582 7.68466C58.59 9.15057 58.4153 10.348 58.1341 11.277C57.8571 12.206 57.4139 12.892 56.8045 13.3352C56.1994 13.7784 55.3706 14 54.318 14H53.6021ZM67.46 14V0.909091H70.2278V6.31037H75.8464V0.909091H78.6078V14H75.8464V8.59233H70.2278V14H67.46ZM80.8897 0.909091H83.6511V9.14205H83.7598L89.4167 0.909091H91.8393V14H89.0716V5.76065H88.9757L83.2868 14H80.8897V0.909091ZM93.6275 3.19105V0.909091H104.379V3.19105H100.371V14H97.6353V3.19105H93.6275ZM106.15 14V0.909091H114.971V3.19105H108.917V6.31037H114.517V8.59233H108.917V11.718H114.996V14H106.15ZM123.593 14H120.627L125.147 0.909091H128.713L133.226 14H130.26L126.981 3.90057H126.879L123.593 14ZM123.408 8.8544H130.414V11.0149H123.408V8.8544ZM134.802 14V0.909091H137.57V6.31037H143.188V0.909091H145.95V14H143.188V8.59233H137.57V14H134.802ZM156.151 14L151.945 8.41974H150.999V14H148.232V0.909091H150.999V6.13778H151.555L155.902 0.909091H159.347L154.24 6.98153L159.584 14H156.151ZM160.976 14V0.909091H169.797V3.19105H163.743V6.31037H169.343V8.59233H163.743V11.718H169.822V14H160.976ZM171.499 3.19105V0.909091H182.25V3.19105H178.242V14H175.506V3.19105H171.499ZM185.433 14.179V11.929H186.143C186.496 11.929 186.782 11.8864 186.999 11.8011C187.217 11.7116 187.389 11.5817 187.517 11.4112C187.649 11.2365 187.76 11.0192 187.849 10.7592L188.009 10.331L183.254 0.909091H186.117L189.198 7.35227L191.774 0.909091H194.599L190.087 11.4304C189.869 11.9162 189.612 12.3679 189.313 12.7855C189.019 13.2031 188.642 13.5398 188.182 13.7955C187.722 14.0511 187.134 14.179 186.418 14.179H185.433Z" fill="#999999"/>
</svg>
