<svg width="188" height="26" viewBox="0 0 188 26" fill="none" xmlns="http://www.w3.org/2000/svg">
<path d="M0.880682 8V0.727273H5.26989V1.50852H1.76136V3.96591H5.04261V4.74716H1.76136V7.21875H5.3267V8H0.880682ZM8.95952 8.11364C8.44815 8.11364 8.00781 7.9929 7.63849 7.75142C7.26918 7.50994 6.98509 7.17732 6.78622 6.75355C6.58736 6.32978 6.48793 5.84564 6.48793 5.30114C6.48793 4.74716 6.58973 4.25829 6.79332 3.83452C6.99929 3.40838 7.28575 3.07576 7.6527 2.83665C8.02202 2.59517 8.45289 2.47443 8.94531 2.47443C9.32884 2.47443 9.67448 2.54545 9.98224 2.6875C10.29 2.82955 10.5421 3.02841 10.7386 3.28409C10.9351 3.53977 11.0571 3.83807 11.1044 4.17898H10.2663C10.2024 3.9304 10.0604 3.71023 9.8402 3.51847C9.6224 3.32434 9.32884 3.22727 8.95952 3.22727C8.63281 3.22727 8.34635 3.3125 8.10014 3.48295C7.8563 3.65104 7.66572 3.88897 7.52841 4.19673C7.39347 4.50213 7.32599 4.8608 7.32599 5.27273C7.32599 5.69413 7.39228 6.06108 7.52486 6.37358C7.6598 6.68608 7.8492 6.92874 8.09304 7.10156C8.33925 7.27438 8.62808 7.3608 8.95952 7.3608C9.17732 7.3608 9.375 7.32292 9.55256 7.24716C9.73011 7.1714 9.88045 7.0625 10.0036 6.92045C10.1267 6.77841 10.2143 6.60795 10.2663 6.40909H11.1044C11.0571 6.73106 10.9399 7.02107 10.7528 7.27912C10.5682 7.5348 10.3232 7.7384 10.0178 7.88991C9.71473 8.03906 9.36198 8.11364 8.95952 8.11364ZM11.8999 3.3267V2.54545H16.3317V3.3267H14.5419V8H13.7038V3.3267H11.8999ZM18.2786 4.51989H19.8411C20.4803 4.51989 20.9692 4.68205 21.3077 5.00639C21.6462 5.33073 21.8155 5.74148 21.8155 6.23864C21.8155 6.56534 21.7398 6.86245 21.5882 7.12997C21.4367 7.39512 21.2142 7.60701 20.9206 7.76562C20.6271 7.92188 20.2672 8 19.8411 8H17.5542V2.54545H18.3922V7.21875H19.8411C20.1725 7.21875 20.4448 7.13116 20.6578 6.95597C20.8709 6.78078 20.9775 6.55587 20.9775 6.28125C20.9775 5.99242 20.8709 5.75687 20.6578 5.57457C20.4448 5.39228 20.1725 5.30114 19.8411 5.30114H18.2786V4.51989ZM25.9038 10.0455V2.54545H26.7134V3.41193H26.8129C26.8744 3.31723 26.9596 3.1965 27.0685 3.04972C27.1798 2.90057 27.3384 2.76799 27.5444 2.65199C27.7527 2.53362 28.0344 2.47443 28.3896 2.47443C28.8488 2.47443 29.2537 2.58925 29.604 2.81889C29.9544 3.04853 30.2279 3.37405 30.4244 3.79545C30.6209 4.21686 30.7191 4.71402 30.7191 5.28693C30.7191 5.86458 30.6209 6.36529 30.4244 6.78906C30.2279 7.21046 29.9556 7.53717 29.6076 7.76918C29.2596 7.99882 28.8583 8.11364 28.4038 8.11364C28.0534 8.11364 27.7728 8.05563 27.5621 7.93963C27.3514 7.82126 27.1893 7.6875 27.0756 7.53835C26.962 7.38684 26.8744 7.26136 26.8129 7.16193H26.7418V10.0455H25.9038ZM26.7276 5.27273C26.7276 5.68466 26.788 6.04806 26.9087 6.36293C27.0295 6.67543 27.2058 6.92045 27.4379 7.09801C27.6699 7.2732 27.954 7.3608 28.2901 7.3608C28.6405 7.3608 28.9329 7.26847 29.1673 7.08381C29.404 6.89678 29.5816 6.64583 29.6999 6.33097C29.8207 6.01373 29.881 5.66098 29.881 5.27273C29.881 4.8892 29.8219 4.54356 29.7035 4.2358C29.5875 3.92566 29.4111 3.68063 29.1744 3.50071C28.94 3.31842 28.6452 3.22727 28.2901 3.22727C27.9492 3.22727 27.6628 3.31368 27.4308 3.48651C27.1987 3.65696 27.0236 3.89607 26.9052 4.20384C26.7868 4.50923 26.7276 4.86553 26.7276 5.27273ZM34.2844 8.11364C33.7589 8.11364 33.3055 7.99763 32.9244 7.76562C32.5456 7.53125 32.2532 7.20455 32.0472 6.78551C31.8436 6.36411 31.7418 5.87405 31.7418 5.31534C31.7418 4.75663 31.8436 4.2642 32.0472 3.83807C32.2532 3.40956 32.5397 3.07576 32.9066 2.83665C33.2759 2.59517 33.7068 2.47443 34.1992 2.47443C34.4833 2.47443 34.7638 2.52178 35.0408 2.61648C35.3178 2.71117 35.57 2.86506 35.7972 3.07812C36.0245 3.28883 36.2056 3.56818 36.3406 3.91619C36.4755 4.2642 36.543 4.69271 36.543 5.2017V5.55682H32.3384V4.83239H35.6907C35.6907 4.52462 35.6291 4.25 35.506 4.00852C35.3853 3.76705 35.2125 3.57647 34.9876 3.43679C34.765 3.29711 34.5022 3.22727 34.1992 3.22727C33.8654 3.22727 33.5766 3.31013 33.3327 3.47585C33.0913 3.6392 32.9054 3.85227 32.7752 4.11506C32.645 4.37784 32.5799 4.65956 32.5799 4.96023V5.44318C32.5799 5.85511 32.6509 6.20431 32.793 6.49077C32.9374 6.77486 33.1374 6.99148 33.3931 7.14062C33.6488 7.28741 33.9459 7.3608 34.2844 7.3608C34.5046 7.3608 34.7035 7.33002 34.881 7.26847C35.061 7.20455 35.216 7.10985 35.3462 6.98438C35.4764 6.85653 35.5771 6.69792 35.6481 6.50852L36.4577 6.7358C36.3725 7.01042 36.2293 7.25189 36.0281 7.46023C35.8268 7.66619 35.5782 7.82718 35.2823 7.94318C34.9864 8.05682 34.6538 8.11364 34.2844 8.11364ZM37.4769 6.60795H38.3718C38.3907 6.85417 38.502 7.04119 38.7056 7.16903C38.9116 7.29688 39.1791 7.3608 39.5082 7.3608C39.8443 7.3608 40.132 7.29214 40.3711 7.15483C40.6102 7.01515 40.7298 6.79025 40.7298 6.48011C40.7298 6.29782 40.6848 6.1392 40.5948 6.00426C40.5049 5.86695 40.3782 5.76042 40.2148 5.68466C40.0515 5.6089 39.8585 5.57102 39.636 5.57102H38.6985V4.81818H39.636C39.9698 4.81818 40.216 4.74242 40.3746 4.59091C40.5356 4.43939 40.6161 4.25 40.6161 4.02273C40.6161 3.77888 40.5297 3.58357 40.3569 3.43679C40.1841 3.28764 39.939 3.21307 39.6218 3.21307C39.3022 3.21307 39.0359 3.28527 38.8228 3.42969C38.6097 3.57173 38.4973 3.75521 38.4854 3.98011H37.6048C37.6142 3.68655 37.7042 3.42732 37.8746 3.20241C38.0451 2.97514 38.2771 2.79759 38.5707 2.66974C38.8642 2.53954 39.2004 2.47443 39.5792 2.47443C39.9627 2.47443 40.2953 2.5419 40.5771 2.67685C40.8612 2.80942 41.0801 2.99053 41.234 3.22017C41.3903 3.44744 41.4684 3.70549 41.4684 3.99432C41.4684 4.30208 41.382 4.55066 41.2092 4.74006C41.0363 4.92945 40.8197 5.06439 40.5593 5.14489V5.2017C40.7653 5.21591 40.944 5.2822 41.0955 5.40057C41.2494 5.51657 41.369 5.66927 41.4542 5.85866C41.5394 6.04569 41.582 6.25284 41.582 6.48011C41.582 6.81155 41.4933 7.10038 41.3157 7.34659C41.1381 7.59044 40.8943 7.77983 40.5842 7.91477C40.274 8.04735 39.9201 8.11364 39.5224 8.11364C39.1365 8.11364 38.7908 8.0509 38.4854 7.92543C38.18 7.79759 37.9374 7.62121 37.7575 7.39631C37.5799 7.16903 37.4864 6.90625 37.4769 6.60795ZM45.3729 4.93182V5.71307H42.4893V4.93182H45.3729ZM43.1996 2.54545V8H42.3615V2.54545H43.1996ZM47.049 8.11364C46.5566 8.11364 46.1245 7.99645 45.7528 7.76207C45.3835 7.5277 45.0947 7.19981 44.8864 6.77841C44.6804 6.35701 44.5774 5.86458 44.5774 5.30114C44.5774 4.73295 44.6804 4.23698 44.8864 3.81321C45.0947 3.38944 45.3835 3.06037 45.7528 2.82599C46.1245 2.59162 46.5566 2.47443 47.049 2.47443C47.5414 2.47443 47.9723 2.59162 48.3416 2.82599C48.7133 3.06037 49.0021 3.38944 49.2081 3.81321C49.4164 4.23698 49.5206 4.73295 49.5206 5.30114C49.5206 5.86458 49.4164 6.35701 49.2081 6.77841C49.0021 7.19981 48.7133 7.5277 48.3416 7.76207C47.9723 7.99645 47.5414 8.11364 47.049 8.11364ZM47.049 7.3608C47.4231 7.3608 47.7308 7.26491 47.9723 7.07315C48.2138 6.88139 48.3925 6.62926 48.5085 6.31676C48.6245 6.00426 48.6825 5.66572 48.6825 5.30114C48.6825 4.93655 48.6245 4.59683 48.5085 4.28196C48.3925 3.96709 48.2138 3.71259 47.9723 3.51847C47.7308 3.32434 47.4231 3.22727 47.049 3.22727C46.675 3.22727 46.3672 3.32434 46.1257 3.51847C45.8842 3.71259 45.7055 3.96709 45.5895 4.28196C45.4735 4.59683 45.4155 4.93655 45.4155 5.30114C45.4155 5.66572 45.4735 6.00426 45.5895 6.31676C45.7055 6.62926 45.8842 6.88139 46.1257 7.07315C46.3672 7.26491 46.675 7.3608 47.049 7.3608ZM53.8672 6.86364L55.7706 2.54545H56.5661L54.2081 8H53.5263L51.2109 2.54545H51.9922L53.8672 6.86364ZM51.7223 2.54545V8H50.8842V2.54545H51.7223ZM56.0121 8V2.54545H56.8501V8H56.0121ZM60.6712 8.11364C60.1456 8.11364 59.6922 7.99763 59.3111 7.76562C58.9323 7.53125 58.6399 7.20455 58.4339 6.78551C58.2304 6.36411 58.1286 5.87405 58.1286 5.31534C58.1286 4.75663 58.2304 4.2642 58.4339 3.83807C58.6399 3.40956 58.9264 3.07576 59.2933 2.83665C59.6626 2.59517 60.0935 2.47443 60.5859 2.47443C60.87 2.47443 61.1506 2.52178 61.4276 2.61648C61.7045 2.71117 61.9567 2.86506 62.1839 3.07812C62.4112 3.28883 62.5923 3.56818 62.7273 3.91619C62.8622 4.2642 62.9297 4.69271 62.9297 5.2017V5.55682H58.7251V4.83239H62.0774C62.0774 4.52462 62.0159 4.25 61.8928 4.00852C61.772 3.76705 61.5992 3.57647 61.3743 3.43679C61.1518 3.29711 60.889 3.22727 60.5859 3.22727C60.2521 3.22727 59.9633 3.31013 59.7195 3.47585C59.478 3.6392 59.2921 3.85227 59.1619 4.11506C59.0317 4.37784 58.9666 4.65956 58.9666 4.96023V5.44318C58.9666 5.85511 59.0376 6.20431 59.1797 6.49077C59.3241 6.77486 59.5241 6.99148 59.7798 7.14062C60.0355 7.28741 60.3326 7.3608 60.6712 7.3608C60.8913 7.3608 61.0902 7.33002 61.2678 7.26847C61.4477 7.20455 61.6027 7.10985 61.733 6.98438C61.8632 6.85653 61.9638 6.69792 62.0348 6.50852L62.8445 6.7358C62.7592 7.01042 62.616 7.25189 62.4148 7.46023C62.2135 7.66619 61.965 7.82718 61.669 7.94318C61.3731 8.05682 61.0405 8.11364 60.6712 8.11364ZM67.017 8V2.54545H69.2472C69.8343 2.54545 70.3007 2.67803 70.6463 2.94318C70.992 3.20833 71.1648 3.55871 71.1648 3.99432C71.1648 4.32576 71.0665 4.58262 70.87 4.76491C70.6735 4.94484 70.4214 5.06676 70.1136 5.13068C70.3149 5.15909 70.5102 5.23011 70.6996 5.34375C70.8913 5.45739 71.05 5.61364 71.1754 5.8125C71.3009 6.009 71.3636 6.25047 71.3636 6.53693C71.3636 6.81629 71.2926 7.06605 71.1506 7.28622C71.0085 7.50639 70.8049 7.6804 70.5398 7.80824C70.2746 7.93608 69.9574 8 69.5881 8H67.017ZM67.8125 7.23295H69.5881C69.8769 7.23295 70.103 7.1643 70.2663 7.02699C70.4297 6.88968 70.5114 6.70265 70.5114 6.46591C70.5114 6.18419 70.4297 5.96283 70.2663 5.80185C70.103 5.63849 69.8769 5.55682 69.5881 5.55682H67.8125V7.23295ZM67.8125 4.83239H69.2472C69.4721 4.83239 69.665 4.80161 69.826 4.74006C69.987 4.67614 70.1101 4.58617 70.1953 4.47017C70.2829 4.3518 70.3267 4.21212 70.3267 4.05114C70.3267 3.8215 70.2308 3.64157 70.0391 3.51136C69.8473 3.37879 69.5833 3.3125 69.2472 3.3125H67.8125V4.83239ZM77.6607 9.8608V0.727273H78.4988V9.8608H77.6607ZM77.6607 8.11364C77.2914 8.11364 76.9552 8.04735 76.6522 7.91477C76.3491 7.77983 76.0887 7.58925 75.8709 7.34304C75.6531 7.09446 75.485 6.79735 75.3667 6.4517C75.2483 6.10606 75.1891 5.72254 75.1891 5.30114C75.1891 4.875 75.2483 4.48911 75.3667 4.14347C75.485 3.79545 75.6531 3.49716 75.8709 3.24858C76.0887 3 76.3491 2.80942 76.6522 2.67685C76.9552 2.5419 77.2914 2.47443 77.6607 2.47443H77.9164V8.11364H77.6607ZM77.6607 7.3608H77.8027V3.22727H77.6607C77.3813 3.22727 77.1387 3.28409 76.9327 3.39773C76.7267 3.509 76.5563 3.6617 76.4213 3.85582C76.2888 4.04759 76.1893 4.26776 76.123 4.51634C76.0591 4.76491 76.0272 5.02652 76.0272 5.30114C76.0272 5.66572 76.0852 6.00426 76.2012 6.31676C76.3172 6.62926 76.4959 6.88139 76.7374 7.07315C76.9789 7.26491 77.2866 7.3608 77.6607 7.3608ZM78.4988 8.11364H78.2431V2.47443H78.4988C78.8681 2.47443 79.2042 2.5419 79.5073 2.67685C79.8103 2.80942 80.0707 3 80.2885 3.24858C80.5063 3.49716 80.6744 3.79545 80.7928 4.14347C80.9112 4.48911 80.9703 4.875 80.9703 5.30114C80.9703 5.72254 80.9112 6.10606 80.7928 6.4517C80.6744 6.79735 80.5063 7.09446 80.2885 7.34304C80.0707 7.58925 79.8103 7.77983 79.5073 7.91477C79.2042 8.04735 78.8681 8.11364 78.4988 8.11364ZM78.4988 7.3608C78.7805 7.3608 79.0231 7.30634 79.2267 7.19744C79.4327 7.08617 79.602 6.93466 79.7346 6.7429C79.8695 6.54877 79.9689 6.3286 80.0328 6.08239C80.0991 5.83381 80.1323 5.57339 80.1323 5.30114C80.1323 4.93655 80.0743 4.59683 79.9583 4.28196C79.8423 3.96709 79.6635 3.71259 79.4221 3.51847C79.1806 3.32434 78.8728 3.22727 78.4988 3.22727H78.3567V7.3608H78.4988ZM84.4673 8.11364C83.9749 8.11364 83.5429 7.99645 83.1712 7.76207C82.8018 7.5277 82.513 7.19981 82.3047 6.77841C82.0987 6.35701 81.9957 5.86458 81.9957 5.30114C81.9957 4.73295 82.0987 4.23698 82.3047 3.81321C82.513 3.38944 82.8018 3.06037 83.1712 2.82599C83.5429 2.59162 83.9749 2.47443 84.4673 2.47443C84.9598 2.47443 85.3906 2.59162 85.7599 2.82599C86.1316 3.06037 86.4205 3.38944 86.6264 3.81321C86.8348 4.23698 86.9389 4.73295 86.9389 5.30114C86.9389 5.86458 86.8348 6.35701 86.6264 6.77841C86.4205 7.19981 86.1316 7.5277 85.7599 7.76207C85.3906 7.99645 84.9598 8.11364 84.4673 8.11364ZM84.4673 7.3608C84.8414 7.3608 85.1491 7.26491 85.3906 7.07315C85.6321 6.88139 85.8108 6.62926 85.9268 6.31676C86.0429 6.00426 86.1009 5.66572 86.1009 5.30114C86.1009 4.93655 86.0429 4.59683 85.9268 4.28196C85.8108 3.96709 85.6321 3.71259 85.3906 3.51847C85.1491 3.32434 84.8414 3.22727 84.4673 3.22727C84.0933 3.22727 83.7855 3.32434 83.544 3.51847C83.3026 3.71259 83.1238 3.96709 83.0078 4.28196C82.8918 4.59683 82.8338 4.93655 82.8338 5.30114C82.8338 5.66572 82.8918 6.00426 83.0078 6.31676C83.1238 6.62926 83.3026 6.88139 83.544 7.07315C83.7855 7.26491 84.0933 7.3608 84.4673 7.3608ZM88.2182 10.0455V2.54545H89.0279V3.41193H89.1273C89.1889 3.31723 89.2741 3.1965 89.383 3.04972C89.4943 2.90057 89.6529 2.76799 89.8588 2.65199C90.0672 2.53362 90.3489 2.47443 90.704 2.47443C91.1633 2.47443 91.5681 2.58925 91.9185 2.81889C92.2689 3.04853 92.5423 3.37405 92.7388 3.79545C92.9353 4.21686 93.0336 4.71402 93.0336 5.28693C93.0336 5.86458 92.9353 6.36529 92.7388 6.78906C92.5423 7.21046 92.2701 7.53717 91.9221 7.76918C91.574 7.99882 91.1728 8.11364 90.7182 8.11364C90.3678 8.11364 90.0873 8.05563 89.8766 7.93963C89.6659 7.82126 89.5037 7.6875 89.3901 7.53835C89.2765 7.38684 89.1889 7.26136 89.1273 7.16193H89.0563V10.0455H88.2182ZM89.0421 5.27273C89.0421 5.68466 89.1025 6.04806 89.2232 6.36293C89.3439 6.67543 89.5203 6.92045 89.7523 7.09801C89.9843 7.2732 90.2684 7.3608 90.6046 7.3608C90.955 7.3608 91.2473 7.26847 91.4817 7.08381C91.7185 6.89678 91.896 6.64583 92.0144 6.33097C92.1351 6.01373 92.1955 5.66098 92.1955 5.27273C92.1955 4.8892 92.1363 4.54356 92.0179 4.2358C91.9019 3.92566 91.7256 3.68063 91.4888 3.50071C91.2544 3.31842 90.9597 3.22727 90.6046 3.22727C90.2637 3.22727 89.9772 3.31368 89.7452 3.48651C89.5132 3.65696 89.338 3.89607 89.2196 4.20384C89.1013 4.50923 89.0421 4.86553 89.0421 5.27273ZM97.2949 6.86364L99.1983 2.54545H99.9938L97.6358 8H96.954L94.6387 2.54545H95.4199L97.2949 6.86364ZM95.15 2.54545V8H94.312V2.54545H95.15ZM99.4398 8V2.54545H100.278V8H99.4398ZM103.417 8.12784C103.071 8.12784 102.758 8.06274 102.476 7.93253C102.194 7.79995 101.971 7.60938 101.805 7.3608C101.639 7.10985 101.556 6.80682 101.556 6.4517C101.556 6.1392 101.618 5.88589 101.741 5.69176C101.864 5.49527 102.029 5.34138 102.235 5.23011C102.441 5.11884 102.668 5.03598 102.916 4.98153C103.167 4.92472 103.419 4.87973 103.673 4.84659C104.004 4.80398 104.273 4.77202 104.479 4.75071C104.687 4.72704 104.839 4.68797 104.933 4.63352C105.03 4.57907 105.079 4.48437 105.079 4.34943V4.32102C105.079 3.97064 104.983 3.69839 104.791 3.50426C104.602 3.31013 104.314 3.21307 103.928 3.21307C103.528 3.21307 103.215 3.30066 102.987 3.47585C102.76 3.65104 102.6 3.83807 102.508 4.03693L101.713 3.75284C101.855 3.4214 102.044 3.16335 102.281 2.97869C102.52 2.79167 102.78 2.66146 103.062 2.58807C103.346 2.51231 103.625 2.47443 103.9 2.47443C104.075 2.47443 104.276 2.49574 104.504 2.53835C104.733 2.5786 104.955 2.66264 105.168 2.79048C105.383 2.91832 105.562 3.11127 105.704 3.36932C105.846 3.62737 105.917 3.97301 105.917 4.40625V8H105.079V7.26136H105.036C104.98 7.37973 104.885 7.50639 104.752 7.64134C104.62 7.77628 104.443 7.8911 104.223 7.9858C104.003 8.08049 103.734 8.12784 103.417 8.12784ZM103.545 7.375C103.876 7.375 104.156 7.3099 104.383 7.17969C104.613 7.04948 104.785 6.88139 104.901 6.67543C105.02 6.46946 105.079 6.25284 105.079 6.02557V5.25852C105.044 5.30114 104.965 5.3402 104.845 5.37571C104.726 5.40885 104.589 5.43845 104.433 5.46449C104.279 5.48816 104.128 5.50947 103.982 5.52841C103.837 5.54498 103.72 5.55919 103.63 5.57102C103.412 5.59943 103.209 5.6456 103.019 5.70952C102.832 5.77107 102.681 5.86458 102.565 5.99006C102.451 6.11316 102.394 6.28125 102.394 6.49432C102.394 6.78551 102.502 7.00568 102.718 7.15483C102.935 7.30161 103.211 7.375 103.545 7.375ZM106.705 3.3267V2.54545H111.136V3.3267H109.347V8H108.509V3.3267H106.705ZM114.363 8.11364C113.837 8.11364 113.384 7.99763 113.002 7.76562C112.624 7.53125 112.331 7.20455 112.125 6.78551C111.922 6.36411 111.82 5.87405 111.82 5.31534C111.82 4.75663 111.922 4.2642 112.125 3.83807C112.331 3.40956 112.618 3.07576 112.985 2.83665C113.354 2.59517 113.785 2.47443 114.277 2.47443C114.561 2.47443 114.842 2.52178 115.119 2.61648C115.396 2.71117 115.648 2.86506 115.875 3.07812C116.103 3.28883 116.284 3.56818 116.419 3.91619C116.554 4.2642 116.621 4.69271 116.621 5.2017V5.55682H112.417V4.83239H115.769C115.769 4.52462 115.707 4.25 115.584 4.00852C115.463 3.76705 115.291 3.57647 115.066 3.43679C114.843 3.29711 114.58 3.22727 114.277 3.22727C113.944 3.22727 113.655 3.31013 113.411 3.47585C113.169 3.6392 112.984 3.85227 112.853 4.11506C112.723 4.37784 112.658 4.65956 112.658 4.96023V5.44318C112.658 5.85511 112.729 6.20431 112.871 6.49077C113.016 6.77486 113.216 6.99148 113.471 7.14062C113.727 7.28741 114.024 7.3608 114.363 7.3608C114.583 7.3608 114.782 7.33002 114.959 7.26847C115.139 7.20455 115.294 7.10985 115.424 6.98438C115.555 6.85653 115.655 6.69792 115.726 6.50852L116.536 6.7358C116.451 7.01042 116.307 7.25189 116.106 7.46023C115.905 7.66619 115.656 7.82718 115.36 7.94318C115.065 8.05682 114.732 8.11364 114.363 8.11364ZM121.319 8.05682C121.144 8.05682 120.994 7.99408 120.868 7.86861C120.743 7.74313 120.68 7.5928 120.68 7.41761C120.68 7.24242 120.743 7.09209 120.868 6.96662C120.994 6.84115 121.144 6.77841 121.319 6.77841C121.494 6.77841 121.645 6.84115 121.77 6.96662C121.896 7.09209 121.958 7.24242 121.958 7.41761C121.958 7.53362 121.929 7.64015 121.87 7.73722C121.813 7.83428 121.736 7.91241 121.639 7.97159C121.544 8.02841 121.438 8.05682 121.319 8.05682ZM123.462 10.0455V2.54545H124.272V3.41193H124.371C124.433 3.31723 124.518 3.1965 124.627 3.04972C124.738 2.90057 124.897 2.76799 125.103 2.65199C125.311 2.53362 125.593 2.47443 125.948 2.47443C126.407 2.47443 126.812 2.58925 127.163 2.81889C127.513 3.04853 127.786 3.37405 127.983 3.79545C128.179 4.21686 128.278 4.71402 128.278 5.28693C128.278 5.86458 128.179 6.36529 127.983 6.78906C127.786 7.21046 127.514 7.53717 127.166 7.76918C126.818 7.99882 126.417 8.11364 125.962 8.11364C125.612 8.11364 125.331 8.05563 125.121 7.93963C124.91 7.82126 124.748 7.6875 124.634 7.53835C124.521 7.38684 124.433 7.26136 124.371 7.16193H124.3V10.0455H123.462ZM124.286 5.27273C124.286 5.68466 124.347 6.04806 124.467 6.36293C124.588 6.67543 124.764 6.92045 124.996 7.09801C125.228 7.2732 125.513 7.3608 125.849 7.3608C126.199 7.3608 126.491 7.26847 126.726 7.08381C126.963 6.89678 127.14 6.64583 127.259 6.33097C127.379 6.01373 127.44 5.66098 127.44 5.27273C127.44 4.8892 127.38 4.54356 127.262 4.2358C127.146 3.92566 126.97 3.68063 126.733 3.50071C126.499 3.31842 126.204 3.22727 125.849 3.22727C125.508 3.22727 125.221 3.31368 124.989 3.48651C124.757 3.65696 124.582 3.89607 124.464 4.20384C124.345 4.50923 124.286 4.86553 124.286 5.27273ZM131.616 8.11364C131.161 8.11364 130.76 7.99882 130.412 7.76918C130.064 7.53717 129.792 7.21046 129.595 6.78906C129.399 6.36529 129.3 5.86458 129.3 5.28693C129.3 4.71402 129.399 4.21686 129.595 3.79545C129.792 3.37405 130.065 3.04853 130.415 2.81889C130.766 2.58925 131.171 2.47443 131.63 2.47443C131.985 2.47443 132.266 2.53362 132.472 2.65199C132.68 2.76799 132.839 2.90057 132.947 3.04972C133.059 3.1965 133.145 3.31723 133.207 3.41193H133.278V0.727273H134.116V8H133.306V7.16193H133.207C133.145 7.26136 133.058 7.38684 132.944 7.53835C132.83 7.6875 132.668 7.82126 132.457 7.93963C132.247 8.05563 131.966 8.11364 131.616 8.11364ZM131.729 7.3608C132.066 7.3608 132.35 7.2732 132.582 7.09801C132.814 6.92045 132.99 6.67543 133.111 6.36293C133.232 6.04806 133.292 5.68466 133.292 5.27273C133.292 4.86553 133.233 4.50923 133.114 4.20384C132.996 3.89607 132.821 3.65696 132.589 3.48651C132.357 3.31368 132.07 3.22727 131.729 3.22727C131.374 3.22727 131.078 3.31842 130.842 3.50071C130.607 3.68063 130.431 3.92566 130.312 4.2358C130.196 4.54356 130.138 4.8892 130.138 5.27273C130.138 5.66098 130.198 6.01373 130.316 6.33097C130.437 6.64583 130.614 6.89678 130.849 7.08381C131.085 7.26847 131.379 7.3608 131.729 7.3608ZM138.196 2.54545V3.25568H135.256V2.54545H138.196ZM136.136 8V1.79261C136.136 1.48011 136.21 1.2197 136.357 1.01136C136.503 0.80303 136.694 0.64678 136.928 0.542613C137.163 0.438446 137.41 0.386363 137.67 0.386363C137.876 0.386363 138.045 0.402935 138.175 0.436079C138.305 0.469223 138.402 0.5 138.466 0.528409L138.224 1.25284C138.182 1.23864 138.123 1.22088 138.047 1.19957C137.973 1.17827 137.876 1.16761 137.756 1.16761C137.479 1.16761 137.279 1.23745 137.156 1.37713C137.035 1.51681 136.974 1.72159 136.974 1.99148V8H136.136ZM143.021 6.7642L145.649 2.54545H146.615V8H145.777V3.78125L143.163 8H142.183V2.54545H143.021V6.7642ZM147.667 8V7.21875H147.866C148.029 7.21875 148.165 7.18679 148.274 7.12287C148.383 7.05658 148.471 6.94176 148.537 6.77841C148.606 6.61269 148.658 6.38305 148.693 6.08949C148.731 5.79356 148.758 5.41714 148.775 4.96023L148.874 2.54545H152.511V8H151.673V3.3267H149.67L149.585 5.27273C149.566 5.72017 149.525 6.11435 149.464 6.45526C149.405 6.7938 149.313 7.07789 149.19 7.30753C149.07 7.53717 148.909 7.70999 148.707 7.82599C148.506 7.942 148.254 8 147.951 8H147.667ZM154.886 6.7642L157.514 2.54545H158.48V8H157.642V3.78125L155.028 8H154.048V2.54545H154.886V6.7642ZM163.438 8.05682C163.263 8.05682 163.113 7.99408 162.987 7.86861C162.862 7.74313 162.799 7.5928 162.799 7.41761C162.799 7.24242 162.862 7.09209 162.987 6.96662C163.113 6.84115 163.263 6.77841 163.438 6.77841C163.614 6.77841 163.764 6.84115 163.889 6.96662C164.015 7.09209 164.078 7.24242 164.078 7.41761C164.078 7.53362 164.048 7.64015 163.989 7.73722C163.932 7.83428 163.855 7.91241 163.758 7.97159C163.663 8.02841 163.557 8.05682 163.438 8.05682ZM167.641 8.11364C167.187 8.11364 166.785 7.99882 166.437 7.76918C166.089 7.53717 165.817 7.21046 165.621 6.78906C165.424 6.36529 165.326 5.86458 165.326 5.28693C165.326 4.71402 165.424 4.21686 165.621 3.79545C165.817 3.37405 166.09 3.04853 166.441 2.81889C166.791 2.58925 167.196 2.47443 167.655 2.47443C168.01 2.47443 168.291 2.53362 168.497 2.65199C168.705 2.76799 168.864 2.90057 168.973 3.04972C169.084 3.1965 169.171 3.31723 169.232 3.41193H169.303V0.727273H170.141V8H169.331V7.16193H169.232C169.171 7.26136 169.083 7.38684 168.969 7.53835C168.856 7.6875 168.693 7.82126 168.483 7.93963C168.272 8.05563 167.992 8.11364 167.641 8.11364ZM167.755 7.3608C168.091 7.3608 168.375 7.2732 168.607 7.09801C168.839 6.92045 169.015 6.67543 169.136 6.36293C169.257 6.04806 169.317 5.68466 169.317 5.27273C169.317 4.86553 169.258 4.50923 169.14 4.20384C169.021 3.89607 168.846 3.65696 168.614 3.48651C168.382 3.31368 168.096 3.22727 167.755 3.22727C167.4 3.22727 167.104 3.31842 166.867 3.50071C166.633 3.68063 166.456 3.92566 166.338 4.2358C166.222 4.54356 166.164 4.8892 166.164 5.27273C166.164 5.66098 166.223 6.01373 166.341 6.33097C166.462 6.64583 166.64 6.89678 166.874 7.08381C167.111 7.26847 167.404 7.3608 167.755 7.3608ZM174.008 8.11364C173.516 8.11364 173.084 7.99645 172.712 7.76207C172.343 7.5277 172.054 7.19981 171.846 6.77841C171.64 6.35701 171.537 5.86458 171.537 5.30114C171.537 4.73295 171.64 4.23698 171.846 3.81321C172.054 3.38944 172.343 3.06037 172.712 2.82599C173.084 2.59162 173.516 2.47443 174.008 2.47443C174.501 2.47443 174.932 2.59162 175.301 2.82599C175.673 3.06037 175.961 3.38944 176.167 3.81321C176.376 4.23698 176.48 4.73295 176.48 5.30114C176.48 5.86458 176.376 6.35701 176.167 6.77841C175.961 7.19981 175.673 7.5277 175.301 7.76207C174.932 7.99645 174.501 8.11364 174.008 8.11364ZM174.008 7.3608C174.382 7.3608 174.69 7.26491 174.932 7.07315C175.173 6.88139 175.352 6.62926 175.468 6.31676C175.584 6.00426 175.642 5.66572 175.642 5.30114C175.642 4.93655 175.584 4.59683 175.468 4.28196C175.352 3.96709 175.173 3.71259 174.932 3.51847C174.69 3.32434 174.382 3.22727 174.008 3.22727C173.634 3.22727 173.327 3.32434 173.085 3.51847C172.844 3.71259 172.665 3.96709 172.549 4.28196C172.433 4.59683 172.375 4.93655 172.375 5.30114C172.375 5.66572 172.433 6.00426 172.549 6.31676C172.665 6.62926 172.844 6.88139 173.085 7.07315C173.327 7.26491 173.634 7.3608 174.008 7.3608ZM179.975 8.11364C179.464 8.11364 179.023 7.9929 178.654 7.75142C178.285 7.50994 178.001 7.17732 177.802 6.75355C177.603 6.32978 177.504 5.84564 177.504 5.30114C177.504 4.74716 177.605 4.25829 177.809 3.83452C178.015 3.40838 178.301 3.07576 178.668 2.83665C179.038 2.59517 179.469 2.47443 179.961 2.47443C180.344 2.47443 180.69 2.54545 180.998 2.6875C181.306 2.82955 181.558 3.02841 181.754 3.28409C181.951 3.53977 182.073 3.83807 182.12 4.17898H181.282C181.218 3.9304 181.076 3.71023 180.856 3.51847C180.638 3.32434 180.344 3.22727 179.975 3.22727C179.648 3.22727 179.362 3.3125 179.116 3.48295C178.872 3.65104 178.681 3.88897 178.544 4.19673C178.409 4.50213 178.342 4.8608 178.342 5.27273C178.342 5.69413 178.408 6.06108 178.54 6.37358C178.675 6.68608 178.865 6.92874 179.109 7.10156C179.355 7.27438 179.644 7.3608 179.975 7.3608C180.193 7.3608 180.391 7.32292 180.568 7.24716C180.746 7.1714 180.896 7.0625 181.019 6.92045C181.142 6.77841 181.23 6.60795 181.282 6.40909H182.12C182.073 6.73106 181.955 7.02107 181.768 7.27912C181.584 7.5348 181.339 7.7384 181.033 7.88991C180.73 8.03906 180.378 8.11364 179.975 8.11364ZM184.439 5.95455V5.91193C184.444 5.45975 184.491 5.09991 184.581 4.83239C184.671 4.56487 184.799 4.34825 184.964 4.18253C185.13 4.01681 185.329 3.86411 185.561 3.72443C185.701 3.6392 185.826 3.53859 185.938 3.42259C186.049 3.30421 186.136 3.16809 186.2 3.0142C186.267 2.86032 186.3 2.68987 186.3 2.50284C186.3 2.27083 186.245 2.0696 186.136 1.89915C186.027 1.72869 185.882 1.5973 185.7 1.50497C185.517 1.41264 185.315 1.36648 185.092 1.36648C184.898 1.36648 184.711 1.40672 184.531 1.48722C184.351 1.56771 184.201 1.69437 184.08 1.86719C183.96 2.04001 183.89 2.2661 183.871 2.54545H182.976C182.995 2.14299 183.099 1.79853 183.288 1.51207C183.48 1.22562 183.732 1.00663 184.045 0.855113C184.36 0.703598 184.709 0.627841 185.092 0.627841C185.509 0.627841 185.871 0.7107 186.179 0.87642C186.489 1.04214 186.728 1.26941 186.896 1.55824C187.067 1.84706 187.152 2.17614 187.152 2.54545C187.152 2.80587 187.112 3.04143 187.031 3.25213C186.953 3.46283 186.839 3.65104 186.69 3.81676C186.544 3.98248 186.366 4.12926 186.158 4.2571C185.949 4.38731 185.782 4.52462 185.657 4.66903C185.531 4.81108 185.44 4.98035 185.384 5.17685C185.327 5.37334 185.296 5.61837 185.291 5.91193V5.95455H184.439ZM184.893 8.05682C184.718 8.05682 184.568 7.99408 184.442 7.86861C184.317 7.74313 184.254 7.5928 184.254 7.41761C184.254 7.24242 184.317 7.09209 184.442 6.96662C184.568 6.84115 184.718 6.77841 184.893 6.77841C185.069 6.77841 185.219 6.84115 185.344 6.96662C185.47 7.09209 185.533 7.24242 185.533 7.41761C185.533 7.53362 185.503 7.64015 185.444 7.73722C185.387 7.83428 185.31 7.91241 185.213 7.97159C185.118 8.02841 185.012 8.05682 184.893 8.05682ZM6.32102 15.7273V23H5.44034V16.5085H1.77557V23H0.894886V15.7273H6.32102ZM7.98384 25.0455V17.5455H8.7935V18.4119H8.89293C8.95449 18.3172 9.03971 18.1965 9.14862 18.0497C9.25988 17.9006 9.4185 17.768 9.62447 17.652C9.8328 17.5336 10.1145 17.4744 10.4696 17.4744C10.9289 17.4744 11.3337 17.5893 11.6841 17.8189C12.0345 18.0485 12.3079 18.3741 12.5044 18.7955C12.7009 19.2169 12.7992 19.714 12.7992 20.2869C12.7992 20.8646 12.7009 21.3653 12.5044 21.7891C12.3079 22.2105 12.0357 22.5372 11.6877 22.7692C11.3397 22.9988 10.9384 23.1136 10.4838 23.1136C10.1335 23.1136 9.85292 23.0556 9.64222 22.9396C9.43152 22.8213 9.26935 22.6875 9.15572 22.5384C9.04208 22.3868 8.95449 22.2614 8.89293 22.1619H8.82191V25.0455H7.98384ZM8.80771 20.2727C8.80771 20.6847 8.86808 21.0481 8.98881 21.3629C9.10955 21.6754 9.28593 21.9205 9.51793 22.098C9.74994 22.2732 10.034 22.3608 10.3702 22.3608C10.7206 22.3608 11.013 22.2685 11.2473 22.0838C11.4841 21.8968 11.6616 21.6458 11.78 21.331C11.9007 21.0137 11.9611 20.661 11.9611 20.2727C11.9611 19.8892 11.9019 19.5436 11.7836 19.2358C11.6676 18.9257 11.4912 18.6806 11.2544 18.5007C11.0201 18.3184 10.7253 18.2273 10.3702 18.2273C10.0293 18.2273 9.74284 18.3137 9.51083 18.4865C9.27882 18.657 9.10363 18.8961 8.98526 19.2038C8.86689 19.5092 8.80771 19.8655 8.80771 20.2727ZM14.9157 21.7642L17.5435 17.5455H18.5094V23H17.6713V18.7812L15.0577 23H14.0776V17.5455H14.9157V21.7642ZM19.5614 23V22.2188H19.7603C19.9237 22.2188 20.0598 22.1868 20.1687 22.1229C20.2776 22.0566 20.3652 21.9418 20.4315 21.7784C20.5001 21.6127 20.5522 21.383 20.5877 21.0895C20.6256 20.7936 20.6528 20.4171 20.6694 19.9602L20.7688 17.5455H24.4052V23H23.5671V18.3267H21.5643L21.479 20.2727C21.4601 20.7202 21.4199 21.1143 21.3583 21.4553C21.2991 21.7938 21.208 22.0779 21.0849 22.3075C20.9641 22.5372 20.8031 22.71 20.6019 22.826C20.4007 22.942 20.1486 23 19.8455 23H19.5614ZM28.1587 23.1136C27.6663 23.1136 27.2343 22.9964 26.8626 22.7621C26.4933 22.5277 26.2044 22.1998 25.9961 21.7784C25.7901 21.357 25.6871 20.8646 25.6871 20.3011C25.6871 19.733 25.7901 19.237 25.9961 18.8132C26.2044 18.3894 26.4933 18.0604 26.8626 17.826C27.2343 17.5916 27.6663 17.4744 28.1587 17.4744C28.6512 17.4744 29.082 17.5916 29.4513 17.826C29.823 18.0604 30.1119 18.3894 30.3178 18.8132C30.5262 19.237 30.6303 19.733 30.6303 20.3011C30.6303 20.8646 30.5262 21.357 30.3178 21.7784C30.1119 22.1998 29.823 22.5277 29.4513 22.7621C29.082 22.9964 28.6512 23.1136 28.1587 23.1136ZM28.1587 22.3608C28.5328 22.3608 28.8406 22.2649 29.082 22.0732C29.3235 21.8814 29.5022 21.6293 29.6183 21.3168C29.7343 21.0043 29.7923 20.6657 29.7923 20.3011C29.7923 19.9366 29.7343 19.5968 29.6183 19.282C29.5022 18.9671 29.3235 18.7126 29.082 18.5185C28.8406 18.3243 28.5328 18.2273 28.1587 18.2273C27.7847 18.2273 27.4769 18.3243 27.2354 18.5185C26.994 18.7126 26.8152 18.9671 26.6992 19.282C26.5832 19.5968 26.5252 19.9366 26.5252 20.3011C26.5252 20.6657 26.5832 21.0043 26.6992 21.3168C26.8152 21.6293 26.994 21.8814 27.2354 22.0732C27.4769 22.2649 27.7847 22.3608 28.1587 22.3608ZM31.3441 23L33.56 20.2301L31.3725 17.5455H32.3668L34.185 19.875H34.6396V17.5455H35.4776V19.875H35.918L37.7362 17.5455H38.7305L36.5572 20.2301L38.7589 23H37.7504L35.9038 20.6562H35.4776V23H34.6396V20.6562H34.2134L32.3526 23H31.3441ZM40.7946 21.7642L43.4224 17.5455H44.3883V23H43.5502V18.7812L40.9366 23H39.9565V17.5455H40.7946V21.7642ZM45.1811 18.3267V17.5455H49.6129V18.3267H47.8232V23H46.9851V18.3267H45.1811ZM52.8391 23.1136C52.3136 23.1136 51.8602 22.9976 51.479 22.7656C51.1003 22.5312 50.8079 22.2045 50.6019 21.7855C50.3983 21.3641 50.2965 20.8741 50.2965 20.3153C50.2965 19.7566 50.3983 19.2642 50.6019 18.8381C50.8079 18.4096 51.0943 18.0758 51.4613 17.8366C51.8306 17.5952 52.2615 17.4744 52.7539 17.4744C53.038 17.4744 53.3185 17.5218 53.5955 17.6165C53.8725 17.7112 54.1246 17.8651 54.3519 18.0781C54.5792 18.2888 54.7603 18.5682 54.8952 18.9162C55.0302 19.2642 55.0977 19.6927 55.0977 20.2017V20.5568H50.8931V19.8324H54.2454C54.2454 19.5246 54.1838 19.25 54.0607 19.0085C53.94 18.767 53.7672 18.5765 53.5423 18.4368C53.3197 18.2971 53.0569 18.2273 52.7539 18.2273C52.4201 18.2273 52.1313 18.3101 51.8874 18.4759C51.646 18.6392 51.4601 18.8523 51.3299 19.1151C51.1997 19.3778 51.1346 19.6596 51.1346 19.9602V20.4432C51.1346 20.8551 51.2056 21.2043 51.3477 21.4908C51.4921 21.7749 51.6921 21.9915 51.9478 22.1406C52.2035 22.2874 52.5006 22.3608 52.8391 22.3608C53.0593 22.3608 53.2582 22.33 53.4357 22.2685C53.6156 22.2045 53.7707 22.1098 53.9009 21.9844C54.0311 21.8565 54.1317 21.6979 54.2028 21.5085L55.0124 21.7358C54.9272 22.0104 54.784 22.2519 54.5827 22.4602C54.3815 22.6662 54.1329 22.8272 53.837 22.9432C53.5411 23.0568 53.2085 23.1136 52.8391 23.1136ZM60.0231 21.7642L62.6509 17.5455H63.6168V23H62.7788V18.7812L60.1651 23H59.185V17.5455H60.0231V21.7642ZM70.1802 23.1136C69.6878 23.1136 69.2557 22.9964 68.8841 22.7621C68.5147 22.5277 68.2259 22.1998 68.0176 21.7784C67.8116 21.357 67.7086 20.8646 67.7086 20.3011C67.7086 19.733 67.8116 19.237 68.0176 18.8132C68.2259 18.3894 68.5147 18.0604 68.8841 17.826C69.2557 17.5916 69.6878 17.4744 70.1802 17.4744C70.6726 17.4744 71.1035 17.5916 71.4728 17.826C71.8445 18.0604 72.1333 18.3894 72.3393 18.8132C72.5476 19.237 72.6518 19.733 72.6518 20.3011C72.6518 20.8646 72.5476 21.357 72.3393 21.7784C72.1333 22.1998 71.8445 22.5277 71.4728 22.7621C71.1035 22.9964 70.6726 23.1136 70.1802 23.1136ZM70.1802 22.3608C70.5543 22.3608 70.862 22.2649 71.1035 22.0732C71.345 21.8814 71.5237 21.6293 71.6397 21.3168C71.7557 21.0043 71.8137 20.6657 71.8137 20.3011C71.8137 19.9366 71.7557 19.5968 71.6397 19.282C71.5237 18.9671 71.345 18.7126 71.1035 18.5185C70.862 18.3243 70.5543 18.2273 70.1802 18.2273C69.8062 18.2273 69.4984 18.3243 69.2569 18.5185C69.0154 18.7126 68.8367 18.9671 68.7207 19.282C68.6047 19.5968 68.5467 19.9366 68.5467 20.3011C68.5467 20.6657 68.6047 21.0043 68.7207 21.3168C68.8367 21.6293 69.0154 21.8814 69.2569 22.0732C69.4984 22.2649 69.8062 22.3608 70.1802 22.3608ZM73.2182 18.3267V17.5455H77.65V18.3267H75.8603V23H75.0222V18.3267H73.2182ZM78.8725 23V17.5455H83.1623V23H82.3242V18.3267H79.7106V23H78.8725ZM84.6928 25.0455V17.5455H85.5025V18.4119H85.6019C85.6635 18.3172 85.7487 18.1965 85.8576 18.0497C85.9689 17.9006 86.1275 17.768 86.3335 17.652C86.5418 17.5336 86.8235 17.4744 87.1786 17.4744C87.6379 17.4744 88.0427 17.5893 88.3931 17.8189C88.7435 18.0485 89.0169 18.3741 89.2134 18.7955C89.4099 19.2169 89.5082 19.714 89.5082 20.2869C89.5082 20.8646 89.4099 21.3653 89.2134 21.7891C89.0169 22.2105 88.7447 22.5372 88.3967 22.7692C88.0487 22.9988 87.6474 23.1136 87.1928 23.1136C86.8424 23.1136 86.5619 23.0556 86.3512 22.9396C86.1405 22.8213 85.9783 22.6875 85.8647 22.5384C85.7511 22.3868 85.6635 22.2614 85.6019 22.1619H85.5309V25.0455H84.6928ZM85.5167 20.2727C85.5167 20.6847 85.5771 21.0481 85.6978 21.3629C85.8185 21.6754 85.9949 21.9205 86.2269 22.098C86.4589 22.2732 86.743 22.3608 87.0792 22.3608C87.4296 22.3608 87.7219 22.2685 87.9563 22.0838C88.1931 21.8968 88.3706 21.6458 88.489 21.331C88.6097 21.0137 88.6701 20.661 88.6701 20.2727C88.6701 19.8892 88.6109 19.5436 88.4925 19.2358C88.3765 18.9257 88.2002 18.6806 87.9634 18.5007C87.729 18.3184 87.4343 18.2273 87.0792 18.2273C86.7383 18.2273 86.4518 18.3137 86.2198 18.4865C85.9878 18.657 85.8126 18.8961 85.6942 19.2038C85.5759 19.5092 85.5167 19.8655 85.5167 20.2727ZM92.3917 23.1278C92.046 23.1278 91.7324 23.0627 91.4506 22.9325C91.1689 22.8 90.9452 22.6094 90.7795 22.3608C90.6138 22.1098 90.5309 21.8068 90.5309 21.4517C90.5309 21.1392 90.5924 20.8859 90.7156 20.6918C90.8387 20.4953 91.0032 20.3414 91.2092 20.2301C91.4151 20.1188 91.6424 20.036 91.891 19.9815C92.1419 19.9247 92.3941 19.8797 92.6474 19.8466C92.9788 19.804 93.2475 19.772 93.4535 19.7507C93.6618 19.727 93.8133 19.688 93.908 19.6335C94.0051 19.5791 94.0536 19.4844 94.0536 19.3494V19.321C94.0536 18.9706 93.9577 18.6984 93.766 18.5043C93.5766 18.3101 93.2889 18.2131 92.9031 18.2131C92.503 18.2131 92.1893 18.3007 91.962 18.4759C91.7347 18.651 91.5749 18.8381 91.4826 19.0369L90.6871 18.7528C90.8292 18.4214 91.0186 18.1634 91.2553 17.9787C91.4944 17.7917 91.7549 17.6615 92.0366 17.5881C92.3207 17.5123 92.6 17.4744 92.8746 17.4744C93.0498 17.4744 93.2511 17.4957 93.4783 17.5384C93.708 17.5786 93.9293 17.6626 94.1424 17.7905C94.3578 17.9183 94.5366 18.1113 94.6786 18.3693C94.8207 18.6274 94.8917 18.973 94.8917 19.4062V23H94.0536V22.2614H94.011C93.9542 22.3797 93.8595 22.5064 93.7269 22.6413C93.5943 22.7763 93.418 22.8911 93.1978 22.9858C92.9776 23.0805 92.7089 23.1278 92.3917 23.1278ZM92.5195 22.375C92.851 22.375 93.1303 22.3099 93.3576 22.1797C93.5872 22.0495 93.7601 21.8814 93.8761 21.6754C93.9944 21.4695 94.0536 21.2528 94.0536 21.0256V20.2585C94.0181 20.3011 93.94 20.3402 93.8192 20.3757C93.7009 20.4089 93.5636 20.4384 93.4073 20.4645C93.2534 20.4882 93.1031 20.5095 92.9563 20.5284C92.8119 20.545 92.6947 20.5592 92.6048 20.571C92.387 20.5994 92.1834 20.6456 91.994 20.7095C91.8069 20.7711 91.6554 20.8646 91.5394 20.9901C91.4258 21.1132 91.369 21.2812 91.369 21.4943C91.369 21.7855 91.4767 22.0057 91.6921 22.1548C91.9099 22.3016 92.1857 22.375 92.5195 22.375ZM96.4213 23V17.5455H98.6515C99.2386 17.5455 99.705 17.678 100.051 17.9432C100.396 18.2083 100.569 18.5587 100.569 18.9943C100.569 19.3258 100.471 19.5826 100.274 19.7649C100.078 19.9448 99.8257 20.0668 99.5179 20.1307C99.7192 20.1591 99.9145 20.2301 100.104 20.3438C100.296 20.4574 100.454 20.6136 100.58 20.8125C100.705 21.009 100.768 21.2505 100.768 21.5369C100.768 21.8163 100.697 22.0661 100.555 22.2862C100.413 22.5064 100.209 22.6804 99.9441 22.8082C99.6789 22.9361 99.3617 23 98.9924 23H96.4213ZM97.2168 22.233H98.9924C99.2812 22.233 99.5073 22.1643 99.6706 22.027C99.834 21.8897 99.9157 21.7027 99.9157 21.4659C99.9157 21.1842 99.834 20.9628 99.6706 20.8018C99.5073 20.6385 99.2812 20.5568 98.9924 20.5568H97.2168V22.233ZM97.2168 19.8324H98.6515C98.8764 19.8324 99.0693 19.8016 99.2303 19.7401C99.3913 19.6761 99.5144 19.5862 99.5996 19.4702C99.6872 19.3518 99.731 19.2121 99.731 19.0511C99.731 18.8215 99.6351 18.6416 99.4434 18.5114C99.2516 18.3788 98.9876 18.3125 98.6515 18.3125H97.2168V19.8324ZM102.761 19.5199H104.324C104.963 19.5199 105.452 19.6821 105.79 20.0064C106.129 20.3307 106.298 20.7415 106.298 21.2386C106.298 21.5653 106.222 21.8625 106.071 22.13C105.919 22.3951 105.697 22.607 105.403 22.7656C105.109 22.9219 104.75 23 104.324 23H102.037V17.5455H102.875V22.2188H104.324C104.655 22.2188 104.927 22.1312 105.14 21.956C105.353 21.7808 105.46 21.5559 105.46 21.2812C105.46 20.9924 105.353 20.7569 105.14 20.5746C104.927 20.3923 104.655 20.3011 104.324 20.3011H102.761V19.5199ZM106.695 18.3267V17.5455H111.127V18.3267H109.337V23H108.499V18.3267H106.695ZM114.353 23.1136C113.827 23.1136 113.374 22.9976 112.993 22.7656C112.614 22.5312 112.322 22.2045 112.116 21.7855C111.912 21.3641 111.81 20.8741 111.81 20.3153C111.81 19.7566 111.912 19.2642 112.116 18.8381C112.322 18.4096 112.608 18.0758 112.975 17.8366C113.344 17.5952 113.775 17.4744 114.268 17.4744C114.552 17.4744 114.832 17.5218 115.109 17.6165C115.386 17.7112 115.638 17.8651 115.866 18.0781C116.093 18.2888 116.274 18.5682 116.409 18.9162C116.544 19.2642 116.611 19.6927 116.611 20.2017V20.5568H112.407V19.8324H115.759C115.759 19.5246 115.698 19.25 115.574 19.0085C115.454 18.767 115.281 18.5765 115.056 18.4368C114.833 18.2971 114.571 18.2273 114.268 18.2273C113.934 18.2273 113.645 18.3101 113.401 18.4759C113.16 18.6392 112.974 18.8523 112.844 19.1151C112.713 19.3778 112.648 19.6596 112.648 19.9602V20.4432C112.648 20.8551 112.719 21.2043 112.861 21.4908C113.006 21.7749 113.206 21.9915 113.461 22.1406C113.717 22.2874 114.014 22.3608 114.353 22.3608C114.573 22.3608 114.772 22.33 114.949 22.2685C115.129 22.2045 115.284 22.1098 115.415 21.9844C115.545 21.8565 115.645 21.6979 115.716 21.5085L116.526 21.7358C116.441 22.0104 116.298 22.2519 116.096 22.4602C115.895 22.6662 115.647 22.8272 115.351 22.9432C115.055 23.0568 114.722 23.1136 114.353 23.1136ZM122.986 23.1136C122.46 23.1136 122.007 22.9976 121.626 22.7656C121.247 22.5312 120.954 22.2045 120.748 21.7855C120.545 21.3641 120.443 20.8741 120.443 20.3153C120.443 19.7566 120.545 19.2642 120.748 18.8381C120.954 18.4096 121.241 18.0758 121.608 17.8366C121.977 17.5952 122.408 17.4744 122.9 17.4744C123.184 17.4744 123.465 17.5218 123.742 17.6165C124.019 17.7112 124.271 17.8651 124.498 18.0781C124.726 18.2888 124.907 18.5682 125.042 18.9162C125.177 19.2642 125.244 19.6927 125.244 20.2017V20.5568H121.04V19.8324H124.392C124.392 19.5246 124.33 19.25 124.207 19.0085C124.086 18.767 123.914 18.5765 123.689 18.4368C123.466 18.2971 123.203 18.2273 122.9 18.2273C122.567 18.2273 122.278 18.3101 122.034 18.4759C121.792 18.6392 121.607 18.8523 121.476 19.1151C121.346 19.3778 121.281 19.6596 121.281 19.9602V20.4432C121.281 20.8551 121.352 21.2043 121.494 21.4908C121.639 21.7749 121.839 21.9915 122.094 22.1406C122.35 22.2874 122.647 22.3608 122.986 22.3608C123.206 22.3608 123.405 22.33 123.582 22.2685C123.762 22.2045 123.917 22.1098 124.047 21.9844C124.178 21.8565 124.278 21.6979 124.349 21.5085L125.159 21.7358C125.074 22.0104 124.93 22.2519 124.729 22.4602C124.528 22.6662 124.279 22.8272 123.983 22.9432C123.688 23.0568 123.355 23.1136 122.986 23.1136ZM129.885 17.5455V18.3267H127.357V23H126.519V17.5455H129.885ZM133.042 23.1136C132.549 23.1136 132.117 22.9964 131.745 22.7621C131.376 22.5277 131.087 22.1998 130.879 21.7784C130.673 21.357 130.57 20.8646 130.57 20.3011C130.57 19.733 130.673 19.237 130.879 18.8132C131.087 18.3894 131.376 18.0604 131.745 17.826C132.117 17.5916 132.549 17.4744 133.042 17.4744C133.534 17.4744 133.965 17.5916 134.334 17.826C134.706 18.0604 134.995 18.3894 135.201 18.8132C135.409 19.237 135.513 19.733 135.513 20.3011C135.513 20.8646 135.409 21.357 135.201 21.7784C134.995 22.1998 134.706 22.5277 134.334 22.7621C133.965 22.9964 133.534 23.1136 133.042 23.1136ZM133.042 22.3608C133.416 22.3608 133.723 22.2649 133.965 22.0732C134.206 21.8814 134.385 21.6293 134.501 21.3168C134.617 21.0043 134.675 20.6657 134.675 20.3011C134.675 19.9366 134.617 19.5968 134.501 19.282C134.385 18.9671 134.206 18.7126 133.965 18.5185C133.723 18.3243 133.416 18.2273 133.042 18.2273C132.667 18.2273 132.36 18.3243 132.118 18.5185C131.877 18.7126 131.698 18.9671 131.582 19.282C131.466 19.5968 131.408 19.9366 131.408 20.3011C131.408 20.6657 131.466 21.0043 131.582 21.3168C131.698 21.6293 131.877 21.8814 132.118 22.0732C132.36 22.2649 132.667 22.3608 133.042 22.3608ZM143.256 19.8892V20.6705H140.244V19.8892H143.256ZM140.443 17.5455V23H139.605V17.5455H140.443ZM143.895 17.5455V23H143.057V17.5455H143.895ZM147.03 23.1278C146.685 23.1278 146.371 23.0627 146.089 22.9325C145.808 22.8 145.584 22.6094 145.418 22.3608C145.252 22.1098 145.17 21.8068 145.17 21.4517C145.17 21.1392 145.231 20.8859 145.354 20.6918C145.477 20.4953 145.642 20.3414 145.848 20.2301C146.054 20.1188 146.281 20.036 146.53 19.9815C146.781 19.9247 147.033 19.8797 147.286 19.8466C147.617 19.804 147.886 19.772 148.092 19.7507C148.3 19.727 148.452 19.688 148.547 19.6335C148.644 19.5791 148.692 19.4844 148.692 19.3494V19.321C148.692 18.9706 148.596 18.6984 148.405 18.5043C148.215 18.3101 147.928 18.2131 147.542 18.2131C147.142 18.2131 146.828 18.3007 146.601 18.4759C146.373 18.651 146.214 18.8381 146.121 19.0369L145.326 18.7528C145.468 18.4214 145.657 18.1634 145.894 17.9787C146.133 17.7917 146.394 17.6615 146.675 17.5881C146.959 17.5123 147.239 17.4744 147.513 17.4744C147.689 17.4744 147.89 17.4957 148.117 17.5384C148.347 17.5786 148.568 17.6626 148.781 17.7905C148.997 17.9183 149.175 18.1113 149.317 18.3693C149.459 18.6274 149.53 18.973 149.53 19.4062V23H148.692V22.2614H148.65C148.593 22.3797 148.498 22.5064 148.366 22.6413C148.233 22.7763 148.057 22.8911 147.836 22.9858C147.616 23.0805 147.348 23.1278 147.03 23.1278ZM147.158 22.375C147.49 22.375 147.769 22.3099 147.996 22.1797C148.226 22.0495 148.399 21.8814 148.515 21.6754C148.633 21.4695 148.692 21.2528 148.692 21.0256V20.2585C148.657 20.3011 148.579 20.3402 148.458 20.3757C148.34 20.4089 148.202 20.4384 148.046 20.4645C147.892 20.4882 147.742 20.5095 147.595 20.5284C147.451 20.545 147.333 20.5592 147.243 20.571C147.026 20.5994 146.822 20.6456 146.633 20.7095C146.446 20.7711 146.294 20.8646 146.178 20.9901C146.064 21.1132 146.008 21.2812 146.008 21.4943C146.008 21.7855 146.115 22.0057 146.331 22.1548C146.549 22.3016 146.824 22.375 147.158 22.375ZM154.043 21.8636L155.946 17.5455H156.742L154.384 23H153.702L151.387 17.5455H152.168L154.043 21.8636ZM151.898 17.5455V23H151.06V17.5455H151.898ZM156.188 23V17.5455H157.026V23H156.188ZM159.171 23.0568C158.996 23.0568 158.845 22.9941 158.72 22.8686C158.594 22.7431 158.532 22.5928 158.532 22.4176C158.532 22.2424 158.594 22.0921 158.72 21.9666C158.845 21.8411 158.996 21.7784 159.171 21.7784C159.346 21.7784 159.496 21.8411 159.622 21.9666C159.747 22.0921 159.81 22.2424 159.81 22.4176C159.81 22.5336 159.78 22.6402 159.721 22.7372C159.664 22.8343 159.587 22.9124 159.49 22.9716C159.396 23.0284 159.289 23.0568 159.171 23.0568Z" fill="white"/>
</svg>
