<svg width="184" height="60" viewBox="0 0 184 60" fill="none" xmlns="http://www.w3.org/2000/svg">
<path d="M30.1676 4.36364H33.2017L36.4062 12.1818H36.5426L39.7472 4.36364H42.7812V16H40.3949V8.42614H40.2983L37.2869 15.9432H35.6619L32.6506 8.39773H32.554V16H30.1676V4.36364ZM47.2514 16.1648C46.6946 16.1648 46.1984 16.0682 45.7628 15.875C45.3272 15.678 44.9825 15.3883 44.7287 15.0057C44.4787 14.6193 44.3537 14.1383 44.3537 13.5625C44.3537 13.0777 44.4427 12.6705 44.6207 12.3409C44.7988 12.0114 45.0412 11.7462 45.348 11.5455C45.6548 11.3447 46.0033 11.1932 46.3935 11.0909C46.7874 10.9886 47.2003 10.9167 47.6321 10.875C48.1397 10.822 48.5488 10.7727 48.8594 10.7273C49.17 10.678 49.3954 10.6061 49.5355 10.5114C49.6757 10.4167 49.7457 10.2765 49.7457 10.0909V10.0568C49.7457 9.69697 49.6321 9.41856 49.4048 9.22159C49.1813 9.02462 48.8632 8.92614 48.4503 8.92614C48.0147 8.92614 47.6681 9.02273 47.4105 9.21591C47.1529 9.4053 46.9825 9.64394 46.8991 9.93182L44.6605 9.75C44.7741 9.2197 44.9976 8.76136 45.331 8.375C45.6643 7.98485 46.0942 7.68561 46.6207 7.47727C47.151 7.26515 47.7647 7.15909 48.4616 7.15909C48.9465 7.15909 49.4105 7.21591 49.8537 7.32955C50.3007 7.44318 50.6965 7.61932 51.0412 7.85795C51.3897 8.09659 51.6643 8.40341 51.8651 8.77841C52.0658 9.14962 52.1662 9.5947 52.1662 10.1136V16H49.8707V14.7898H49.8026C49.6624 15.0625 49.4749 15.303 49.2401 15.5114C49.0052 15.7159 48.723 15.8769 48.3935 15.9943C48.0639 16.108 47.6832 16.1648 47.2514 16.1648ZM47.9446 14.4943C48.3007 14.4943 48.6151 14.4242 48.8878 14.2841C49.1605 14.1402 49.3745 13.947 49.5298 13.7045C49.6851 13.4621 49.7628 13.1875 49.7628 12.8807V11.9545C49.687 12.0038 49.5829 12.0492 49.4503 12.0909C49.3215 12.1288 49.1757 12.1648 49.0128 12.1989C48.8499 12.2292 48.687 12.2576 48.5241 12.2841C48.3613 12.3068 48.2135 12.3277 48.081 12.3466C47.7969 12.3883 47.5488 12.4545 47.3366 12.5455C47.1245 12.6364 46.9598 12.7595 46.8423 12.9148C46.7249 13.0663 46.6662 13.2557 46.6662 13.483C46.6662 13.8125 46.7855 14.0644 47.0241 14.2386C47.2666 14.4091 47.5734 14.4943 47.9446 14.4943ZM54.044 19.2727V7.27273H56.4304V8.73864H56.5384C56.6444 8.50379 56.7978 8.26515 56.9986 8.02273C57.2031 7.77652 57.4683 7.57197 57.794 7.40909C58.1236 7.24242 58.5327 7.15909 59.0213 7.15909C59.6577 7.15909 60.2448 7.32576 60.7827 7.65909C61.3205 7.98864 61.7505 8.48674 62.0724 9.15341C62.3944 9.81629 62.5554 10.6477 62.5554 11.6477C62.5554 12.6212 62.3982 13.4432 62.0838 14.1136C61.7732 14.7803 61.349 15.286 60.8111 15.6307C60.277 15.9716 59.6785 16.142 59.0156 16.142C58.5459 16.142 58.1463 16.0644 57.8168 15.9091C57.491 15.7538 57.224 15.5587 57.0156 15.3239C56.8073 15.0852 56.6482 14.8447 56.5384 14.6023H56.4645V19.2727H54.044ZM56.4134 11.6364C56.4134 12.1553 56.4853 12.608 56.6293 12.9943C56.7732 13.3807 56.9815 13.6818 57.2543 13.8977C57.527 14.1098 57.8584 14.2159 58.2486 14.2159C58.6425 14.2159 58.9759 14.108 59.2486 13.892C59.5213 13.6723 59.7277 13.3693 59.8679 12.983C60.0118 12.5928 60.0838 12.1439 60.0838 11.6364C60.0838 11.1326 60.0137 10.6894 59.8736 10.3068C59.7334 9.92424 59.527 9.625 59.2543 9.40909C58.9815 9.19318 58.6463 9.08523 58.2486 9.08523C57.8546 9.08523 57.5213 9.18939 57.2486 9.39773C56.9796 9.60606 56.7732 9.90151 56.6293 10.2841C56.4853 10.6667 56.4134 11.1174 56.4134 11.6364ZM66.4815 12.8068L69.6236 7.27273H72.0099V16H69.7031V10.4489L66.5724 16H64.169V7.27273H66.4815V12.8068ZM79.0639 16V9.17045H77.4276C76.9844 9.17045 76.6473 9.27273 76.4162 9.47727C76.1851 9.68182 76.0715 9.92424 76.0753 10.2045C76.0715 10.4886 76.1813 10.7292 76.4048 10.9261C76.6321 11.1193 76.9654 11.2159 77.4048 11.2159H79.8707V12.8523H77.4048C76.6586 12.8523 76.0128 12.7386 75.4673 12.5114C74.9219 12.2841 74.5014 11.9678 74.206 11.5625C73.9105 11.1534 73.7647 10.678 73.7685 10.1364C73.7647 9.56818 73.9105 9.07008 74.206 8.64205C74.5014 8.21023 74.9238 7.875 75.473 7.63636C76.026 7.39394 76.6776 7.27273 77.4276 7.27273H81.3196V16H79.0639ZM73.5185 16L75.9446 11.4545H78.2571L75.8366 16H73.5185ZM97.642 10.1818C97.642 11.4508 97.4015 12.5303 96.9205 13.4205C96.4432 14.3106 95.7917 14.9905 94.9659 15.4602C94.1439 15.9261 93.2197 16.1591 92.1932 16.1591C91.1591 16.1591 90.2311 15.9242 89.4091 15.4545C88.5871 14.9848 87.9375 14.3049 87.4602 13.4148C86.983 12.5246 86.7443 11.447 86.7443 10.1818C86.7443 8.91288 86.983 7.83333 87.4602 6.94318C87.9375 6.05303 88.5871 5.375 89.4091 4.90909C90.2311 4.43939 91.1591 4.20455 92.1932 4.20455C93.2197 4.20455 94.1439 4.43939 94.9659 4.90909C95.7917 5.375 96.4432 6.05303 96.9205 6.94318C97.4015 7.83333 97.642 8.91288 97.642 10.1818ZM95.1477 10.1818C95.1477 9.35985 95.0246 8.66667 94.7784 8.10227C94.536 7.53788 94.1932 7.10985 93.75 6.81818C93.3068 6.52652 92.7879 6.38068 92.1932 6.38068C91.5985 6.38068 91.0795 6.52652 90.6364 6.81818C90.1932 7.10985 89.8485 7.53788 89.6023 8.10227C89.3598 8.66667 89.2386 9.35985 89.2386 10.1818C89.2386 11.0038 89.3598 11.697 89.6023 12.2614C89.8485 12.8258 90.1932 13.2538 90.6364 13.5455C91.0795 13.8371 91.5985 13.983 92.1932 13.983C92.7879 13.983 93.3068 13.8371 93.75 13.5455C94.1932 13.2538 94.536 12.8258 94.7784 12.2614C95.0246 11.697 95.1477 11.0038 95.1477 10.1818ZM106.675 4.06818L107.413 5.64773C107.167 5.85227 106.894 6.00379 106.595 6.10227C106.296 6.19697 105.938 6.25947 105.521 6.28977C105.108 6.32008 104.605 6.34091 104.01 6.35227C103.336 6.35985 102.786 6.4678 102.362 6.67614C101.938 6.88447 101.616 7.21212 101.396 7.65909C101.177 8.10227 101.033 8.68182 100.964 9.39773H101.05C101.311 8.86364 101.679 8.45076 102.152 8.15909C102.629 7.86742 103.218 7.72159 103.919 7.72159C104.661 7.72159 105.311 7.88447 105.868 8.21023C106.429 8.53598 106.864 9.00379 107.175 9.61364C107.485 10.2235 107.641 10.9545 107.641 11.8068C107.641 12.6932 107.466 13.464 107.118 14.1193C106.773 14.7708 106.283 15.2765 105.646 15.6364C105.01 15.9924 104.252 16.1705 103.374 16.1705C102.491 16.1705 101.73 15.9848 101.089 15.6136C100.453 15.2424 99.9607 14.6951 99.6122 13.9716C99.2675 13.2481 99.0952 12.358 99.0952 11.3011V10.5852C99.0952 8.48295 99.5043 6.92424 100.322 5.90909C101.141 4.89394 102.343 4.37879 103.93 4.36364C104.362 4.35606 104.752 4.35417 105.101 4.35795C105.449 4.36174 105.754 4.3447 106.016 4.30682C106.281 4.26894 106.5 4.18939 106.675 4.06818ZM103.385 14.2955C103.756 14.2955 104.074 14.1989 104.339 14.0057C104.608 13.8125 104.815 13.536 104.959 13.1761C105.107 12.8163 105.18 12.3864 105.18 11.8864C105.18 11.3902 105.107 10.9697 104.959 10.625C104.815 10.2765 104.608 10.0114 104.339 9.82955C104.071 9.64773 103.749 9.55682 103.374 9.55682C103.093 9.55682 102.841 9.60795 102.618 9.71023C102.394 9.8125 102.203 9.96401 102.044 10.1648C101.889 10.3617 101.768 10.6061 101.68 10.8977C101.597 11.1856 101.555 11.5152 101.555 11.8864C101.555 12.6326 101.716 13.2216 102.038 13.6534C102.364 14.0814 102.813 14.2955 103.385 14.2955ZM110.741 19.2727C110.435 19.2727 110.147 19.2481 109.878 19.1989C109.613 19.1534 109.393 19.0947 109.219 19.0227L109.764 17.2159C110.048 17.303 110.304 17.3504 110.531 17.358C110.762 17.3655 110.961 17.3125 111.128 17.1989C111.298 17.0852 111.437 16.892 111.543 16.6193L111.685 16.25L108.554 7.27273H111.099L112.906 13.6818H112.997L114.821 7.27273H117.384L113.991 16.9432C113.829 17.4129 113.607 17.822 113.327 18.1705C113.05 18.5227 112.7 18.7936 112.276 18.983C111.851 19.1761 111.34 19.2727 110.741 19.2727ZM120.645 7.27273L122.247 10.3239L123.889 7.27273H126.372L123.844 11.6364L126.44 16H123.969L122.247 12.983L120.554 16H118.054L120.645 11.6364L118.145 7.27273H120.645ZM131.44 16.1705C130.558 16.1705 129.795 15.983 129.151 15.608C128.51 15.2292 128.016 14.7027 127.668 14.0284C127.319 13.3504 127.145 12.5644 127.145 11.6705C127.145 10.7689 127.319 9.98106 127.668 9.30682C128.016 8.62879 128.51 8.10227 129.151 7.72727C129.795 7.34848 130.558 7.15909 131.44 7.15909C132.323 7.15909 133.084 7.34848 133.724 7.72727C134.368 8.10227 134.865 8.62879 135.213 9.30682C135.562 9.98106 135.736 10.7689 135.736 11.6705C135.736 12.5644 135.562 13.3504 135.213 14.0284C134.865 14.7027 134.368 15.2292 133.724 15.608C133.084 15.983 132.323 16.1705 131.44 16.1705ZM131.452 14.2955C131.853 14.2955 132.188 14.1818 132.457 13.9545C132.726 13.7235 132.929 13.4091 133.065 13.0114C133.205 12.6136 133.276 12.161 133.276 11.6534C133.276 11.1458 133.205 10.6932 133.065 10.2955C132.929 9.89773 132.726 9.58333 132.457 9.35227C132.188 9.12121 131.853 9.00568 131.452 9.00568C131.046 9.00568 130.705 9.12121 130.429 9.35227C130.156 9.58333 129.95 9.89773 129.81 10.2955C129.673 10.6932 129.605 11.1458 129.605 11.6534C129.605 12.161 129.673 12.6136 129.81 13.0114C129.95 13.4091 130.156 13.7235 130.429 13.9545C130.705 14.1818 131.046 14.2955 131.452 14.2955ZM137.31 16V7.27273H141.031C142.107 7.27273 142.957 7.47727 143.582 7.88636C144.207 8.29545 144.52 8.87689 144.52 9.63068C144.52 10.1042 144.344 10.4981 143.991 10.8125C143.639 11.1269 143.151 11.339 142.526 11.4489C143.048 11.4867 143.493 11.6061 143.861 11.8068C144.232 12.0038 144.514 12.2595 144.707 12.5739C144.904 12.8883 145.003 13.2367 145.003 13.6193C145.003 14.1155 144.87 14.5417 144.605 14.8977C144.344 15.2538 143.959 15.5265 143.452 15.7159C142.948 15.9053 142.332 16 141.605 16H137.31ZM139.565 14.1875H141.605C141.942 14.1875 142.205 14.108 142.395 13.9489C142.588 13.786 142.685 13.5644 142.685 13.2841C142.685 12.9735 142.588 12.7292 142.395 12.5511C142.205 12.3731 141.942 12.2841 141.605 12.2841H139.565V14.1875ZM139.565 10.8636H141.082C141.325 10.8636 141.531 10.8295 141.702 10.7614C141.876 10.6894 142.009 10.5871 142.099 10.4545C142.194 10.322 142.241 10.1648 142.241 9.98295C142.241 9.71402 142.134 9.50379 141.918 9.35227C141.702 9.20076 141.406 9.125 141.031 9.125H139.565V10.8636ZM149.017 16.1648C148.46 16.1648 147.964 16.0682 147.528 15.875C147.093 15.678 146.748 15.3883 146.494 15.0057C146.244 14.6193 146.119 14.1383 146.119 13.5625C146.119 13.0777 146.208 12.6705 146.386 12.3409C146.564 12.0114 146.807 11.7462 147.114 11.5455C147.42 11.3447 147.769 11.1932 148.159 11.0909C148.553 10.9886 148.966 10.9167 149.398 10.875C149.905 10.822 150.314 10.7727 150.625 10.7273C150.936 10.678 151.161 10.6061 151.301 10.5114C151.441 10.4167 151.511 10.2765 151.511 10.0909V10.0568C151.511 9.69697 151.398 9.41856 151.17 9.22159C150.947 9.02462 150.629 8.92614 150.216 8.92614C149.78 8.92614 149.434 9.02273 149.176 9.21591C148.919 9.4053 148.748 9.64394 148.665 9.93182L146.426 9.75C146.54 9.2197 146.763 8.76136 147.097 8.375C147.43 7.98485 147.86 7.68561 148.386 7.47727C148.917 7.26515 149.53 7.15909 150.227 7.15909C150.712 7.15909 151.176 7.21591 151.619 7.32955C152.066 7.44318 152.462 7.61932 152.807 7.85795C153.155 8.09659 153.43 8.40341 153.631 8.77841C153.831 9.14962 153.932 9.5947 153.932 10.1136V16H151.636V14.7898H151.568C151.428 15.0625 151.241 15.303 151.006 15.5114C150.771 15.7159 150.489 15.8769 150.159 15.9943C149.83 16.108 149.449 16.1648 149.017 16.1648ZM149.71 14.4943C150.066 14.4943 150.381 14.4242 150.653 14.2841C150.926 14.1402 151.14 13.947 151.295 13.7045C151.451 13.4621 151.528 13.1875 151.528 12.8807V11.9545C151.453 12.0038 151.348 12.0492 151.216 12.0909C151.087 12.1288 150.941 12.1648 150.778 12.1989C150.616 12.2292 150.453 12.2576 150.29 12.2841C150.127 12.3068 149.979 12.3277 149.847 12.3466C149.563 12.3883 149.314 12.4545 149.102 12.5455C148.89 12.6364 148.725 12.7595 148.608 12.9148C148.491 13.0663 148.432 13.2557 148.432 13.483C148.432 13.8125 148.551 14.0644 148.79 14.2386C149.032 14.4091 149.339 14.4943 149.71 14.4943Z" fill="white"/>
<path d="M1.76811 35V24.8182H5.20845C6.00722 24.8182 6.66016 24.9624 7.16726 25.2507C7.67768 25.5357 8.05552 25.9219 8.30078 26.4091C8.54605 26.8963 8.66868 27.4399 8.66868 28.0398C8.66868 28.6397 8.54605 29.1849 8.30078 29.6754C8.05883 30.166 7.6843 30.5571 7.1772 30.8487C6.6701 31.1371 6.02048 31.2812 5.22834 31.2812H2.76243V30.1875H5.18857C5.73544 30.1875 6.1746 30.093 6.50604 29.9041C6.83748 29.7152 7.07777 29.46 7.22692 29.1385C7.37938 28.8137 7.45561 28.4474 7.45561 28.0398C7.45561 27.6321 7.37938 27.2675 7.22692 26.946C7.07777 26.6245 6.83582 26.3726 6.50107 26.1903C6.16631 26.0047 5.72218 25.9119 5.16868 25.9119H3.00107V35H1.76811ZM11.2514 37.8636C11.0526 37.8636 10.8752 37.8471 10.7195 37.8139C10.5637 37.7841 10.456 37.7543 10.3963 37.7244L10.6946 36.6903C10.9796 36.7633 11.2315 36.7898 11.4503 36.7699C11.669 36.75 11.8629 36.6522 12.032 36.4766C12.2043 36.3042 12.3617 36.0241 12.5043 35.6364L12.723 35.0398L9.89915 27.3636H11.1719L13.2798 33.4489H13.3594L15.4673 27.3636H16.7401L13.4986 36.1136C13.3527 36.508 13.1721 36.8345 12.9567 37.093C12.7412 37.3549 12.491 37.5488 12.206 37.6747C11.9242 37.8007 11.6061 37.8636 11.2514 37.8636ZM18.2887 35V27.3636H19.462V30.6847H20.2376L22.9819 27.3636H24.4933L21.4109 31.0426L24.533 35H23.0217L20.516 31.7784H19.462V35H18.2887ZM28.5961 35.1591C27.9067 35.1591 27.3018 34.995 26.7814 34.6669C26.2644 34.3388 25.86 33.8797 25.5684 33.2898C25.28 32.6998 25.1358 32.0104 25.1358 31.2216C25.1358 30.4261 25.28 29.7318 25.5684 29.1385C25.86 28.5452 26.2644 28.0845 26.7814 27.7564C27.3018 27.4283 27.9067 27.2642 28.5961 27.2642C29.2855 27.2642 29.8887 27.4283 30.4057 27.7564C30.9261 28.0845 31.3304 28.5452 31.6188 29.1385C31.9105 29.7318 32.0563 30.4261 32.0563 31.2216C32.0563 32.0104 31.9105 32.6998 31.6188 33.2898C31.3304 33.8797 30.9261 34.3388 30.4057 34.6669C29.8887 34.995 29.2855 35.1591 28.5961 35.1591ZM28.5961 34.1051C29.1197 34.1051 29.5506 33.9709 29.8887 33.7024C30.2267 33.4339 30.477 33.081 30.6394 32.6435C30.8018 32.206 30.883 31.732 30.883 31.2216C30.883 30.7112 30.8018 30.2356 30.6394 29.7947C30.477 29.3539 30.2267 28.9976 29.8887 28.7259C29.5506 28.4541 29.1197 28.3182 28.5961 28.3182C28.0724 28.3182 27.6415 28.4541 27.3034 28.7259C26.9654 28.9976 26.7151 29.3539 26.5527 29.7947C26.3903 30.2356 26.3091 30.7112 26.3091 31.2216C26.3091 31.732 26.3903 32.206 26.5527 32.6435C26.7151 33.081 26.9654 33.4339 27.3034 33.7024C27.6415 33.9709 28.0724 34.1051 28.5961 34.1051ZM33.8473 35V27.3636H36.9695C37.7914 27.3636 38.4444 27.5492 38.9283 27.9205C39.4122 28.2917 39.6541 28.7822 39.6541 29.392C39.6541 29.8561 39.5166 30.2157 39.2415 30.4709C38.9664 30.7228 38.6134 30.8935 38.1825 30.983C38.4643 31.0227 38.7377 31.1222 39.0028 31.2812C39.2713 31.4403 39.4934 31.6591 39.669 31.9375C39.8447 32.2126 39.9325 32.5507 39.9325 32.9517C39.9325 33.3428 39.8331 33.6925 39.6342 34.0007C39.4354 34.3089 39.1503 34.5526 38.7791 34.7315C38.4079 34.9105 37.9638 35 37.4467 35H33.8473ZM34.9609 33.9261H37.4467C37.8511 33.9261 38.1676 33.83 38.3963 33.6378C38.625 33.4455 38.7393 33.1837 38.7393 32.8523C38.7393 32.4579 38.625 32.148 38.3963 31.9226C38.1676 31.6939 37.8511 31.5795 37.4467 31.5795H34.9609V33.9261ZM34.9609 30.5653H36.9695C37.2843 30.5653 37.5545 30.5223 37.7798 30.4361C38.0052 30.3466 38.1776 30.2206 38.2969 30.0582C38.4195 29.8925 38.4808 29.697 38.4808 29.4716C38.4808 29.1501 38.3466 28.8982 38.0781 28.7159C37.8097 28.5303 37.4401 28.4375 36.9695 28.4375H34.9609V30.5653ZM44.8109 35.1591C44.1215 35.1591 43.5166 34.995 42.9963 34.6669C42.4792 34.3388 42.0749 33.8797 41.7832 33.2898C41.4949 32.6998 41.3507 32.0104 41.3507 31.2216C41.3507 30.4261 41.4949 29.7318 41.7832 29.1385C42.0749 28.5452 42.4792 28.0845 42.9963 27.7564C43.5166 27.4283 44.1215 27.2642 44.8109 27.2642C45.5003 27.2642 46.1035 27.4283 46.6206 27.7564C47.1409 28.0845 47.5453 28.5452 47.8336 29.1385C48.1253 29.7318 48.2711 30.4261 48.2711 31.2216C48.2711 32.0104 48.1253 32.6998 47.8336 33.2898C47.5453 33.8797 47.1409 34.3388 46.6206 34.6669C46.1035 34.995 45.5003 35.1591 44.8109 35.1591ZM44.8109 34.1051C45.3346 34.1051 45.7654 33.9709 46.1035 33.7024C46.4416 33.4339 46.6918 33.081 46.8542 32.6435C47.0166 32.206 47.0978 31.732 47.0978 31.2216C47.0978 30.7112 47.0166 30.2356 46.8542 29.7947C46.6918 29.3539 46.4416 28.9976 46.1035 28.7259C45.7654 28.4541 45.3346 28.3182 44.8109 28.3182C44.2872 28.3182 43.8564 28.4541 43.5183 28.7259C43.1802 28.9976 42.93 29.3539 42.7676 29.7947C42.6052 30.2356 42.524 30.7112 42.524 31.2216C42.524 31.732 42.6052 32.206 42.7676 32.6435C42.93 33.081 43.1802 33.4339 43.5183 33.7024C43.8564 33.9709 44.2872 34.1051 44.8109 34.1051ZM49.2468 37.1875V33.9062H49.8832C50.0389 33.7438 50.1732 33.5682 50.2859 33.3793C50.3986 33.1903 50.4963 32.9666 50.5792 32.7081C50.6654 32.4463 50.7383 32.1281 50.7979 31.7536C50.8576 31.3757 50.9106 30.92 50.957 30.3864L51.2156 27.3636H56.0678V33.9062H57.2411V37.1875H56.0678V35H50.4201V37.1875H49.2468ZM51.2156 33.9062H54.8945V28.4574H52.3093L52.1104 30.3864C52.0276 31.1851 51.9248 31.8828 51.8022 32.4794C51.6796 33.076 51.484 33.5516 51.2156 33.9062ZM59.9718 33.2699L63.6507 27.3636H65.003V35H63.8297V29.0938L60.1706 35H58.7985V27.3636H59.9718V33.2699ZM66.1129 28.4574V27.3636H72.3175V28.4574H69.8118V35H68.6385V28.4574H66.1129ZM76.8342 35.1591C76.0984 35.1591 75.4637 34.9967 74.93 34.6719C74.3997 34.3438 73.9904 33.8864 73.7021 33.2997C73.417 32.7098 73.2745 32.0237 73.2745 31.2415C73.2745 30.4593 73.417 29.7699 73.7021 29.1733C73.9904 28.5734 74.3915 28.1061 74.9052 27.7713C75.4222 27.4332 76.0254 27.2642 76.7148 27.2642C77.1126 27.2642 77.5053 27.3305 77.8931 27.4631C78.2809 27.5956 78.6339 27.8111 78.9521 28.1094C79.2702 28.4044 79.5238 28.7955 79.7127 29.2827C79.9016 29.7699 79.9961 30.3698 79.9961 31.0824V31.5795H74.1097V30.5653H78.8029C78.8029 30.1345 78.7167 29.75 78.5444 29.4119C78.3754 29.0739 78.1334 28.8071 77.8185 28.6115C77.507 28.416 77.1391 28.3182 76.7148 28.3182C76.2475 28.3182 75.8432 28.4342 75.5018 28.6662C75.1637 28.8949 74.9035 29.1932 74.7212 29.5611C74.5389 29.929 74.4478 30.3234 74.4478 30.7443V31.4205C74.4478 31.9972 74.5472 32.486 74.7461 32.8871C74.9483 33.2848 75.2283 33.5881 75.5863 33.7969C75.9442 34.0024 76.3602 34.1051 76.8342 34.1051C77.1424 34.1051 77.4208 34.062 77.6694 33.9759C77.9213 33.8864 78.1384 33.7538 78.3207 33.5781C78.503 33.3991 78.6438 33.1771 78.7433 32.9119L79.8768 33.2301C79.7575 33.6146 79.5569 33.9527 79.2752 34.2443C78.9935 34.5327 78.6455 34.758 78.2312 34.9205C77.8169 35.0795 77.3512 35.1591 76.8342 35.1591ZM81.1048 35V33.9062H81.3832C81.6119 33.9062 81.8024 33.8615 81.9549 33.772C82.1074 33.6792 82.23 33.5185 82.3228 33.2898C82.4189 33.0578 82.4918 32.7363 82.5415 32.3253C82.5946 31.911 82.6327 31.384 82.6559 30.7443L82.7951 27.3636H87.886V35H86.7127V28.4574H83.9087L83.7894 31.1818C83.7629 31.8082 83.7066 32.3601 83.6204 32.8374C83.5375 33.3113 83.4099 33.709 83.2376 34.0305C83.0685 34.352 82.8432 34.594 82.5614 34.7564C82.2797 34.9188 81.9267 35 81.5025 35H81.1048ZM91.0529 30.1278H93.2404C94.1353 30.1278 94.8197 30.3549 95.2937 30.8089C95.7676 31.263 96.0046 31.8381 96.0046 32.5341C96.0046 32.9915 95.8986 33.4074 95.6864 33.782C95.4743 34.1532 95.1628 34.4498 94.7518 34.6719C94.3408 34.8906 93.837 35 93.2404 35H90.0387V27.3636H91.212V33.9062H93.2404C93.7044 33.9062 94.0856 33.7836 94.3839 33.5384C94.6822 33.2931 94.8313 32.9782 94.8313 32.5938C94.8313 32.1894 94.6822 31.8596 94.3839 31.6044C94.0856 31.3492 93.7044 31.2216 93.2404 31.2216H91.0529V30.1278ZM104.83 37.6051V24.8182H106.004V37.6051H104.83ZM104.83 35.1591C104.313 35.1591 103.843 35.0663 103.419 34.8807C102.994 34.6918 102.63 34.425 102.325 34.0803C102.02 33.7322 101.785 33.3163 101.619 32.8324C101.453 32.3485 101.37 31.8116 101.37 31.2216C101.37 30.625 101.453 30.0848 101.619 29.6009C101.785 29.1136 102.02 28.696 102.325 28.348C102.63 28 102.994 27.7332 103.419 27.5476C103.843 27.3587 104.313 27.2642 104.83 27.2642H105.188V35.1591H104.83ZM104.83 34.1051H105.029V28.3182H104.83C104.439 28.3182 104.1 28.3977 103.811 28.5568C103.523 28.7126 103.284 28.9264 103.095 29.1982C102.91 29.4666 102.771 29.7749 102.678 30.1229C102.588 30.4709 102.544 30.8371 102.544 31.2216C102.544 31.732 102.625 32.206 102.787 32.6435C102.95 33.081 103.2 33.4339 103.538 33.7024C103.876 33.9709 104.307 34.1051 104.83 34.1051ZM106.004 35.1591H105.646V27.2642H106.004C106.521 27.2642 106.991 27.3587 107.416 27.5476C107.84 27.7332 108.204 28 108.509 28.348C108.814 28.696 109.05 29.1136 109.215 29.6009C109.381 30.0848 109.464 30.625 109.464 31.2216C109.464 31.8116 109.381 32.3485 109.215 32.8324C109.05 33.3163 108.814 33.7322 108.509 34.0803C108.204 34.425 107.84 34.6918 107.416 34.8807C106.991 35.0663 106.521 35.1591 106.004 35.1591ZM106.004 34.1051C106.398 34.1051 106.738 34.0289 107.023 33.8764C107.311 33.7206 107.548 33.5085 107.734 33.2401C107.923 32.9683 108.062 32.66 108.151 32.3153C108.244 31.9673 108.291 31.6027 108.291 31.2216C108.291 30.7112 108.209 30.2356 108.047 29.7947C107.885 29.3539 107.634 28.9976 107.296 28.7259C106.958 28.4541 106.527 28.3182 106.004 28.3182H105.805V34.1051H106.004ZM112.431 33.2699L116.11 27.3636H117.462V35H116.289V29.0938L112.63 35H111.257V27.3636H112.431V33.2699ZM124.722 30.6449V31.7386H120.506V30.6449H124.722ZM120.784 27.3636V35H119.611V27.3636H120.784ZM125.617 27.3636V35H124.443V27.3636H125.617ZM130.007 35.179C129.523 35.179 129.084 35.0878 128.689 34.9055C128.295 34.7199 127.981 34.4531 127.749 34.1051C127.517 33.7538 127.401 33.3295 127.401 32.8324C127.401 32.3949 127.488 32.0402 127.66 31.7685C127.832 31.4934 128.063 31.2779 128.351 31.1222C128.639 30.9664 128.958 30.8504 129.306 30.7741C129.657 30.6946 130.01 30.6316 130.365 30.5852C130.829 30.5256 131.205 30.4808 131.493 30.451C131.785 30.4179 131.997 30.3632 132.129 30.2869C132.265 30.2107 132.333 30.0781 132.333 29.8892V29.8494C132.333 29.3589 132.199 28.9777 131.931 28.706C131.665 28.4342 131.263 28.2983 130.722 28.2983C130.162 28.2983 129.723 28.4209 129.405 28.6662C129.087 28.9115 128.863 29.1733 128.734 29.4517L127.62 29.054C127.819 28.59 128.084 28.2287 128.416 27.9702C128.75 27.7083 129.115 27.526 129.509 27.4233C129.907 27.3172 130.298 27.2642 130.683 27.2642C130.928 27.2642 131.21 27.294 131.528 27.3537C131.849 27.41 132.159 27.5277 132.458 27.7067C132.759 27.8857 133.009 28.1558 133.208 28.517C133.407 28.8783 133.507 29.3622 133.507 29.9688V35H132.333V33.9659H132.274C132.194 34.1316 132.061 34.3089 131.876 34.4979C131.69 34.6868 131.443 34.8475 131.135 34.9801C130.827 35.1127 130.451 35.179 130.007 35.179ZM130.186 34.125C130.65 34.125 131.041 34.0339 131.359 33.8516C131.68 33.6693 131.922 33.4339 132.085 33.1456C132.25 32.8572 132.333 32.554 132.333 32.2358V31.1619C132.284 31.2216 132.174 31.2763 132.005 31.326C131.839 31.3724 131.647 31.4138 131.428 31.4503C131.213 31.4834 131.003 31.5133 130.797 31.5398C130.595 31.563 130.431 31.5829 130.305 31.5994C130 31.6392 129.715 31.7038 129.45 31.7933C129.188 31.8795 128.976 32.0104 128.813 32.1861C128.654 32.3584 128.575 32.5937 128.575 32.892C128.575 33.2997 128.726 33.608 129.027 33.8168C129.332 34.0223 129.718 34.125 130.186 34.125ZM140.759 30.6449V31.7386H136.543V30.6449H140.759ZM136.821 27.3636V35H135.648V27.3636H136.821ZM141.654 27.3636V35H140.48V27.3636H141.654ZM146.899 35.1591C146.183 35.1591 145.566 34.9901 145.049 34.652C144.532 34.3139 144.135 33.8482 143.856 33.255C143.578 32.6617 143.439 31.9839 143.439 31.2216C143.439 30.446 143.581 29.7616 143.866 29.1683C144.154 28.5717 144.556 28.1061 145.069 27.7713C145.586 27.4332 146.19 27.2642 146.879 27.2642C147.416 27.2642 147.9 27.3636 148.331 27.5625C148.761 27.7614 149.114 28.0398 149.39 28.3977C149.665 28.7557 149.835 29.1733 149.902 29.6506H148.728C148.639 29.3026 148.44 28.9943 148.132 28.7259C147.827 28.4541 147.416 28.3182 146.899 28.3182C146.441 28.3182 146.04 28.4375 145.696 28.6761C145.354 28.9115 145.087 29.2446 144.895 29.6754C144.706 30.103 144.612 30.6051 144.612 31.1818C144.612 31.7718 144.705 32.2855 144.89 32.723C145.079 33.1605 145.344 33.5002 145.686 33.7422C146.03 33.9841 146.435 34.1051 146.899 34.1051C147.204 34.1051 147.48 34.0521 147.729 33.946C147.978 33.84 148.188 33.6875 148.36 33.4886C148.533 33.2898 148.655 33.0511 148.728 32.7727H149.902C149.835 33.2235 149.671 33.6295 149.409 33.9908C149.151 34.3487 148.808 34.6338 148.38 34.8459C147.956 35.0547 147.462 35.1591 146.899 35.1591ZM154.719 35.1591C154.03 35.1591 153.425 34.995 152.904 34.6669C152.387 34.3388 151.983 33.8797 151.691 33.2898C151.403 32.6998 151.259 32.0104 151.259 31.2216C151.259 30.4261 151.403 29.7318 151.691 29.1385C151.983 28.5452 152.387 28.0845 152.904 27.7564C153.425 27.4283 154.03 27.2642 154.719 27.2642C155.408 27.2642 156.012 27.4283 156.529 27.7564C157.049 28.0845 157.453 28.5452 157.742 29.1385C158.033 29.7318 158.179 30.4261 158.179 31.2216C158.179 32.0104 158.033 32.6998 157.742 33.2898C157.453 33.8797 157.049 34.3388 156.529 34.6669C156.012 34.995 155.408 35.1591 154.719 35.1591ZM154.719 34.1051C155.243 34.1051 155.674 33.9709 156.012 33.7024C156.35 33.4339 156.6 33.081 156.762 32.6435C156.925 32.206 157.006 31.732 157.006 31.2216C157.006 30.7112 156.925 30.2356 156.762 29.7947C156.6 29.3539 156.35 28.9976 156.012 28.7259C155.674 28.4541 155.243 28.3182 154.719 28.3182C154.195 28.3182 153.765 28.4541 153.426 28.7259C153.088 28.9976 152.838 29.3539 152.676 29.7947C152.513 30.2356 152.432 30.7112 152.432 31.2216C152.432 31.732 152.513 32.206 152.676 32.6435C152.838 33.081 153.088 33.4339 153.426 33.7024C153.765 33.9709 154.195 34.1051 154.719 34.1051ZM159.97 35V27.3636H163.093C163.914 27.3636 164.567 27.5492 165.051 27.9205C165.535 28.2917 165.777 28.7822 165.777 29.392C165.777 29.8561 165.64 30.2157 165.365 30.4709C165.089 30.7228 164.736 30.8935 164.306 30.983C164.587 31.0227 164.861 31.1222 165.126 31.2812C165.394 31.4403 165.616 31.6591 165.792 31.9375C165.968 32.2126 166.056 32.5507 166.056 32.9517C166.056 33.3428 165.956 33.6925 165.757 34.0007C165.558 34.3089 165.273 34.5526 164.902 34.7315C164.531 34.9105 164.087 35 163.57 35H159.97ZM161.084 33.9261H163.57C163.974 33.9261 164.291 33.83 164.519 33.6378C164.748 33.4455 164.862 33.1837 164.862 32.8523C164.862 32.4579 164.748 32.148 164.519 31.9226C164.291 31.6939 163.974 31.5795 163.57 31.5795H161.084V33.9261ZM161.084 30.5653H163.093C163.407 30.5653 163.677 30.5223 163.903 30.4361C164.128 30.3466 164.301 30.2206 164.42 30.0582C164.543 29.8925 164.604 29.697 164.604 29.4716C164.604 29.1501 164.47 28.8982 164.201 28.7159C163.933 28.5303 163.563 28.4375 163.093 28.4375H161.084V30.5653ZM170.934 35.1591C170.245 35.1591 169.64 34.995 169.119 34.6669C168.602 34.3388 168.198 33.8797 167.906 33.2898C167.618 32.6998 167.474 32.0104 167.474 31.2216C167.474 30.4261 167.618 29.7318 167.906 29.1385C168.198 28.5452 168.602 28.0845 169.119 27.7564C169.64 27.4283 170.245 27.2642 170.934 27.2642C171.623 27.2642 172.227 27.4283 172.744 27.7564C173.264 28.0845 173.668 28.5452 173.957 29.1385C174.248 29.7318 174.394 30.4261 174.394 31.2216C174.394 32.0104 174.248 32.6998 173.957 33.2898C173.668 33.8797 173.264 34.3388 172.744 34.6669C172.227 34.995 171.623 35.1591 170.934 35.1591ZM170.934 34.1051C171.458 34.1051 171.888 33.9709 172.227 33.7024C172.565 33.4339 172.815 33.081 172.977 32.6435C173.14 32.206 173.221 31.732 173.221 31.2216C173.221 30.7112 173.14 30.2356 172.977 29.7947C172.815 29.3539 172.565 28.9976 172.227 28.7259C171.888 28.4541 171.458 28.3182 170.934 28.3182C170.41 28.3182 169.979 28.4541 169.641 28.7259C169.303 28.9976 169.053 29.3539 168.891 29.7947C168.728 30.2356 168.647 30.7112 168.647 31.2216C168.647 31.732 168.728 32.206 168.891 32.6435C169.053 33.081 169.303 33.4339 169.641 33.7024C169.979 33.9709 170.41 34.1051 170.934 34.1051ZM177.358 33.2699L181.037 27.3636H182.39V35H181.216V29.0938L177.557 35H176.185V27.3636H177.358V33.2699ZM180.262 24.8182H181.356C181.356 25.3551 181.17 25.7943 180.799 26.1357C180.428 26.477 179.924 26.6477 179.287 26.6477C178.661 26.6477 178.162 26.477 177.791 26.1357C177.423 25.7943 177.239 25.3551 177.239 24.8182H178.333C178.333 25.0767 178.404 25.3037 178.547 25.4993C178.693 25.6948 178.939 25.7926 179.287 25.7926C179.635 25.7926 179.884 25.6948 180.033 25.4993C180.186 25.3037 180.262 25.0767 180.262 24.8182ZM69.2084 55.1591C68.4925 55.1591 67.876 54.9901 67.3589 54.652C66.8419 54.3139 66.4442 53.8482 66.1657 53.255C65.8873 52.6617 65.7481 51.9839 65.7481 51.2216C65.7481 50.446 65.8907 49.7616 66.1757 49.1683C66.464 48.5717 66.8651 48.1061 67.3788 47.7713C67.8959 47.4332 68.4991 47.2642 69.1885 47.2642C69.7254 47.2642 70.2093 47.3636 70.6402 47.5625C71.0711 47.7614 71.424 48.0398 71.6991 48.3977C71.9742 48.7557 72.1449 49.1733 72.2112 49.6506H71.0379C70.9484 49.3026 70.7496 48.9943 70.4413 48.7259C70.1364 48.4541 69.7254 48.3182 69.2084 48.3182C68.751 48.3182 68.3499 48.4375 68.0052 48.6761C67.6639 48.9115 67.397 49.2446 67.2048 49.6754C67.0159 50.103 66.9214 50.6051 66.9214 51.1818C66.9214 51.7718 67.0142 52.2855 67.1998 52.723C67.3888 53.1605 67.6539 53.5002 67.9953 53.7422C68.34 53.9841 68.7443 54.1051 69.2084 54.1051C69.5133 54.1051 69.79 54.0521 70.0386 53.946C70.2872 53.84 70.4977 53.6875 70.67 53.4886C70.8424 53.2898 70.965 53.0511 71.0379 52.7727H72.2112C72.1449 53.2235 71.9809 53.6295 71.719 53.9908C71.4605 54.3487 71.1175 54.6338 70.6899 54.8459C70.2657 55.0547 69.7718 55.1591 69.2084 55.1591ZM73.2503 55V53.9062H73.5287C73.7574 53.9062 73.9479 53.8615 74.1004 53.772C74.2529 53.6792 74.3755 53.5185 74.4683 53.2898C74.5644 53.0578 74.6373 52.7363 74.6871 52.3253C74.7401 51.911 74.7782 51.384 74.8014 50.7443L74.9406 47.3636H80.0315V55H78.8582V48.4574H76.0542L75.9349 51.1818C75.9084 51.8082 75.8521 52.3601 75.7659 52.8374C75.683 53.3113 75.5554 53.709 75.3831 54.0305C75.214 54.352 74.9887 54.594 74.7069 54.7564C74.4252 54.9188 74.0722 55 73.648 55H73.2503ZM82.6665 57.8636C82.4676 57.8636 82.2903 57.8471 82.1345 57.8139C81.9787 57.7841 81.871 57.7543 81.8113 57.7244L82.1096 56.6903C82.3947 56.7633 82.6466 56.7898 82.8653 56.7699C83.0841 56.75 83.278 56.6522 83.447 56.4766C83.6193 56.3042 83.7768 56.0241 83.9193 55.6364L84.1381 55.0398L81.3142 47.3636H82.5869L84.6949 53.4489H84.7744L86.8824 47.3636H88.1551L84.9136 56.1136C84.7678 56.508 84.5872 56.8345 84.3717 57.093C84.1563 57.3549 83.906 57.5488 83.621 57.6747C83.3393 57.8007 83.0211 57.8636 82.6665 57.8636ZM89.2265 55L92.3287 51.1222L89.2662 47.3636H90.6583L93.2037 50.625H93.8401V47.3636H95.0134V50.625H95.6299L98.1753 47.3636H99.5674L96.5248 51.1222L99.6072 55H98.1952L95.61 51.7188H95.0134V55H93.8401V51.7188H93.2435L90.6384 55H89.2265ZM106.951 44.5L107.548 45.2159C107.316 45.4413 107.048 45.5987 106.743 45.6882C106.438 45.7777 106.093 45.8324 105.709 45.8523C105.324 45.8722 104.897 45.892 104.426 45.9119C103.896 45.9318 103.456 46.0611 103.108 46.2997C102.76 46.5384 102.492 46.883 102.303 47.3338C102.114 47.7846 101.993 48.3381 101.94 48.9943H102.04C102.298 48.517 102.656 48.1657 103.113 47.9403C103.571 47.715 104.061 47.6023 104.585 47.6023C105.182 47.6023 105.718 47.7415 106.196 48.0199C106.673 48.2983 107.051 48.7109 107.329 49.2578C107.608 49.8047 107.747 50.4792 107.747 51.2812C107.747 52.08 107.604 52.7694 107.319 53.3494C107.038 53.9295 106.642 54.3769 106.131 54.6918C105.624 55.0033 105.029 55.1591 104.346 55.1591C103.664 55.1591 103.065 54.9983 102.552 54.6768C102.038 54.352 101.638 53.8714 101.353 53.2351C101.068 52.5954 100.926 51.8049 100.926 50.8636V50.0483C100.926 48.348 101.214 47.0587 101.791 46.1804C102.371 45.3021 103.243 44.848 104.406 44.8182C104.817 44.8049 105.183 44.8016 105.505 44.8082C105.826 44.8149 106.106 44.8 106.345 44.7635C106.584 44.727 106.786 44.6392 106.951 44.5ZM104.346 54.1051C104.807 54.1051 105.203 53.9891 105.535 53.7571C105.869 53.5251 106.126 53.1986 106.305 52.7777C106.484 52.3535 106.574 51.8546 106.574 51.2812C106.574 50.7244 106.482 50.2505 106.3 49.8594C106.121 49.4683 105.864 49.17 105.53 48.9645C105.195 48.759 104.794 48.6562 104.326 48.6562C103.985 48.6562 103.678 48.7143 103.407 48.8303C103.135 48.9463 102.903 49.117 102.711 49.3423C102.518 49.5677 102.369 49.8428 102.263 50.1676C102.16 50.4924 102.106 50.8636 102.099 51.2812C102.099 52.1364 102.3 52.8208 102.701 53.3345C103.102 53.8482 103.65 54.1051 104.346 54.1051ZM110.556 50.1278H112.743C113.638 50.1278 114.323 50.3549 114.797 50.8089C115.271 51.263 115.508 51.8381 115.508 52.5341C115.508 52.9915 115.401 53.4074 115.189 53.782C114.977 54.1532 114.666 54.4498 114.255 54.6719C113.844 54.8906 113.34 55 112.743 55H109.542V47.3636H110.715V53.9062H112.743C113.207 53.9062 113.589 53.7836 113.887 53.5384C114.185 53.2931 114.334 52.9782 114.334 52.5938C114.334 52.1894 114.185 51.8596 113.887 51.6044C113.589 51.3492 113.207 51.2216 112.743 51.2216H110.556V50.1278ZM116.721 55V47.3636H117.894V55H116.721Z" fill="white"/>
</svg>
