<svg width="122" height="40" viewBox="0 0 122 40" fill="none" xmlns="http://www.w3.org/2000/svg">
<path d="M12.0795 10.1818C12.0795 11.4508 11.839 12.5303 11.358 13.4205C10.8807 14.3106 10.2292 14.9905 9.40341 15.4602C8.58144 15.9261 7.6572 16.1591 6.63068 16.1591C5.59659 16.1591 4.66856 15.9242 3.84659 15.4545C3.02462 14.9848 2.375 14.3049 1.89773 13.4148C1.42045 12.5246 1.18182 11.447 1.18182 10.1818C1.18182 8.91288 1.42045 7.83333 1.89773 6.94318C2.375 6.05303 3.02462 5.375 3.84659 4.90909C4.66856 4.43939 5.59659 4.20455 6.63068 4.20455C7.6572 4.20455 8.58144 4.43939 9.40341 4.90909C10.2292 5.375 10.8807 6.05303 11.358 6.94318C11.839 7.83333 12.0795 8.91288 12.0795 10.1818ZM9.58523 10.1818C9.58523 9.35985 9.46212 8.66667 9.21591 8.10227C8.97348 7.53788 8.63068 7.10985 8.1875 6.81818C7.74432 6.52652 7.22538 6.38068 6.63068 6.38068C6.03598 6.38068 5.51705 6.52652 5.07386 6.81818C4.63068 7.10985 4.28598 7.53788 4.03977 8.10227C3.79735 8.66667 3.67614 9.35985 3.67614 10.1818C3.67614 11.0038 3.79735 11.697 4.03977 12.2614C4.28598 12.8258 4.63068 13.2538 5.07386 13.5455C5.51705 13.8371 6.03598 13.983 6.63068 13.983C7.22538 13.983 7.74432 13.8371 8.1875 13.5455C8.63068 13.2538 8.97348 12.8258 9.21591 12.2614C9.46212 11.697 9.58523 11.0038 9.58523 10.1818ZM13.3452 16L13.3338 14.0795H13.6236C13.8281 14.0795 14.0043 14.0303 14.152 13.9318C14.3035 13.8295 14.4285 13.6648 14.527 13.4375C14.6255 13.2102 14.7031 12.9091 14.7599 12.5341C14.8168 12.1553 14.8546 11.6894 14.8736 11.1364L15.0156 7.27273H21.652V16H19.3452V9.17614H17.1918L17.0554 11.8409C17.0213 12.572 16.9323 13.2008 16.7884 13.7273C16.6482 14.2538 16.4531 14.6856 16.2031 15.0227C15.9531 15.3561 15.652 15.6023 15.2997 15.7614C14.9474 15.9205 14.5384 16 14.0724 16H13.3452ZM27.5057 16.1705C26.608 16.1705 25.8352 15.9886 25.1875 15.625C24.5436 15.2576 24.0473 14.7386 23.6989 14.0682C23.3504 13.3939 23.1761 12.5966 23.1761 11.6761C23.1761 10.7784 23.3504 9.99053 23.6989 9.3125C24.0473 8.63447 24.5379 8.10606 25.1705 7.72727C25.8068 7.34848 26.553 7.15909 27.4091 7.15909C27.9848 7.15909 28.5208 7.25189 29.017 7.4375C29.517 7.61932 29.9527 7.89394 30.3239 8.26136C30.6989 8.62879 30.9905 9.09091 31.1989 9.64773C31.4072 10.2008 31.5114 10.8485 31.5114 11.5909V12.2557H24.142V10.7557H29.233C29.233 10.4072 29.1572 10.0985 29.0057 9.82955C28.8542 9.56061 28.6439 9.35038 28.375 9.19886C28.1098 9.04356 27.8011 8.96591 27.4489 8.96591C27.0814 8.96591 26.7557 9.05114 26.4716 9.22159C26.1913 9.38826 25.9716 9.61364 25.8125 9.89773C25.6534 10.178 25.572 10.4905 25.5682 10.8352V12.2614C25.5682 12.6932 25.6477 13.0663 25.8068 13.3807C25.9697 13.6951 26.1989 13.9375 26.4943 14.108C26.7898 14.2784 27.1402 14.3636 27.5455 14.3636C27.8144 14.3636 28.0606 14.3258 28.2841 14.25C28.5076 14.1742 28.6989 14.0606 28.858 13.9091C29.017 13.7576 29.1383 13.572 29.2216 13.3523L31.4602 13.5C31.3466 14.0379 31.1136 14.5076 30.7614 14.9091C30.4129 15.3068 29.9621 15.6174 29.4091 15.8409C28.8598 16.0606 28.2254 16.1705 27.5057 16.1705ZM39.0682 7.27273V9.17614H35.4432V16H33.0909V7.27273H39.0682ZM44.2926 16V4.36364H48.9517C49.8078 4.36364 50.5218 4.49053 51.0938 4.74432C51.6657 4.99811 52.0956 5.35038 52.3835 5.80114C52.6714 6.24811 52.8153 6.76326 52.8153 7.34659C52.8153 7.80114 52.7244 8.20076 52.5426 8.54545C52.3608 8.88636 52.1108 9.16667 51.7926 9.38636C51.4782 9.60227 51.1184 9.75568 50.7131 9.84659V9.96023C51.1563 9.97917 51.571 10.1042 51.9574 10.3352C52.3475 10.5663 52.6638 10.8902 52.9062 11.3068C53.1487 11.7197 53.2699 12.2121 53.2699 12.7841C53.2699 13.4015 53.1165 13.9527 52.8097 14.4375C52.5066 14.9186 52.0578 15.2992 51.4631 15.5795C50.8684 15.8598 50.1354 16 49.2642 16H44.2926ZM46.7528 13.9886H48.7585C49.4441 13.9886 49.9441 13.858 50.2585 13.5966C50.5729 13.3314 50.7301 12.9792 50.7301 12.5398C50.7301 12.2178 50.6525 11.9337 50.4972 11.6875C50.3419 11.4413 50.1203 11.2481 49.8324 11.108C49.5483 10.9678 49.2093 10.8977 48.8153 10.8977H46.7528V13.9886ZM46.7528 9.23295H48.5767C48.9138 9.23295 49.2131 9.17424 49.4744 9.05682C49.7396 8.93561 49.9479 8.76515 50.0994 8.54545C50.2547 8.32576 50.3324 8.0625 50.3324 7.75568C50.3324 7.33523 50.1828 6.99621 49.8835 6.73864C49.5881 6.48106 49.1676 6.35227 48.6222 6.35227H46.7528V9.23295ZM58.7685 16.1705C57.8859 16.1705 57.1226 15.983 56.4787 15.608C55.8385 15.2292 55.3442 14.7027 54.9957 14.0284C54.6473 13.3504 54.473 12.5644 54.473 11.6705C54.473 10.7689 54.6473 9.98106 54.9957 9.30682C55.3442 8.62879 55.8385 8.10227 56.4787 7.72727C57.1226 7.34848 57.8859 7.15909 58.7685 7.15909C59.651 7.15909 60.4124 7.34848 61.0526 7.72727C61.6965 8.10227 62.1927 8.62879 62.5412 9.30682C62.8897 9.98106 63.0639 10.7689 63.0639 11.6705C63.0639 12.5644 62.8897 13.3504 62.5412 14.0284C62.1927 14.7027 61.6965 15.2292 61.0526 15.608C60.4124 15.983 59.651 16.1705 58.7685 16.1705ZM58.7798 14.2955C59.1813 14.2955 59.5166 14.1818 59.7855 13.9545C60.0545 13.7235 60.2571 13.4091 60.3935 13.0114C60.5336 12.6136 60.6037 12.161 60.6037 11.6534C60.6037 11.1458 60.5336 10.6932 60.3935 10.2955C60.2571 9.89773 60.0545 9.58333 59.7855 9.35227C59.5166 9.12121 59.1813 9.00568 58.7798 9.00568C58.3745 9.00568 58.0336 9.12121 57.7571 9.35227C57.4844 9.58333 57.2779 9.89773 57.1378 10.2955C57.0014 10.6932 56.9332 11.1458 56.9332 11.6534C56.9332 12.161 57.0014 12.6136 57.1378 13.0114C57.2779 13.4091 57.4844 13.7235 57.7571 13.9545C58.0336 14.1818 58.3745 14.2955 58.7798 14.2955ZM64.6378 19.2727V7.27273H67.0241V8.73864H67.1321C67.2382 8.50379 67.3916 8.26515 67.5923 8.02273C67.7969 7.77652 68.062 7.57197 68.3878 7.40909C68.7173 7.24242 69.1264 7.15909 69.6151 7.15909C70.2514 7.15909 70.8385 7.32576 71.3764 7.65909C71.9143 7.98864 72.3442 8.48674 72.6662 9.15341C72.9882 9.81629 73.1491 10.6477 73.1491 11.6477C73.1491 12.6212 72.992 13.4432 72.6776 14.1136C72.367 14.7803 71.9427 15.286 71.4048 15.6307C70.8707 15.9716 70.2723 16.142 69.6094 16.142C69.1397 16.142 68.7401 16.0644 68.4105 15.9091C68.0848 15.7538 67.8177 15.5587 67.6094 15.3239C67.401 15.0852 67.242 14.8447 67.1321 14.6023H67.0582V19.2727H64.6378ZM67.0071 11.6364C67.0071 12.1553 67.0791 12.608 67.223 12.9943C67.367 13.3807 67.5753 13.6818 67.848 13.8977C68.1207 14.1098 68.4522 14.2159 68.8423 14.2159C69.2363 14.2159 69.5696 14.108 69.8423 13.892C70.1151 13.6723 70.3215 13.3693 70.4616 12.983C70.6056 12.5928 70.6776 12.1439 70.6776 11.6364C70.6776 11.1326 70.6075 10.6894 70.4673 10.3068C70.3272 9.92424 70.1207 9.625 69.848 9.40909C69.5753 9.19318 69.2401 9.08523 68.8423 9.08523C68.4484 9.08523 68.1151 9.18939 67.8423 9.39773C67.5734 9.60606 67.367 9.90151 67.223 10.2841C67.0791 10.6667 67.0071 11.1174 67.0071 11.6364ZM78.706 16.1705C77.8234 16.1705 77.0601 15.983 76.4162 15.608C75.776 15.2292 75.2817 14.7027 74.9332 14.0284C74.5848 13.3504 74.4105 12.5644 74.4105 11.6705C74.4105 10.7689 74.5848 9.98106 74.9332 9.30682C75.2817 8.62879 75.776 8.10227 76.4162 7.72727C77.0601 7.34848 77.8234 7.15909 78.706 7.15909C79.5885 7.15909 80.3499 7.34848 80.9901 7.72727C81.634 8.10227 82.1302 8.62879 82.4787 9.30682C82.8272 9.98106 83.0014 10.7689 83.0014 11.6705C83.0014 12.5644 82.8272 13.3504 82.4787 14.0284C82.1302 14.7027 81.634 15.2292 80.9901 15.608C80.3499 15.983 79.5885 16.1705 78.706 16.1705ZM78.7173 14.2955C79.1188 14.2955 79.4541 14.1818 79.723 13.9545C79.992 13.7235 80.1946 13.4091 80.331 13.0114C80.4711 12.6136 80.5412 12.161 80.5412 11.6534C80.5412 11.1458 80.4711 10.6932 80.331 10.2955C80.1946 9.89773 79.992 9.58333 79.723 9.35227C79.4541 9.12121 79.1188 9.00568 78.7173 9.00568C78.312 9.00568 77.9711 9.12121 77.6946 9.35227C77.4219 9.58333 77.2154 9.89773 77.0753 10.2955C76.9389 10.6932 76.8707 11.1458 76.8707 11.6534C76.8707 12.161 76.9389 12.6136 77.0753 13.0114C77.2154 13.4091 77.4219 13.7235 77.6946 13.9545C77.9711 14.1818 78.312 14.2955 78.7173 14.2955ZM91.831 4.06818L92.5696 5.64773C92.3234 5.85227 92.0507 6.00379 91.7514 6.10227C91.4522 6.19697 91.0942 6.25947 90.6776 6.28977C90.2647 6.32008 89.7609 6.34091 89.1662 6.35227C88.492 6.35985 87.9427 6.4678 87.5185 6.67614C87.0942 6.88447 86.7723 7.21212 86.5526 7.65909C86.3329 8.10227 86.1889 8.68182 86.1207 9.39773H86.206C86.4673 8.86364 86.8348 8.45076 87.3082 8.15909C87.7855 7.86742 88.3745 7.72159 89.0753 7.72159C89.8177 7.72159 90.4673 7.88447 91.0241 8.21023C91.5848 8.53598 92.0204 9.00379 92.331 9.61364C92.6416 10.2235 92.7969 10.9545 92.7969 11.8068C92.7969 12.6932 92.6226 13.464 92.2741 14.1193C91.9295 14.7708 91.4389 15.2765 90.8026 15.6364C90.1662 15.9924 89.4086 16.1705 88.5298 16.1705C87.6473 16.1705 86.8859 15.9848 86.2457 15.6136C85.6094 15.2424 85.117 14.6951 84.7685 13.9716C84.4238 13.2481 84.2514 12.358 84.2514 11.3011V10.5852C84.2514 8.48295 84.6605 6.92424 85.4787 5.90909C86.2969 4.89394 87.4995 4.37879 89.0866 4.36364C89.5185 4.35606 89.9086 4.35417 90.2571 4.35795C90.6056 4.36174 90.9105 4.3447 91.1719 4.30682C91.437 4.26894 91.6567 4.18939 91.831 4.06818ZM88.5412 14.2955C88.9124 14.2955 89.2306 14.1989 89.4957 14.0057C89.7647 13.8125 89.9711 13.536 90.1151 13.1761C90.2628 12.8163 90.3366 12.3864 90.3366 11.8864C90.3366 11.3902 90.2628 10.9697 90.1151 10.625C89.9711 10.2765 89.7647 10.0114 89.4957 9.82955C89.2268 9.64773 88.9048 9.55682 88.5298 9.55682C88.2495 9.55682 87.9976 9.60795 87.7741 9.71023C87.5507 9.8125 87.3594 9.96401 87.2003 10.1648C87.045 10.3617 86.9238 10.6061 86.8366 10.8977C86.7533 11.1856 86.7116 11.5152 86.7116 11.8864C86.7116 12.6326 86.8726 13.2216 87.1946 13.6534C87.5204 14.0814 87.9692 14.2955 88.5412 14.2955ZM95.9205 9.95455H98.5284C99.6837 9.95455 100.585 10.2311 101.233 10.7841C101.881 11.3333 102.205 12.0682 102.205 12.9886C102.205 13.5871 102.059 14.1136 101.767 14.5682C101.475 15.0189 101.055 15.3712 100.506 15.625C99.9564 15.875 99.2973 16 98.5284 16H94.4034V7.27273H96.7159V14.0966H98.5284C98.9337 14.0966 99.267 13.9943 99.5284 13.7898C99.7898 13.5852 99.9223 13.3239 99.9261 13.0057C99.9223 12.6686 99.7898 12.3939 99.5284 12.1818C99.267 11.9659 98.9337 11.858 98.5284 11.858H95.9205V9.95455ZM107.787 16.1705C106.889 16.1705 106.116 15.9886 105.469 15.625C104.825 15.2576 104.329 14.7386 103.98 14.0682C103.632 13.3939 103.457 12.5966 103.457 11.6761C103.457 10.7784 103.632 9.99053 103.98 9.3125C104.329 8.63447 104.819 8.10606 105.452 7.72727C106.088 7.34848 106.834 7.15909 107.69 7.15909C108.266 7.15909 108.802 7.25189 109.298 7.4375C109.798 7.61932 110.234 7.89394 110.605 8.26136C110.98 8.62879 111.272 9.09091 111.48 9.64773C111.688 10.2008 111.793 10.8485 111.793 11.5909V12.2557H104.423V10.7557H109.514C109.514 10.4072 109.438 10.0985 109.287 9.82955C109.135 9.56061 108.925 9.35038 108.656 9.19886C108.391 9.04356 108.082 8.96591 107.73 8.96591C107.363 8.96591 107.037 9.05114 106.753 9.22159C106.473 9.38826 106.253 9.61364 106.094 9.89773C105.935 10.178 105.853 10.4905 105.849 10.8352V12.2614C105.849 12.6932 105.929 13.0663 106.088 13.3807C106.251 13.6951 106.48 13.9375 106.776 14.108C107.071 14.2784 107.421 14.3636 107.827 14.3636C108.096 14.3636 108.342 14.3258 108.565 14.25C108.789 14.1742 108.98 14.0606 109.139 13.9091C109.298 13.7576 109.42 13.572 109.503 13.3523L111.741 13.5C111.628 14.0379 111.395 14.5076 111.043 14.9091C110.694 15.3068 110.243 15.6174 109.69 15.8409C109.141 16.0606 108.507 16.1705 107.787 16.1705ZM105.901 6.07955C105.575 6.07955 105.295 5.96591 105.06 5.73864C104.825 5.50758 104.707 5.23485 104.707 4.92045C104.707 4.59848 104.825 4.32576 105.06 4.10227C105.295 3.87879 105.575 3.76705 105.901 3.76705C106.23 3.76705 106.509 3.87879 106.736 4.10227C106.967 4.32576 107.082 4.59848 107.082 4.92045C107.082 5.23485 106.967 5.50758 106.736 5.73864C106.509 5.96591 106.23 6.07955 105.901 6.07955ZM109.378 6.07955C109.052 6.07955 108.772 5.96591 108.537 5.73864C108.302 5.50758 108.185 5.23485 108.185 4.92045C108.185 4.59848 108.302 4.32576 108.537 4.10227C108.772 3.87879 109.052 3.76705 109.378 3.76705C109.707 3.76705 109.986 3.87879 110.213 4.10227C110.444 4.32576 110.56 4.59848 110.56 4.92045C110.56 5.23485 110.444 5.50758 110.213 5.73864C109.986 5.96591 109.707 6.07955 109.378 6.07955ZM113.372 16V7.27273H117.094C118.17 7.27273 119.02 7.47727 119.645 7.88636C120.27 8.29545 120.582 8.87689 120.582 9.63068C120.582 10.1042 120.406 10.4981 120.054 10.8125C119.702 11.1269 119.213 11.339 118.588 11.4489C119.111 11.4867 119.556 11.6061 119.923 11.8068C120.295 12.0038 120.577 12.2595 120.77 12.5739C120.967 12.8883 121.065 13.2367 121.065 13.6193C121.065 14.1155 120.933 14.5417 120.668 14.8977C120.406 15.2538 120.022 15.5265 119.514 15.7159C119.01 15.9053 118.395 16 117.668 16H113.372ZM115.628 14.1875H117.668C118.005 14.1875 118.268 14.108 118.457 13.9489C118.651 13.786 118.747 13.5644 118.747 13.2841C118.747 12.9735 118.651 12.7292 118.457 12.5511C118.268 12.3731 118.005 12.2841 117.668 12.2841H115.628V14.1875ZM115.628 10.8636H117.145C117.387 10.8636 117.594 10.8295 117.764 10.7614C117.938 10.6894 118.071 10.5871 118.162 10.4545C118.257 10.322 118.304 10.1648 118.304 9.98295C118.304 9.71402 118.196 9.50379 117.98 9.35227C117.764 9.20076 117.469 9.125 117.094 9.125H115.628V10.8636Z" fill="white"/>
<path d="M44.0164 24.8182V35H42.7835V25.9119H37.6528V35H36.4198V24.8182H44.0164ZM46.3444 37.8636V27.3636H47.4779V28.5767H47.6171C47.7033 28.4441 47.8226 28.2751 47.9751 28.0696C48.1308 27.8608 48.3529 27.6752 48.6412 27.5128C48.9329 27.3471 49.3273 27.2642 49.8245 27.2642C50.4675 27.2642 51.0342 27.425 51.5248 27.7464C52.0153 28.0679 52.3981 28.5237 52.6732 29.1136C52.9483 29.7036 53.0858 30.3996 53.0858 31.2017C53.0858 32.0104 52.9483 32.7114 52.6732 33.3047C52.3981 33.8946 52.017 34.352 51.5297 34.6768C51.0425 34.9983 50.4807 35.1591 49.8444 35.1591C49.3538 35.1591 48.9611 35.0779 48.6661 34.9155C48.3711 34.7498 48.1441 34.5625 47.985 34.3537C47.8259 34.1416 47.7033 33.9659 47.6171 33.8267H47.5177V37.8636H46.3444ZM47.4978 31.1818C47.4978 31.7585 47.5823 32.2673 47.7513 32.7081C47.9204 33.1456 48.1673 33.4886 48.4921 33.7372C48.8169 33.9825 49.2146 34.1051 49.6853 34.1051C50.1758 34.1051 50.5851 33.9759 50.9133 33.7173C51.2447 33.4555 51.4933 33.1042 51.659 32.6634C51.828 32.2192 51.9126 31.7254 51.9126 31.1818C51.9126 30.6449 51.8297 30.161 51.664 29.7301C51.5016 29.2959 51.2546 28.9529 50.9232 28.701C50.5951 28.4458 50.1824 28.3182 49.6853 28.3182C49.208 28.3182 48.807 28.4392 48.4822 28.6811C48.1573 28.9197 47.9121 29.2545 47.7464 29.6854C47.5806 30.1129 47.4978 30.6117 47.4978 31.1818ZM57.9779 35.1591C57.2885 35.1591 56.6836 34.995 56.1633 34.6669C55.6462 34.3388 55.2419 33.8797 54.9502 33.2898C54.6618 32.6998 54.5177 32.0104 54.5177 31.2216C54.5177 30.4261 54.6618 29.7318 54.9502 29.1385C55.2419 28.5452 55.6462 28.0845 56.1633 27.7564C56.6836 27.4283 57.2885 27.2642 57.9779 27.2642C58.6673 27.2642 59.2705 27.4283 59.7876 27.7564C60.3079 28.0845 60.7123 28.5452 61.0006 29.1385C61.2923 29.7318 61.4381 30.4261 61.4381 31.2216C61.4381 32.0104 61.2923 32.6998 61.0006 33.2898C60.7123 33.8797 60.3079 34.3388 59.7876 34.6669C59.2705 34.995 58.6673 35.1591 57.9779 35.1591ZM57.9779 34.1051C58.5016 34.1051 58.9324 33.9709 59.2705 33.7024C59.6086 33.4339 59.8588 33.081 60.0212 32.6435C60.1836 32.206 60.2648 31.732 60.2648 31.2216C60.2648 30.7112 60.1836 30.2356 60.0212 29.7947C59.8588 29.3539 59.6086 28.9976 59.2705 28.7259C58.9324 28.4541 58.5016 28.3182 57.9779 28.3182C57.4542 28.3182 57.0233 28.4541 56.6853 28.7259C56.3472 28.9976 56.097 29.3539 55.9346 29.7947C55.7722 30.2356 55.691 30.7112 55.691 31.2216C55.691 31.732 55.7722 32.206 55.9346 32.6435C56.097 33.081 56.3472 33.4339 56.6853 33.7024C57.0233 33.9709 57.4542 34.1051 57.9779 34.1051ZM63.2291 37.8636V27.3636H64.3627V28.5767H64.5019C64.588 28.4441 64.7074 28.2751 64.8598 28.0696C65.0156 27.8608 65.2377 27.6752 65.526 27.5128C65.8177 27.3471 66.2121 27.2642 66.7093 27.2642C67.3522 27.2642 67.919 27.425 68.4095 27.7464C68.9001 28.0679 69.2829 28.5237 69.558 29.1136C69.8331 29.7036 69.9706 30.3996 69.9706 31.2017C69.9706 32.0104 69.8331 32.7114 69.558 33.3047C69.2829 33.8946 68.9017 34.352 68.4145 34.6768C67.9273 34.9983 67.3655 35.1591 66.7291 35.1591C66.2386 35.1591 65.8459 35.0779 65.5509 34.9155C65.2559 34.7498 65.0289 34.5625 64.8698 34.3537C64.7107 34.1416 64.588 33.9659 64.5019 33.8267H64.4024V37.8636H63.2291ZM64.3825 31.1818C64.3825 31.7585 64.4671 32.2673 64.6361 32.7081C64.8051 33.1456 65.0521 33.4886 65.3769 33.7372C65.7017 33.9825 66.0994 34.1051 66.57 34.1051C67.0606 34.1051 67.4699 33.9759 67.798 33.7173C68.1295 33.4555 68.378 33.1042 68.5438 32.6634C68.7128 32.2192 68.7973 31.7254 68.7973 31.1818C68.7973 30.6449 68.7145 30.161 68.5487 29.7301C68.3863 29.2959 68.1394 28.9529 67.808 28.701C67.4798 28.4458 67.0672 28.3182 66.57 28.3182C66.0928 28.3182 65.6917 28.4392 65.3669 28.6811C65.0421 28.9197 64.7968 29.2545 64.6311 29.6854C64.4654 30.1129 64.3825 30.6117 64.3825 31.1818ZM74.0075 35.179C73.5236 35.179 73.0845 35.0878 72.6901 34.9055C72.2957 34.7199 71.9825 34.4531 71.7504 34.1051C71.5184 33.7538 71.4024 33.3295 71.4024 32.8324C71.4024 32.3949 71.4886 32.0402 71.661 31.7685C71.8333 31.4934 72.0637 31.2779 72.352 31.1222C72.6404 30.9664 72.9585 30.8504 73.3066 30.7741C73.6579 30.6946 74.0109 30.6316 74.3655 30.5852C74.8295 30.5256 75.2057 30.4808 75.4941 30.451C75.7857 30.4179 75.9978 30.3632 76.1304 30.2869C76.2663 30.2107 76.3343 30.0781 76.3343 29.8892V29.8494C76.3343 29.3589 76.2 28.9777 75.9316 28.706C75.6664 28.4342 75.2637 28.2983 74.7235 28.2983C74.1633 28.2983 73.7242 28.4209 73.406 28.6662C73.0878 28.9115 72.8641 29.1733 72.7348 29.4517L71.6212 29.054C71.82 28.59 72.0852 28.2287 72.4166 27.9702C72.7514 27.7083 73.116 27.526 73.5104 27.4233C73.9081 27.3172 74.2992 27.2642 74.6837 27.2642C74.9289 27.2642 75.2107 27.294 75.5289 27.3537C75.8503 27.41 76.1602 27.5277 76.4585 27.7067C76.7602 27.8857 77.0104 28.1558 77.2093 28.517C77.4081 28.8783 77.5075 29.3622 77.5075 29.9688V35H76.3343V33.9659H76.2746C76.195 34.1316 76.0625 34.3089 75.8769 34.4979C75.6913 34.6868 75.4443 34.8475 75.1361 34.9801C74.8279 35.1127 74.4517 35.179 74.0075 35.179ZM74.1865 34.125C74.6505 34.125 75.0416 34.0339 75.3598 33.8516C75.6813 33.6693 75.9233 33.4339 76.0857 33.1456C76.2514 32.8572 76.3343 32.554 76.3343 32.2358V31.1619C76.2845 31.2216 76.1752 31.2763 76.0061 31.326C75.8404 31.3724 75.6482 31.4138 75.4294 31.4503C75.214 31.4834 75.0035 31.5133 74.798 31.5398C74.5959 31.563 74.4318 31.5829 74.3058 31.5994C74.0009 31.6392 73.7159 31.7038 73.4507 31.7933C73.1889 31.8795 72.9768 32.0104 72.8144 32.1861C72.6553 32.3584 72.5757 32.5937 72.5757 32.892C72.5757 33.2997 72.7265 33.608 73.0281 33.8168C73.3331 34.0223 73.7192 34.125 74.1865 34.125ZM85.3167 24.5L85.9133 25.2159C85.6813 25.4413 85.4128 25.5987 85.1079 25.6882C84.8029 25.7777 84.4582 25.8324 84.0738 25.8523C83.6893 25.8722 83.2617 25.892 82.7911 25.9119C82.2608 25.9318 81.8216 26.0611 81.4736 26.2997C81.1256 26.5384 80.8572 26.883 80.6682 27.3338C80.4793 27.7846 80.3583 28.3381 80.3053 28.9943H80.4047C80.6633 28.517 81.0212 28.1657 81.4786 27.9403C81.936 27.715 82.4265 27.6023 82.9502 27.6023C83.5468 27.6023 84.0837 27.7415 84.561 28.0199C85.0383 28.2983 85.4161 28.7109 85.6945 29.2578C85.9729 29.8047 86.1121 30.4792 86.1121 31.2812C86.1121 32.08 85.9696 32.7694 85.6846 33.3494C85.4028 33.9295 85.0068 34.3769 84.4964 34.6918C83.9893 35.0033 83.3943 35.1591 82.7116 35.1591C82.0288 35.1591 81.4305 34.9983 80.9168 34.6768C80.4031 34.352 80.0037 33.8714 79.7187 33.2351C79.4336 32.5954 79.2911 31.8049 79.2911 30.8636V30.0483C79.2911 28.348 79.5795 27.0587 80.1562 26.1804C80.7362 25.3021 81.6079 24.848 82.7712 24.8182C83.1822 24.8049 83.5484 24.8016 83.8699 24.8082C84.1914 24.8149 84.4715 24.8 84.7101 24.7635C84.9488 24.727 85.151 24.6392 85.3167 24.5ZM82.7116 34.1051C83.1723 34.1051 83.5683 33.9891 83.8998 33.7571C84.2345 33.5251 84.4914 33.1986 84.6704 32.7777C84.8493 32.3535 84.9388 31.8546 84.9388 31.2812C84.9388 30.7244 84.8477 30.2505 84.6654 29.8594C84.4864 29.4683 84.2296 29.17 83.8948 28.9645C83.56 28.759 83.159 28.6562 82.6917 28.6562C82.3503 28.6562 82.0437 28.7143 81.7719 28.8303C81.5001 28.9463 81.2681 29.117 81.0759 29.3423C80.8837 29.5677 80.7345 29.8428 80.6285 30.1676C80.5257 30.4924 80.471 30.8636 80.4644 31.2812C80.4644 32.1364 80.6649 32.8208 81.066 33.3345C81.467 33.8482 82.0155 34.1051 82.7116 34.1051Z" fill="white"/>
</svg>
