<svg width="360" height="444" viewBox="0 0 360 444" fill="none" xmlns="http://www.w3.org/2000/svg">
<rect width="360" height="444" fill="#212121"/>
<circle cx="117.5" cy="391.5" r="7.5" fill="#888988"/>
<circle cx="141.5" cy="391.5" r="7.5" fill="#888988"/>
<circle cx="165.5" cy="391.5" r="7.5" fill="#888988"/>
<rect x="182" y="384" width="42.6" height="15" rx="7.5" fill="white"/>
<circle cx="241.1" cy="391.5" r="7.5" fill="#888988"/>
<g filter="url(#filter0_d_1_479)">
<rect width="130" height="147.875" rx="10" transform="matrix(-1 0 0 1 77 184.062)" fill="#D9D9D9"/>
<rect width="130" height="147.875" rx="10" transform="matrix(-1 0 0 1 77 184.062)" fill="url(#paint0_linear_1_479)" fill-opacity="0.7"/>
</g>
<g filter="url(#filter1_d_1_479)">
<rect x="97" y="167" width="165" height="182" rx="10" fill="#D9D9D9"/>
</g>
<g filter="url(#filter2_d_1_479)">
<rect x="282" y="184.062" width="130" height="147.875" rx="10" fill="#D9D9D9"/>
<rect x="282" y="184.062" width="130" height="147.875" rx="10" fill="url(#paint1_linear_1_479)" fill-opacity="0.7"/>
</g>
<path d="M17.5266 256.015L28.6369 267.25C29.0547 267.668 29.2438 268.124 29.2636 268.75C29.2833 269.376 29.0942 269.916 28.6369 270.373C28.219 270.791 27.6873 271 27.0415 271C26.3958 271 25.8641 270.791 25.4462 270.373L12.6837 257.611C12.2279 257.155 12 256.623 12 256.015C12 255.408 12.2279 254.876 12.6837 254.42L25.4462 241.658C25.8641 241.24 26.3867 241.021 27.0142 241.001C27.6417 240.981 28.1826 241.2 28.6369 241.658C29.0547 242.075 29.2636 242.607 29.2636 243.253C29.2636 243.899 29.0547 244.43 28.6369 244.848L17.5266 256.015Z" fill="white"/>
<path d="M341.003 256.015L329.893 267.25C329.475 267.668 329.286 268.124 329.266 268.75C329.247 269.376 329.436 269.916 329.893 270.373C330.311 270.791 330.843 271 331.488 271C332.134 271 332.666 270.791 333.084 270.373L345.846 257.611C346.302 257.155 346.53 256.623 346.53 256.015C346.53 255.408 346.302 254.876 345.846 254.42L333.084 241.658C332.666 241.24 332.143 241.021 331.516 241.001C330.888 240.981 330.347 241.2 329.893 241.658C329.475 242.075 329.266 242.607 329.266 243.253C329.266 243.899 329.475 244.43 329.893 244.848L341.003 256.015Z" fill="white"/>
<rect x="70" y="102" width="108" height="30" rx="5" fill="#999999"/>
<path d="M107.473 121V112.273H113.265V113.794H109.319V115.499H110.738C111.428 115.499 112.023 115.611 112.523 115.835C113.026 116.057 113.414 116.371 113.686 116.777C113.959 117.183 114.096 117.662 114.096 118.213C114.096 118.761 113.959 119.246 113.686 119.666C113.414 120.084 113.026 120.411 112.523 120.646C112.023 120.882 111.428 121 110.738 121H107.473ZM109.319 119.517H110.738C111.067 119.517 111.346 119.457 111.573 119.338C111.8 119.216 111.972 119.055 112.088 118.857C112.208 118.655 112.267 118.435 112.267 118.196C112.267 117.849 112.135 117.557 111.871 117.318C111.61 117.077 111.232 116.956 110.738 116.956H109.319V119.517ZM116.794 121H114.817L117.83 112.273H120.207L123.216 121H121.239L119.053 114.267H118.984L116.794 121ZM116.67 117.57H121.341V119.01H116.67V117.57ZM124.266 121V112.273H126.112V115.874H129.857V112.273H131.698V121H129.857V117.395H126.112V121H124.266ZM133.219 112.273H135.06V117.761H135.133L138.904 112.273H140.519V121H138.674V115.507H138.61L134.817 121H133.219V112.273Z" fill="#212121"/>
<rect x="184" y="103" width="106" height="28" rx="4" stroke="#999999" stroke-width="2"/>
<path d="M217.885 123.105V119.53H218.477C218.679 119.385 218.864 119.18 219.031 118.916C219.199 118.649 219.343 118.281 219.462 117.812C219.581 117.341 219.666 116.724 219.718 115.963L219.965 112.273H225.739V119.53H226.693V123.097H224.921V121H219.658V123.105H217.885ZM220.608 119.53H223.966V113.794H221.627L221.49 115.963C221.453 116.54 221.392 117.051 221.307 117.497C221.225 117.943 221.124 118.334 221.004 118.669C220.888 119.001 220.756 119.288 220.608 119.53ZM235.835 116.636C235.835 117.588 235.655 118.398 235.294 119.065C234.936 119.733 234.447 120.243 233.828 120.595C233.211 120.945 232.518 121.119 231.748 121.119C230.973 121.119 230.277 120.943 229.66 120.591C229.044 120.239 228.557 119.729 228.199 119.061C227.841 118.393 227.662 117.585 227.662 116.636C227.662 115.685 227.841 114.875 228.199 114.207C228.557 113.54 229.044 113.031 229.66 112.682C230.277 112.33 230.973 112.153 231.748 112.153C232.518 112.153 233.211 112.33 233.828 112.682C234.447 113.031 234.936 113.54 235.294 114.207C235.655 114.875 235.835 115.685 235.835 116.636ZM233.964 116.636C233.964 116.02 233.872 115.5 233.687 115.077C233.506 114.653 233.248 114.332 232.916 114.114C232.584 113.895 232.194 113.786 231.748 113.786C231.302 113.786 230.913 113.895 230.581 114.114C230.248 114.332 229.99 114.653 229.805 115.077C229.623 115.5 229.532 116.02 229.532 116.636C229.532 117.253 229.623 117.773 229.805 118.196C229.99 118.619 230.248 118.94 230.581 119.159C230.913 119.378 231.302 119.487 231.748 119.487C232.194 119.487 232.584 119.378 232.916 119.159C233.248 118.94 233.506 118.619 233.687 118.196C233.872 117.773 233.964 117.253 233.964 116.636ZM237.202 112.273H239.477L241.881 118.136H241.983L244.387 112.273H246.662V121H244.872V115.32H244.8L242.541 120.957H241.323L239.064 115.298H238.992V121H237.202V112.273ZM249.687 121H247.709L250.722 112.273H253.1L256.108 121H254.131L251.945 114.267H251.877L249.687 121ZM249.563 117.57H254.233V119.01H249.563V117.57Z" fill="#999999"/>
<path d="M82.5339 49.9091V63H79.7981V52.1591H74.5055V63H71.7697V49.9091H82.5339ZM85.169 63V49.9091H90.3338C91.3267 49.9091 92.1726 50.0987 92.8714 50.478C93.5703 50.853 94.103 51.375 94.4695 52.044C94.8402 52.7088 95.0256 53.4759 95.0256 54.3452C95.0256 55.2145 94.8381 55.9815 94.4631 56.6463C94.0881 57.3111 93.5447 57.8288 92.8331 58.1996C92.1257 58.5703 91.2692 58.7557 90.2635 58.7557H86.9716V56.5376H89.8161C90.3487 56.5376 90.7876 56.446 91.1328 56.2628C91.4822 56.0753 91.7422 55.8175 91.9126 55.4893C92.0874 55.157 92.1747 54.7756 92.1747 54.3452C92.1747 53.9105 92.0874 53.5312 91.9126 53.2074C91.7422 52.8793 91.4822 52.6257 91.1328 52.4467C90.7834 52.2635 90.3402 52.1719 89.8033 52.1719H87.9368V63H85.169ZM108.853 56.4545C108.853 57.8821 108.583 59.0966 108.041 60.098C107.504 61.0994 106.771 61.8643 105.843 62.3928C104.918 62.9169 103.878 63.179 102.723 63.179C101.56 63.179 100.516 62.9148 99.5911 62.3864C98.6664 61.858 97.9355 61.093 97.3986 60.0916C96.8617 59.0902 96.5932 57.8778 96.5932 56.4545C96.5932 55.027 96.8617 53.8125 97.3986 52.8111C97.9355 51.8097 98.6664 51.0469 99.5911 50.5227C100.516 49.9943 101.56 49.7301 102.723 49.7301C103.878 49.7301 104.918 49.9943 105.843 50.5227C106.771 51.0469 107.504 51.8097 108.041 52.8111C108.583 53.8125 108.853 55.027 108.853 56.4545ZM106.047 56.4545C106.047 55.5298 105.909 54.75 105.632 54.1151C105.359 53.4801 104.973 52.9986 104.475 52.6705C103.976 52.3423 103.392 52.1783 102.723 52.1783C102.054 52.1783 101.47 52.3423 100.972 52.6705C100.473 52.9986 100.085 53.4801 99.8084 54.1151C99.5357 54.75 99.3993 55.5298 99.3993 56.4545C99.3993 57.3793 99.5357 58.1591 99.8084 58.794C100.085 59.429 100.473 59.9105 100.972 60.2386C101.47 60.5668 102.054 60.7308 102.723 60.7308C103.392 60.7308 103.976 60.5668 104.475 60.2386C104.973 59.9105 105.359 59.429 105.632 58.794C105.909 58.1591 106.047 57.3793 106.047 56.4545ZM110.194 66.1577V60.7947H111.082C111.385 60.5774 111.662 60.2706 111.913 59.8743C112.165 59.4737 112.38 58.9219 112.559 58.2188C112.738 57.5114 112.866 56.5866 112.942 55.4446L113.313 49.9091H121.974V60.7947H123.406V66.1449H120.747V63H112.853V66.1577H110.194ZM114.278 60.7947H119.315V52.1911H115.806L115.602 55.4446C115.546 56.3097 115.455 57.0767 115.327 57.7457C115.203 58.4148 115.052 59.0007 114.873 59.5036C114.698 60.0021 114.5 60.4325 114.278 60.7947ZM126.502 63.179V60.929H127.211C127.565 60.929 127.85 60.8864 128.068 60.8011C128.285 60.7116 128.458 60.5817 128.585 60.4112C128.718 60.2365 128.828 60.0192 128.918 59.7592L129.078 59.331L124.322 49.9091H127.186L130.267 56.3523L132.843 49.9091H135.668L131.155 60.4304C130.938 60.9162 130.68 61.3679 130.382 61.7855C130.088 62.2031 129.71 62.5398 129.25 62.7955C128.79 63.0511 128.202 63.179 127.486 63.179H126.502ZM145.085 63L140.879 57.4197H139.933V63H137.165V49.9091H139.933V55.1378H140.489L144.836 49.9091H148.281L143.174 55.9815L148.517 63H145.085ZM149.411 52.1911V49.9091H160.162V52.1911H156.154V63H153.419V52.1911H149.411ZM163.754 54.7479H166.874C167.914 54.7479 168.808 54.9162 169.558 55.2528C170.313 55.5852 170.894 56.0561 171.303 56.6655C171.713 57.2749 171.915 57.9929 171.911 58.8196C171.915 59.642 171.713 60.3686 171.303 60.9993C170.894 61.6257 170.313 62.1158 169.558 62.4695C168.808 62.8232 167.914 63 166.874 63H161.984V49.9091H164.745V60.7756H166.874C167.372 60.7756 167.792 60.6861 168.133 60.5071C168.474 60.3239 168.732 60.0831 168.906 59.7848C169.085 59.4822 169.173 59.152 169.169 58.794C169.173 58.2741 168.977 57.8352 168.58 57.4773C168.188 57.1151 167.619 56.9339 166.874 56.9339H163.754V54.7479ZM175.74 49.9091V63H172.978V49.9091H175.74ZM190.102 63L185.896 57.4197H184.95V63H182.183V49.9091H184.95V55.1378H185.507L189.853 49.9091H193.298L188.191 55.9815L193.535 63H190.102ZM206.218 56.4545C206.218 57.8821 205.948 59.0966 205.407 60.098C204.87 61.0994 204.137 61.8643 203.208 62.3928C202.283 62.9169 201.243 63.179 200.088 63.179C198.925 63.179 197.881 62.9148 196.956 62.3864C196.032 61.858 195.301 61.093 194.764 60.0916C194.227 59.0902 193.958 57.8778 193.958 56.4545C193.958 55.027 194.227 53.8125 194.764 52.8111C195.301 51.8097 196.032 51.0469 196.956 50.5227C197.881 49.9943 198.925 49.7301 200.088 49.7301C201.243 49.7301 202.283 49.9943 203.208 50.5227C204.137 51.0469 204.87 51.8097 205.407 52.8111C205.948 53.8125 206.218 55.027 206.218 56.4545ZM203.412 56.4545C203.412 55.5298 203.274 54.75 202.997 54.1151C202.724 53.4801 202.338 52.9986 201.84 52.6705C201.341 52.3423 200.757 52.1783 200.088 52.1783C199.419 52.1783 198.836 52.3423 198.337 52.6705C197.838 52.9986 197.451 53.4801 197.174 54.1151C196.901 54.75 196.765 55.5298 196.765 56.4545C196.765 57.3793 196.901 58.1591 197.174 58.794C197.451 59.429 197.838 59.9105 198.337 60.2386C198.836 60.5668 199.419 60.7308 200.088 60.7308C200.757 60.7308 201.341 60.5668 201.84 60.2386C202.338 59.9105 202.724 59.429 202.997 58.794C203.274 58.1591 203.412 57.3793 203.412 56.4545ZM208.269 49.9091H211.682L215.287 58.7045H215.441L219.046 49.9091H222.459V63H219.774V54.4794H219.666L216.278 62.9361H214.45L211.062 54.4474H210.953V63H208.269V49.9091ZM235.868 49.9091V63H233.132V52.1591H227.839V63H225.104V49.9091H235.868ZM240.759 63H237.794L242.313 49.9091H245.879L250.392 63H247.426L244.147 52.9006H244.045L240.759 63ZM240.574 57.8544H247.58V60.0149H240.574V57.8544ZM251.968 63V49.9091H254.736V55.3104H260.354V49.9091H263.116V63H260.354V57.5923H254.736V63H251.968ZM265.398 49.9091H268.159V58.142H268.268L273.925 49.9091H276.347V63H273.579V54.7607H273.483L267.795 63H265.398V49.9091ZM278.634 49.9091H281.395V58.142H281.504L287.161 49.9091H289.583V63H286.816V54.7607H286.72L281.031 63H278.634V49.9091Z" fill="#999999"/>
<defs>
<filter id="filter0_d_1_479" x="-57" y="184.062" width="138" height="155.875" filterUnits="userSpaceOnUse" color-interpolation-filters="sRGB">
<feFlood flood-opacity="0" result="BackgroundImageFix"/>
<feColorMatrix in="SourceAlpha" type="matrix" values="0 0 0 0 0 0 0 0 0 0 0 0 0 0 0 0 0 0 127 0" result="hardAlpha"/>
<feOffset dy="4"/>
<feGaussianBlur stdDeviation="2"/>
<feComposite in2="hardAlpha" operator="out"/>
<feColorMatrix type="matrix" values="0 0 0 0 0 0 0 0 0 0 0 0 0 0 0 0 0 0 0.25 0"/>
<feBlend mode="normal" in2="BackgroundImageFix" result="effect1_dropShadow_1_479"/>
<feBlend mode="normal" in="SourceGraphic" in2="effect1_dropShadow_1_479" result="shape"/>
</filter>
<filter id="filter1_d_1_479" x="92" y="162" width="175" height="192" filterUnits="userSpaceOnUse" color-interpolation-filters="sRGB">
<feFlood flood-opacity="0" result="BackgroundImageFix"/>
<feColorMatrix in="SourceAlpha" type="matrix" values="0 0 0 0 0 0 0 0 0 0 0 0 0 0 0 0 0 0 127 0" result="hardAlpha"/>
<feMorphology radius="5" operator="dilate" in="SourceAlpha" result="effect1_dropShadow_1_479"/>
<feOffset/>
<feComposite in2="hardAlpha" operator="out"/>
<feColorMatrix type="matrix" values="0 0 0 0 0.85098 0 0 0 0 0.85098 0 0 0 0 0.85098 0 0 0 0.25 0"/>
<feBlend mode="normal" in2="BackgroundImageFix" result="effect1_dropShadow_1_479"/>
<feBlend mode="normal" in="SourceGraphic" in2="effect1_dropShadow_1_479" result="shape"/>
</filter>
<filter id="filter2_d_1_479" x="278" y="184.062" width="138" height="155.875" filterUnits="userSpaceOnUse" color-interpolation-filters="sRGB">
<feFlood flood-opacity="0" result="BackgroundImageFix"/>
<feColorMatrix in="SourceAlpha" type="matrix" values="0 0 0 0 0 0 0 0 0 0 0 0 0 0 0 0 0 0 127 0" result="hardAlpha"/>
<feOffset dy="4"/>
<feGaussianBlur stdDeviation="2"/>
<feComposite in2="hardAlpha" operator="out"/>
<feColorMatrix type="matrix" values="0 0 0 0 0 0 0 0 0 0 0 0 0 0 0 0 0 0 0.25 0"/>
<feBlend mode="normal" in2="BackgroundImageFix" result="effect1_dropShadow_1_479"/>
<feBlend mode="normal" in="SourceGraphic" in2="effect1_dropShadow_1_479" result="shape"/>
</filter>
<linearGradient id="paint0_linear_1_479" x1="163.442" y1="74.2495" x2="9.7091e-06" y2="73.9375" gradientUnits="userSpaceOnUse">
<stop offset="0.252161" stop-opacity="0"/>
<stop offset="1"/>
</linearGradient>
<linearGradient id="paint1_linear_1_479" x1="445.442" y1="258.312" x2="282" y2="258" gradientUnits="userSpaceOnUse">
<stop offset="0.252161" stop-opacity="0"/>
<stop offset="1"/>
</linearGradient>
</defs>
</svg>
