<svg width="185" height="15" viewBox="0 0 185 15" fill="none" xmlns="http://www.w3.org/2000/svg">
<path d="M13.1676 7.45455C13.1676 8.8821 12.897 10.0966 12.3558 11.098C11.8189 12.0994 11.0859 12.8643 10.157 13.3928C9.23224 13.9169 8.19247 14.179 7.03764 14.179C5.87429 14.179 4.83026 13.9148 3.90554 13.3864C2.98082 12.858 2.25 12.093 1.71307 11.0916C1.17614 10.0902 0.90767 8.87784 0.90767 7.45455C0.90767 6.02699 1.17614 4.8125 1.71307 3.81108C2.25 2.80966 2.98082 2.04687 3.90554 1.52273C4.83026 0.994318 5.87429 0.730113 7.03764 0.730113C8.19247 0.730113 9.23224 0.994318 10.157 1.52273C11.0859 2.04687 11.8189 2.80966 12.3558 3.81108C12.897 4.8125 13.1676 6.02699 13.1676 7.45455ZM10.3615 7.45455C10.3615 6.52983 10.223 5.75 9.94602 5.11506C9.6733 4.48011 9.28764 3.99858 8.78906 3.67045C8.29048 3.34233 7.70668 3.17827 7.03764 3.17827C6.36861 3.17827 5.7848 3.34233 5.28622 3.67045C4.78764 3.99858 4.39986 4.48011 4.12287 5.11506C3.85014 5.75 3.71378 6.52983 3.71378 7.45455C3.71378 8.37926 3.85014 9.15909 4.12287 9.79403C4.39986 10.429 4.78764 10.9105 5.28622 11.2386C5.7848 11.5668 6.36861 11.7308 7.03764 11.7308C7.70668 11.7308 8.29048 11.5668 8.78906 11.2386C9.28764 10.9105 9.6733 10.429 9.94602 9.79403C10.223 9.15909 10.3615 8.37926 10.3615 7.45455ZM14.6554 6.32315V4.18182H23.5531V6.32315H20.389V14H17.7939V6.32315H14.6554ZM25.2038 14V4.18182H27.9268V7.99148H28.6939L31.3658 4.18182H34.5618L31.0909 9.05256L34.6001 14H31.3658L28.9432 10.5163H27.9268V14H25.2038ZM35.1754 14L35.1626 11.8395H35.4886C35.7188 11.8395 35.9169 11.7841 36.0831 11.6733C36.2536 11.5582 36.3942 11.3729 36.505 11.1172C36.6158 10.8615 36.7031 10.5227 36.767 10.1009C36.831 9.67472 36.8736 9.15057 36.8949 8.52841L37.0547 4.18182H44.5206V14H41.9254V6.32315H39.5028L39.3494 9.32102C39.3111 10.1435 39.2109 10.8509 39.049 11.4432C38.8913 12.0355 38.6719 12.5213 38.3906 12.9006C38.1094 13.2756 37.7706 13.5526 37.3743 13.7315C36.978 13.9105 36.5178 14 35.9936 14H35.1754ZM49.2331 10.4077L52.7679 4.18182H55.4526V14H52.8574V7.75497L49.3354 14H46.6316V4.18182H49.2331V10.4077ZM57.6355 14V4.18182H60.3585V7.99148H61.1255L63.7974 4.18182H66.9934L63.5226 9.05256L67.0318 14H63.7974L61.3748 10.5163H60.3585V14H57.6355ZM79.1815 8.00426V10.1456H74.055V8.00426H79.1815ZM74.9499 4.18182V14H72.3484V4.18182H74.9499ZM80.8881 4.18182V14H78.3058V4.18182H80.8881ZM85.8004 14.1854C85.174 14.1854 84.6158 14.0767 84.1257 13.8594C83.6357 13.6378 83.2479 13.3118 82.9624 12.8814C82.6811 12.4467 82.5405 11.9055 82.5405 11.2578C82.5405 10.7124 82.6406 10.2543 82.8409 9.88352C83.0412 9.51278 83.3139 9.21449 83.6591 8.98864C84.0043 8.76278 84.3963 8.59233 84.8352 8.47727C85.2784 8.36222 85.7429 8.28125 86.2287 8.23438C86.7997 8.17472 87.2599 8.11932 87.6094 8.06818C87.9588 8.01278 88.2124 7.93182 88.37 7.82528C88.5277 7.71875 88.6065 7.56108 88.6065 7.35227V7.31392C88.6065 6.90909 88.4787 6.59588 88.223 6.37429C87.9716 6.1527 87.6136 6.0419 87.1491 6.0419C86.6591 6.0419 86.2692 6.15057 85.9794 6.3679C85.6896 6.58097 85.4979 6.84943 85.4041 7.1733L82.8857 6.96875C83.0135 6.37216 83.2649 5.85653 83.6399 5.42188C84.0149 4.98295 84.4986 4.64631 85.0909 4.41193C85.6875 4.1733 86.3778 4.05398 87.1619 4.05398C87.7074 4.05398 88.2294 4.1179 88.728 4.24574C89.2308 4.37358 89.6761 4.57173 90.0639 4.8402C90.456 5.10866 90.7649 5.45384 90.9908 5.87571C91.2166 6.29332 91.3295 6.79403 91.3295 7.37784V14H88.7472V12.6385H88.6705C88.5128 12.9453 88.3018 13.2159 88.0376 13.4503C87.7734 13.6804 87.456 13.8615 87.0852 13.9936C86.7145 14.1214 86.2862 14.1854 85.8004 14.1854ZM86.5803 12.3061C86.9808 12.3061 87.3345 12.2273 87.6413 12.0696C87.9482 11.9077 88.1889 11.6903 88.3636 11.4176C88.5384 11.1449 88.6257 10.8359 88.6257 10.4908V9.44886C88.5405 9.50426 88.4233 9.5554 88.2741 9.60227C88.1293 9.64489 87.9652 9.68537 87.782 9.72372C87.5987 9.75781 87.4155 9.78977 87.2322 9.8196C87.049 9.84517 86.8828 9.86861 86.7337 9.88991C86.4141 9.93679 86.1349 10.0114 85.8963 10.1136C85.6577 10.2159 85.4723 10.3544 85.3402 10.5291C85.2081 10.6996 85.142 10.9126 85.142 11.1683C85.142 11.5391 85.2763 11.8224 85.5447 12.0185C85.8175 12.2102 86.1626 12.3061 86.5803 12.3061ZM97.6081 14V4.18182H101.795C103.005 4.18182 103.962 4.41193 104.665 4.87216C105.368 5.33239 105.72 5.98651 105.72 6.83452C105.72 7.36719 105.521 7.81037 105.125 8.16406C104.729 8.51776 104.179 8.75639 103.476 8.87997C104.064 8.92258 104.565 9.05682 104.978 9.28267C105.396 9.50426 105.713 9.7919 105.931 10.1456C106.152 10.4993 106.263 10.8913 106.263 11.3217C106.263 11.88 106.114 12.3594 105.816 12.7599C105.521 13.1605 105.089 13.4673 104.518 13.6804C103.951 13.8935 103.259 14 102.441 14H97.6081ZM100.146 11.9609H102.441C102.82 11.9609 103.116 11.8714 103.329 11.6925C103.546 11.5092 103.655 11.2599 103.655 10.9446C103.655 10.5952 103.546 10.3203 103.329 10.12C103.116 9.91974 102.82 9.8196 102.441 9.8196H100.146V11.9609ZM100.146 8.22159H101.852C102.125 8.22159 102.357 8.18324 102.549 8.10653C102.745 8.02557 102.894 7.91051 102.997 7.76136C103.103 7.61222 103.156 7.43537 103.156 7.23082C103.156 6.92827 103.035 6.69176 102.792 6.52131C102.549 6.35085 102.217 6.26562 101.795 6.26562H100.146V8.22159ZM110.779 14.1854C110.153 14.1854 109.594 14.0767 109.104 13.8594C108.614 13.6378 108.226 13.3118 107.941 12.8814C107.66 12.4467 107.519 11.9055 107.519 11.2578C107.519 10.7124 107.619 10.2543 107.819 9.88352C108.02 9.51278 108.292 9.21449 108.638 8.98864C108.983 8.76278 109.375 8.59233 109.814 8.47727C110.257 8.36222 110.721 8.28125 111.207 8.23438C111.778 8.17472 112.238 8.11932 112.588 8.06818C112.937 8.01278 113.191 7.93182 113.349 7.82528C113.506 7.71875 113.585 7.56108 113.585 7.35227V7.31392C113.585 6.90909 113.457 6.59588 113.202 6.37429C112.95 6.1527 112.592 6.0419 112.128 6.0419C111.638 6.0419 111.248 6.15057 110.958 6.3679C110.668 6.58097 110.476 6.84943 110.383 7.1733L107.864 6.96875C107.992 6.37216 108.243 5.85653 108.618 5.42188C108.993 4.98295 109.477 4.64631 110.069 4.41193C110.666 4.1733 111.356 4.05398 112.14 4.05398C112.686 4.05398 113.208 4.1179 113.706 4.24574C114.209 4.37358 114.655 4.57173 115.042 4.8402C115.434 5.10866 115.743 5.45384 115.969 5.87571C116.195 6.29332 116.308 6.79403 116.308 7.37784V14H113.726V12.6385H113.649C113.491 12.9453 113.28 13.2159 113.016 13.4503C112.752 13.6804 112.434 13.8615 112.064 13.9936C111.693 14.1214 111.265 14.1854 110.779 14.1854ZM111.559 12.3061C111.959 12.3061 112.313 12.2273 112.62 12.0696C112.927 11.9077 113.167 11.6903 113.342 11.4176C113.517 11.1449 113.604 10.8359 113.604 10.4908V9.44886C113.519 9.50426 113.402 9.5554 113.253 9.60227C113.108 9.64489 112.944 9.68537 112.76 9.72372C112.577 9.75781 112.394 9.78977 112.211 9.8196C112.028 9.84517 111.861 9.86861 111.712 9.88991C111.393 9.93679 111.113 10.0114 110.875 10.1136C110.636 10.2159 110.451 10.3544 110.319 10.5291C110.187 10.6996 110.121 10.9126 110.121 11.1683C110.121 11.5391 110.255 11.8224 110.523 12.0185C110.796 12.2102 111.141 12.3061 111.559 12.3061ZM118.421 14V4.18182H121.144V7.99148H121.911L124.583 4.18182H127.779L124.308 9.05256L127.817 14H124.583L122.16 10.5163H121.144V14H118.421ZM131.767 14.1854C131.141 14.1854 130.583 14.0767 130.093 13.8594C129.602 13.6378 129.215 13.3118 128.929 12.8814C128.648 12.4467 128.507 11.9055 128.507 11.2578C128.507 10.7124 128.607 10.2543 128.808 9.88352C129.008 9.51278 129.281 9.21449 129.626 8.98864C129.971 8.76278 130.363 8.59233 130.802 8.47727C131.245 8.36222 131.71 8.28125 132.195 8.23438C132.767 8.17472 133.227 8.11932 133.576 8.06818C133.926 8.01278 134.179 7.93182 134.337 7.82528C134.494 7.71875 134.573 7.56108 134.573 7.35227V7.31392C134.573 6.90909 134.445 6.59588 134.19 6.37429C133.938 6.1527 133.58 6.0419 133.116 6.0419C132.626 6.0419 132.236 6.15057 131.946 6.3679C131.656 6.58097 131.465 6.84943 131.371 7.1733L128.852 6.96875C128.98 6.37216 129.232 5.85653 129.607 5.42188C129.982 4.98295 130.465 4.64631 131.058 4.41193C131.654 4.1733 132.345 4.05398 133.129 4.05398C133.674 4.05398 134.196 4.1179 134.695 4.24574C135.198 4.37358 135.643 4.57173 136.031 4.8402C136.423 5.10866 136.732 5.45384 136.958 5.87571C137.183 6.29332 137.296 6.79403 137.296 7.37784V14H134.714V12.6385H134.637C134.48 12.9453 134.269 13.2159 134.004 13.4503C133.74 13.6804 133.423 13.8615 133.052 13.9936C132.681 14.1214 132.253 14.1854 131.767 14.1854ZM132.547 12.3061C132.948 12.3061 133.301 12.2273 133.608 12.0696C133.915 11.9077 134.156 11.6903 134.33 11.4176C134.505 11.1449 134.593 10.8359 134.593 10.4908V9.44886C134.507 9.50426 134.39 9.5554 134.241 9.60227C134.096 9.64489 133.932 9.68537 133.749 9.72372C133.566 9.75781 133.382 9.78977 133.199 9.8196C133.016 9.84517 132.85 9.86861 132.7 9.88991C132.381 9.93679 132.102 10.0114 131.863 10.1136C131.624 10.2159 131.439 10.3544 131.307 10.5291C131.175 10.6996 131.109 10.9126 131.109 11.1683C131.109 11.5391 131.243 11.8224 131.512 12.0185C131.784 12.2102 132.129 12.3061 132.547 12.3061ZM146.242 8.00426V10.1456H141.116V8.00426H146.242ZM142.01 4.18182V14H139.409V4.18182H142.01ZM147.949 4.18182V14H145.366V4.18182H147.949ZM154.497 14.1918C153.492 14.1918 152.627 13.9787 151.902 13.5526C151.182 13.1222 150.628 12.5256 150.24 11.7628C149.857 11 149.665 10.1222 149.665 9.12926C149.665 8.12358 149.859 7.24148 150.247 6.48295C150.639 5.72017 151.195 5.12571 151.915 4.69957C152.635 4.26918 153.492 4.05398 154.485 4.05398C155.341 4.05398 156.091 4.20952 156.735 4.5206C157.378 4.83168 157.887 5.26847 158.262 5.83097C158.637 6.39347 158.844 7.05398 158.882 7.8125H156.313C156.24 7.32244 156.048 6.92827 155.737 6.62997C155.431 6.32741 155.028 6.17614 154.529 6.17614C154.107 6.17614 153.739 6.29119 153.423 6.52131C153.112 6.74716 152.869 7.07741 152.695 7.51207C152.52 7.94673 152.433 8.47301 152.433 9.09091C152.433 9.71733 152.518 10.25 152.688 10.6889C152.863 11.1278 153.108 11.4624 153.423 11.6925C153.739 11.9226 154.107 12.0376 154.529 12.0376C154.84 12.0376 155.119 11.9737 155.367 11.8459C155.618 11.718 155.825 11.5327 155.987 11.2898C156.153 11.0426 156.262 10.7464 156.313 10.4013H158.882C158.84 11.1513 158.635 11.8118 158.269 12.3828C157.906 12.9496 157.406 13.3928 156.767 13.7124C156.127 14.032 155.371 14.1918 154.497 14.1918ZM163.227 10.4077L166.762 4.18182H169.447V14H166.852V7.75497L163.33 14H160.626V4.18182H163.227V10.4077ZM177.056 8.06179V10.2223H171.732V8.06179H177.056ZM173.835 4.18182V14H171.118V4.18182H173.835ZM179.997 14.1918C179.025 14.1918 178.186 13.9744 177.478 13.5398C176.771 13.1051 176.225 12.5043 175.842 11.7372C175.463 10.9702 175.273 10.0902 175.273 9.0973C175.273 8.1044 175.463 7.22869 175.842 6.47017C176.225 5.71165 176.771 5.11932 177.478 4.69318C178.186 4.26705 179.025 4.05398 179.997 4.05398C180.973 4.05398 181.812 4.26705 182.515 4.69318C183.223 5.11932 183.766 5.71165 184.145 6.47017C184.529 7.22869 184.721 8.1044 184.721 9.0973C184.721 10.0902 184.529 10.9702 184.145 11.7372C183.766 12.5043 183.223 13.1051 182.515 13.5398C181.812 13.9744 180.973 14.1918 179.997 14.1918ZM179.997 11.9929C180.504 11.9929 180.913 11.8693 181.224 11.6222C181.535 11.3707 181.763 11.0277 181.908 10.593C182.053 10.1541 182.125 9.65554 182.125 9.0973C182.125 8.53906 182.053 8.04474 181.908 7.61435C181.763 7.17969 181.535 6.83878 181.224 6.59162C180.913 6.34446 180.504 6.22088 179.997 6.22088C179.494 6.22088 179.085 6.34446 178.77 6.59162C178.454 6.83452 178.222 7.17116 178.073 7.60156C177.928 8.03196 177.855 8.53054 177.855 9.0973C177.855 9.6598 177.928 10.1584 178.073 10.593C178.222 11.0277 178.454 11.3707 178.77 11.6222C179.085 11.8693 179.494 11.9929 179.997 11.9929Z" fill="white"/>
</svg>
