<svg width="156" height="40" viewBox="0 0 156 40" fill="none" xmlns="http://www.w3.org/2000/svg">
<rect width="156" height="40" rx="20" fill="#DD3037"/>
<path d="M37.239 24V15.2727H39.0842V18.8736H42.8299V15.2727H44.6708V24H42.8299V20.3949H39.0842V24H37.239ZM47.6964 24H45.7191L48.7319 15.2727H51.1097L54.1183 24H52.141L49.9549 17.267H49.8867L47.6964 24ZM47.5728 20.5696H52.2433V22.0099H47.5728V20.5696ZM63.7372 15.2727V16.794H59.7912V24H57.946V15.2727H63.7372ZM64.4457 24V22.517L64.6928 22.4957C65.011 22.4702 65.2681 22.3494 65.4641 22.1335C65.6602 21.9148 65.8065 21.5668 65.9031 21.0895C66.0025 20.6094 66.0664 19.9645 66.0948 19.1548L66.2397 15.2727H72.163V24H70.369V16.7514H67.9528L67.8164 19.7898C67.771 20.767 67.6545 21.5653 67.467 22.1847C67.2823 22.804 66.9869 23.2614 66.5806 23.5568C66.1772 23.8523 65.6246 24 64.9229 24H64.4457ZM75.1886 24H73.2113L76.2241 15.2727H78.6019L81.6104 24H79.6332L77.4471 17.267H77.3789L75.1886 24ZM75.065 20.5696H79.7354V22.0099H75.065V20.5696ZM82.6609 24V15.2727H86.1552C86.7972 15.2727 87.3327 15.3679 87.7617 15.5582C88.1907 15.7486 88.5131 16.0128 88.729 16.3509C88.945 16.6861 89.0529 17.0724 89.0529 17.5099C89.0529 17.8509 88.9847 18.1506 88.8484 18.4091C88.712 18.6648 88.5245 18.875 88.2859 19.0398C88.0501 19.2017 87.7802 19.3168 87.4762 19.3849V19.4702C87.8086 19.4844 88.1197 19.5781 88.4094 19.7514C88.7021 19.9247 88.9393 20.1676 89.1211 20.4801C89.3029 20.7898 89.3938 21.1591 89.3938 21.5881C89.3938 22.0511 89.2788 22.4645 89.0487 22.8281C88.8214 23.1889 88.4847 23.4744 88.0387 23.6847C87.5927 23.8949 87.043 24 86.3896 24H82.6609ZM84.506 22.4915H86.0103C86.5245 22.4915 86.8995 22.3935 87.1353 22.1974C87.3711 21.9986 87.489 21.7344 87.489 21.4048C87.489 21.1634 87.4308 20.9503 87.3143 20.7656C87.1978 20.581 87.0316 20.4361 86.8157 20.331C86.6026 20.2259 86.3484 20.1733 86.0529 20.1733H84.506V22.4915ZM84.506 18.9247H85.8739C86.1268 18.9247 86.3512 18.8807 86.5472 18.7926C86.7461 18.7017 86.9023 18.5739 87.016 18.4091C87.1325 18.2443 87.1907 18.0469 87.1907 17.8168C87.1907 17.5014 87.0785 17.2472 86.854 17.054C86.6325 16.8608 86.3171 16.7642 85.908 16.7642H84.506V18.9247ZM90.5945 24V15.2727H92.4396V18.8736H96.1854V15.2727H98.0263V24H96.1854V20.3949H92.4396V24H90.5945ZM100.489 24.1193V22.6193H100.962C101.198 22.6193 101.388 22.5909 101.533 22.5341C101.678 22.4744 101.793 22.3878 101.879 22.2741C101.967 22.1577 102.04 22.0128 102.1 21.8395L102.207 21.554L99.0362 15.2727H100.945L102.999 19.5682L104.717 15.2727H106.6L103.592 22.2869C103.447 22.6108 103.275 22.9119 103.076 23.1903C102.88 23.4687 102.629 23.6932 102.322 23.8636C102.015 24.0341 101.623 24.1193 101.146 24.1193H100.489ZM109.444 15.2727V24H107.598V15.2727H109.444ZM111.319 19.0696V20.5099H108.532V19.0696H111.319ZM118.917 19.6364C118.917 20.5881 118.736 21.3977 118.375 22.0653C118.017 22.733 117.529 23.2429 116.909 23.5952C116.293 23.9446 115.6 24.1193 114.83 24.1193C114.054 24.1193 113.358 23.9432 112.742 23.5909C112.125 23.2386 111.638 22.7287 111.28 22.0611C110.922 21.3935 110.743 20.5852 110.743 19.6364C110.743 18.6847 110.922 17.875 111.28 17.2074C111.638 16.5398 112.125 16.0312 112.742 15.6818C113.358 15.3295 114.054 15.1534 114.83 15.1534C115.6 15.1534 116.293 15.3295 116.909 15.6818C117.529 16.0312 118.017 16.5398 118.375 17.2074C118.736 17.875 118.917 18.6847 118.917 19.6364ZM117.046 19.6364C117.046 19.0199 116.953 18.5 116.769 18.0767C116.587 17.6534 116.33 17.3324 115.998 17.1136C115.665 16.8949 115.276 16.7855 114.83 16.7855C114.384 16.7855 113.995 16.8949 113.662 17.1136C113.33 17.3324 113.071 17.6534 112.887 18.0767C112.705 18.5 112.614 19.0199 112.614 19.6364C112.614 20.2528 112.705 20.7727 112.887 21.196C113.071 21.6193 113.33 21.9403 113.662 22.1591C113.995 22.3778 114.384 22.4872 114.83 22.4872C115.276 22.4872 115.665 22.3778 115.998 22.1591C116.33 21.9403 116.587 21.6193 116.769 21.196C116.953 20.7727 117.046 20.2528 117.046 19.6364Z" fill="white"/>
</svg>
